<svg version="1.1" id="Layer_1" xmlns="http://www.w3.org/2000/svg" xmlns:xlink="http://www.w3.org/1999/xlink" x="0px" y="0px"
	 viewBox="0 0 32 32" style="enable-background:new 0 0 32 32;" xml:space="preserve">
<style type="text/css">
	.Yellow{fill:#FCB01B;}
	.Black{fill:#737374;}
	.Red{fill:#D02027;}
	.Green{fill:#129C49;}
	.Blue{fill:#3575BB;}
	.st0{opacity:0.5;}
</style>
<g class="st0">
	<path class="Black" d="M8,24H0v-6h8V24z M26.6,10.8c0.4-0.4,0.9-0.7,1.4-0.8V10h-8v6h1.4L26.6,10.8z M28,2h-8v6h8V2z M18,2h-8v6h8
		V2z M8,10H0v6h8V10z M15.7,22.4c0.1-0.6,0.4-1.1,0.8-1.5l1.1-1.1l0,0l0.4-0.4V18h-8v6h3.1C13.8,23.2,14.6,22.6,15.7,22.4z M8,2H0v6
		h8V2z"/>
</g>
<rect x="10" y="10" class="Blue" width="8" height="6"/>
<path class="Yellow" d="M16.6,24.3c3.1,3.1,0,0,3.1,3.1C18.1,32,13.6,32,10,32C13.5,28.5,13.8,24.3,16.6,24.3z"/>
<path class="Red" d="M31.8,14.9l-2.7-2.7c-0.3-0.3-0.8-0.3-1.1,0l-7.5,7.5l3.8,3.8l7.5-7.5C32.1,15.8,32.1,15.2,31.8,14.9z"/>
<path class="Black" d="M19.4,20.9l-1.5,1.5c-0.3,0.3-0.3,0.8,0,1.1l2.7,2.7c0.3,0.3,0.8,0.3,1.1,0l1.5-1.5L19.4,20.9z"/>
</svg>
