<svg version="1.1" id="Layer_1" xmlns="http://www.w3.org/2000/svg" xmlns:xlink="http://www.w3.org/1999/xlink" x="0px" y="0px"
	 viewBox="0 0 32 32" style="enable-background:new 0 0 32 32;" xml:space="preserve">
<style type="text/css">
	.Yellow{fill:#FCB01B;}
	.Black{fill:#737374;}
	.Red{fill:#D02027;}
	.Green{fill:#129C49;}
	.Blue{fill:#3575BB;}
	.st0{opacity:0.5;}
</style>
<path class="Black" d="M31,0H1C0.5,0,0,0.5,0,1v30c0,0.5,0.5,1,1,1h30c0.5,0,1-0.5,1-1V1C32,0.5,31.5,0,31,0z M30,30H2V2h28V30z"/>
<g class="st0">
	<polygon class="Black" points="6,26 6,10 4,10 4,28 22,28 22,26 	"/>
</g>
<rect x="8" y="4" class="Green" width="16" height="2"/>
<rect x="8" y="16" class="Yellow" width="4" height="8"/>
<rect x="14" y="10" class="Blue" width="4" height="14"/>
<rect x="22" y="18" class="Blue" width="4" height="4"/>
<rect x="22" y="12" class="Yellow" width="4" height="4"/>
</svg>
