<svg version="1.1" id="Fill_Background" xmlns="http://www.w3.org/2000/svg" xmlns:xlink="http://www.w3.org/1999/xlink" x="0px"
	 y="0px" viewBox="0 0 32 32" style="enable-background:new 0 0 32 32;" xml:space="preserve">
<style type="text/css">
	.Black{fill:#727272;}
	.Blue{fill:#1177D7;}
	.st0{fill:none;}
	.st1{opacity:0.25;}
</style>
<path class="Black" d="m19.34,1l-10.95,0c-0.55,0 -0.91,0.35 -0.91,0.87l0,4.86l1.82,-1.74l0,-2.26l9.12,0l0,4.34c0,0.52 0.36,0.87 0.91,0.87l4.56,0l0,12.15l-14.6,0l0,-0.95c-0.64,-0.09 -1.28,-0.43 -1.73,-0.87l-0.09,-0.09l0,2.78c0,0.52 0.36,0.87 0.91,0.87l16.42,0c0.55,0 0.91,-0.35 0.91,-0.87l0,-13.89l-6.39,-6.08z"/>
<path class="Black" d="m11.24,17.25c-0.85,0.87 -2.23,0.87 -3.08,0l-3.08,-3.15c-0.85,-0.87 -0.85,-2.28 0,-3.15l4.01,-4.1l6.17,6.3l-4.01,4.1z"/>
<path class="Blue" d="m13.05,9.1c2.55,0 4.64,3.24 4.64,7.21c0,0.99 1.04,1.8 2.32,1.8c1.28,0 2.32,-0.81 2.32,-1.8c0,-3.96 -4.17,-7.21 -9.28,-7.21z"/>
<rect id="Indicator" y="24" class="st0" width="32" height="8"/>
<g class="st1">
	<path class="Black" d="M0,24V32h32V24H0z M30,30H2v-4h28V30z"/>
</g>
</svg>