<svg version="1.1" id="Layer_1" xmlns="http://www.w3.org/2000/svg" xmlns:xlink="http://www.w3.org/1999/xlink" x="0px" y="0px"
	 viewBox="0 0 16 16" style="enable-background:new 0 0 16 16;" xml:space="preserve">
<style type="text/css">
	.Blue{fill:#3475BA;}
	.Black{fill:#737373;}
	.Green{fill:#119B49;}
</style>
<rect y="1" class="Green" width="16" height="3"/>
<polygon class="Black" points="15,4 15,14 1,14 1,4 0,4 0,15 16,15 16,4 "/>
<path class="Blue" d="M6.8,6C6.5,6,6.3,5.9,6,5.9S5.5,6,5.2,6C4,6.4,4,7.6,4,8.3v1.4c0,0.7,0,1.8,1.2,2.2C5.5,12,5.7,12,6,12
	s0.5,0,0.8-0.1C8,11.5,8,10.4,8,9.7V8.3C8,7.6,8,6.4,6.8,6z M6.9,9.7C6.9,10.5,6.8,11,6,11s-0.9-0.4-0.9-1.3V8.3C5.1,7.5,5.2,7,6,7
	s0.9,0.4,0.9,1.4V9.7z"/>
<polygon class="Blue" points="11.1,11 11.1,6 10,6 9,6.5 9,7.6 9.9,7.3 9.9,11 9,11 9,12 12,12 12,11 "/>
</svg>
