<svg version="1.1" id="Layer_1" xmlns="http://www.w3.org/2000/svg" xmlns:xlink="http://www.w3.org/1999/xlink" x="0px" y="0px"
	 viewBox="0 0 16 16" style="enable-background:new 0 0 16 16;" xml:space="preserve">
<style type="text/css">
	.Blue{fill:#3475BA;}
	.Black{fill:#737373;}
</style>
<path class="Black" d="M0,1v14h16V1H0z M15,14H1V2h14V14z"/>
<path class="Blue" d="M6,13l1.3-3h1.3L7,13H6z M2.6,10v1h3.8v-1H5.1V5h-1L2.4,5.8v1.1l1.5-0.6V10H2.6z M12.3,9.2V10h-1.5l1.8-2
	c0.5-0.5,0.6-0.8,0.6-1.5c0-1.3-0.9-1.5-2.3-1.5c-0.1,0-1,0-1.6,0.3v1c0.7-0.2,1.3-0.2,1.6-0.2c0.6,0,1,0.1,1,0.6
	c0,0.2,0,0.4-0.3,0.7l-2.4,2.8V11h4.2V9.2H12.3z"/>
</svg>
