<svg version="1.1" id="Layer_1" xmlns="http://www.w3.org/2000/svg" xmlns:xlink="http://www.w3.org/1999/xlink" x="0px" y="0px"
	 viewBox="0 0 16 16" style="enable-background:new 0 0 16 16;" xml:space="preserve">
<style type="text/css">
	.Blue{fill:#3475BA;}
	.Black{fill:#737373;}
</style>
<path class="Black" d="M0,1v14h16V1H0z M15,14H1V2h14V14z"/>
<path class="Blue" d="M6,6v4h1v1H4v-1h1V6H4V5h3v1H6z M9.6,5H7.5v1H8v4H7.5v1h2.1c1.5,0,2.4-0.6,2.4-2.4V7.4C12,5.7,11.2,5,9.6,5z
	 M11,8.6c0,1-0.3,1.4-1.3,1.4H9V6h0.7C10.6,6,11,6.3,11,7.4V8.6z"/>
</svg>
