<svg version="1.1" id="Layer_1" xmlns="http://www.w3.org/2000/svg" xmlns:xlink="http://www.w3.org/1999/xlink" x="0px" y="0px"
	 viewBox="0 0 16 16" style="enable-background:new 0 0 16 16;" xml:space="preserve">
<style type="text/css">
	.Blue{fill:#3475BA;}
	.Black{fill:#737373;}
</style>
<path class="Blue" d="M9,5H8V4h2v2.2C10.2,6.1,10.6,6,11.1,6C12.6,6,13,6.9,13,8v1c0,0.9-0.2,2-2,2c-0.4,0-1.2,0-2-0.1V5z M10,10
	c0.3,0,0.8,0.1,1,0.1c0.8,0,0.9-0.3,0.9-1.1V8c0-0.8-0.3-1.1-0.9-1.1c-0.3,0-0.8,0.1-1,0.1V10z"/>
<path class="Blue" d="M7,10V6.3C6.4,6.1,5.8,6,5.1,6C3.1,6,3,7.3,3,8v1c0,0.9,0.2,2,1.9,2c0.2,0,0.7,0,1.3-0.3V11H7h1v-1H7z M6,10
	c-0.3,0.1-0.7,0.1-0.9,0.1c-0.8,0-1-0.3-1-1V8c0-0.7,0.2-1.1,1-1.1C5.3,6.9,5.7,7,6,7V10z"/>
<path class="Black" d="M16,1H0v14h16V1z M15,14H1V2h14V14z"/>
</svg>
