<svg version="1.1" id="Layer_1" xmlns="http://www.w3.org/2000/svg" xmlns:xlink="http://www.w3.org/1999/xlink" x="0px" y="0px"
	 viewBox="0 0 16 16" style="enable-background:new 0 0 16 16;" xml:space="preserve">
<style type="text/css">
	.Blue{fill:#3475BA;}
	.Black{fill:#737373;}
</style>
<path class="Black" d="M0,1v14h16V1H0z M15,14H1V2h14V14z"/>
<path class="Blue" d="M7.4,9.9V11H3.6V9.9h1.3V6.3L3.4,6.9V5.8L5,5h1.1v4.9H7.4z M10.9,9.9V9.2H12V11H7.8v-0.9l2.4-2.8
	c0.3-0.3,0.3-0.5,0.3-0.7c0-0.5-0.4-0.6-1-0.6C9.3,5.9,8.7,6,8,6.2v-1C8.6,5,9.4,4.9,9.6,4.9c1.3,0,2.3,0.2,2.3,1.5
	c0,0.7-0.2,1-0.6,1.5l-1.9,2H10.9z"/>
</svg>
