<svg version="1.1" id="Layer_1" xmlns="http://www.w3.org/2000/svg" xmlns:xlink="http://www.w3.org/1999/xlink" x="0px" y="0px"
	 viewBox="0 0 16 16" style="enable-background:new 0 0 16 16;" xml:space="preserve">
<style type="text/css">
	.Green{fill:#119B49;}
	.Blue{fill:#3475BA;}
	.Black{fill:#737373;}
</style>
<path class="Blue" d="M8,5C5.8,5,4,6.8,4,9s1.8,4,4,4s4-1.8,4-4S10.2,5,8,5z M8,12c-1.7,0-3-1.4-3-3s1.3-3,3-3s3,1.3,3,3
	S9.7,12,8,12z"/>
<polygon class="Black" points="8,9 8,7 7,7 7,10 10,10 10,9 "/>
<rect y="1" class="Green" width="16" height="3"/>
<path class="Black" d="M0,4v11h16V4H0z M15,14H1V4h14V14z"/>
</svg>
