<svg version="1.1" id="Layer_1" xmlns="http://www.w3.org/2000/svg" xmlns:xlink="http://www.w3.org/1999/xlink" x="0px" y="0px"
	 viewBox="0 0 16 16" style="enable-background:new 0 0 16 16;" xml:space="preserve">
<style type="text/css">
	.Green{fill:#119B49;}
	.Blue{fill:#3475BA;}
	.Black{fill:#737373;}
</style>
<rect y="1" class="Green" width="16" height="3"/>
<path class="Black" d="M0,4v11h16V4H0z M15,14H1V4h14V14z"/>
<path class="Blue" d="M7.4,10.9V12H3.6v-1.1h1.3V7.3L3.4,7.9V6.8L5,6h1.1v4.9H7.4z M10.9,10.9v-0.7H12V12H7.8v-0.9l2.4-2.8
	c0.3-0.3,0.3-0.5,0.3-0.7c0-0.5-0.4-0.6-1-0.6C9.3,6.9,8.7,7,8,7.2v-1C8.6,6,9.4,5.9,9.6,5.9c1.3,0,2.3,0.2,2.3,1.5
	c0,0.7-0.2,1-0.6,1.5l-1.8,1.9h1.4V10.9z"/>
</svg>
