<svg version="1.1" id="Layer_1" xmlns="http://www.w3.org/2000/svg" xmlns:xlink="http://www.w3.org/1999/xlink" x="0px" y="0px"
	 viewBox="0 0 16 16" style="enable-background:new 0 0 16 16;" xml:space="preserve">
<style type="text/css">
	.Red{fill:#CF2127;}
	.Black{fill:#737373;}
</style>
<path class="Black" d="M0,1v14h16V1H0z M15,14H1V2h14V14z"/>
<path class="Red" d="M9,8l1.8-1.8c0.2-0.2,0.2-0.4,0-0.6l-0.5-0.5C10.1,5,9.9,5,9.8,5.1L8,7L6.1,5.1C6,5,5.8,5,5.6,5.1L5.1,5.6
	C5,5.8,5,6,5.1,6.2L6.9,8L5.1,9.8C5,10,5,10.2,5.1,10.4l0.5,0.5C5.8,11,6,11,6.2,10.9L8,9l1.9,1.9c0.1,0.1,0.4,0.1,0.5,0l0.5-0.5
	c0.1-0.1,0.1-0.4,0-0.5L9,8z"/>
</svg>
