<svg version="1.1" id="Layer_1" xmlns="http://www.w3.org/2000/svg" xmlns:xlink="http://www.w3.org/1999/xlink" x="0px" y="0px"
	 viewBox="0 0 16 16" style="enable-background:new 0 0 16 16;" xml:space="preserve">
<style type="text/css">
	.Green{fill:#119B49;}
	.Blue{fill:#3475BA;}
	.Black{fill:#737373;}
</style>
<rect y="1" class="Green" width="16" height="3"/>
<polygon class="Black" points="15,4 15,14 1,14 1,4 0,4 0,15 16,15 16,4 "/>
<path class="Blue" d="M9,6H8V5h2v2.2C10.3,7.1,10.6,7,11.1,7C12.6,7,13,7.9,13,9v1c0,0.9-0.2,2-2,2c-0.4,0-1.2,0-2-0.1V6z M10,11
	c0.3,0,0.8,0.1,1,0.1c0.8,0,0.9-0.3,0.9-1.1V9c0-0.8-0.3-1.1-0.9-1.1c-0.3,0-0.8,0.1-1,0.1V11z"/>
<path class="Blue" d="M7,11V7.3C6.4,7.1,5.8,7,5.1,7C3.1,7,3,8.3,3,9v1c0,0.9,0.2,2,1.9,2c0.2,0,0.7,0,1.3-0.3V12H7h1v-1H7z M6,11
	c-0.3,0.1-0.7,0.1-0.9,0.1c-0.8,0-1-0.3-1-1V9c0-0.7,0.2-1.1,1-1.1C5.3,7.9,5.7,8,6,8V11z"/>
</svg>
