<svg version="1.1" id="Layer_1" xmlns="http://www.w3.org/2000/svg" xmlns:xlink="http://www.w3.org/1999/xlink" x="0px" y="0px"
     viewBox="0 0 32 32" style="enable-background:new 0 0 32 32;" xml:space="preserve">
<style type="text/css">
	.Black{fill:#737374;}
	.Yellow{fill:#FCB01B;}
	.Green{fill:#129C49;}
	.Blue{fill:#387CB7;}
	.Red{fill:#D02127;}
	.White{fill:#FFFFFF;}
	.st0{opacity:0.5;}
	.st1{opacity:0.75;}
	.st2{opacity:0.25;}
	.st3{display:none;fill:#737374;}
</style>
<path class="Black" d="M24.3,20.7L18.3,4h-4.7L7.8,20.7H6.5c-0.3,0-0.5,0.2-0.5,0.5v2.4C6,23.8,6.2,24,6.5,24h7
	c0.3,0,0.5-0.2,0.5-0.5v-2.4c0-0.3-0.2-0.5-0.5-0.5H12l0.7-2.2h6.5l0.7,2.2h-1.5c-0.3,0-0.5,0.2-0.5,0.5v2.4c0,0.3,0.2,0.5,0.5,0.5
	h7c0.3,0,0.5-0.2,0.5-0.5v-2.4c0-0.3-0.2-0.5-0.5-0.5H24.3z M16,8.3L16,8.3l2.1,6.6h-4L16,8.3z"/>
<g class="st0">
	<rect x="2" y="26" class="Black" width="28" height="6"/>
</g>
</svg>
