<svg version="1.1" id="Layer_1" xmlns="http://www.w3.org/2000/svg" xmlns:xlink="http://www.w3.org/1999/xlink" x="0px" y="0px"
     viewBox="0 0 32 32" style="enable-background:new 0 0 32 32;" xml:space="preserve">
<style type="text/css">
	.Black{fill:#737374;}
	.Yellow{fill:#FCB01B;}
	.Green{fill:#129C49;}
	.Blue{fill:#387CB7;}
	.Red{fill:#D02127;}
	.White{fill:#FFFFFF;}
	.st0{opacity:0.5;}
	.st1{opacity:0.75;}
	.st2{opacity:0.25;}
	.st3{display:none;fill:#737374;}
</style>
<rect x="18" y="18" class="Red" width="4" height="4"/>
<path class="Blue" d="M32,24c0,3.3-2.7,6-6,6h-2v-4h0.3H26c1.1,0,2-0.9,2-2c0-1.1-0.9-2-2-2h-1.7H24v-4h2C29.3,18,32,20.7,32,24z
	 M22,26h-4v4h4V26z"/>
<path class="Green" d="M21,2H3C2.4,2,2,2.4,2,3v18c0,0.6,0.4,1,1,1h13v-5c0-0.6,0.4-1,1-1h5V3C22,2.4,21.6,2,21,2z"/>
</svg>
