<svg fill="none" height="16" viewBox="0 0 16 16" width="16" xmlns="http://www.w3.org/2000/svg"><path d="m7 5.00006v-4.99999896h-5c-1.104687 0-2 .89531296-2 1.99999896v12.00004c0 1.1031.895313 2 2 2h3.26756c-.17017-.2942-.26756-.6358-.26756-1v-6.00004c0-1.10457.89543-2 2-2h5v-2z" fill="#f5c591"/><g fill="#d27614"><path d="m7 .00006104 5 4.99999896h-5z"/><path d="m10.9969 14.0188c-.3052 0-.6088-.0928-.8682-.2778l-4.1287-3.1097v4.3688c0 .5506.44937 1 1 1h8c.5506 0 1-.4494 1-1v-4.3688l-4.1188 3.1031c-.2656.1907-.575.2844-.8843.2844zm4.0031-6.01874h-8c-.55063 0-1 .45-1 1v.38063l4.7188 3.55621c.164.1163.3968.1167.5709-.0078l4.7103-3.54779v-.38125c0-.55-.45-1-1-1z"/></g></svg>