<svg fill="none" height="16" viewBox="0 0 16 16" width="16" xmlns="http://www.w3.org/2000/svg"><g fill="#f5c591"><path d="m2 9h3v2.5c0 .2761-.22386.5-.5.5h-2c-.27614 0-.5-.2239-.5-.5z"/><path d="m11 9h3v2.5c0 .2761-.2239.5-.5.5h-2c-.2761 0-.5-.2239-.5-.5z"/><path d="m6.5 1h3v2.5c0 .27614-.22386.5-.5.5h-2c-.27614 0-.5-.22386-.5-.5z"/></g><path d="m11 9.00006h-1c-.55228 0-1 .44772-1 1.00004v4c0 .5522.44772 1 1 1h5c.5523 0 1-.4478 1-1v-4c0-.55232-.4477-1.00004-1-1.00004h-1v2.50004c0 .2761-.2239.5-.5.5h-2c-.2761 0-.5-.2239-.5-.5z" fill="#d27614"/><path d="m2 9.00006h-1c-.552285 0-1 .44772-1 1.00004v4c0 .5522.447715 1 1 1h5c.55228 0 1-.4478 1-1v-4c0-.55232-.44772-1.00004-1-1.00004h-1v2.50004c0 .2761-.22386.5-.5.5h-2c-.27614 0-.5-.2239-.5-.5z" fill="#d27614"/><path d="m6.5 1.00006h-1c-.55228 0-1 .44772-1 1v4c0 .55229.44772 1 1 1h5c.5523 0 1-.44771 1-1v-4c0-.55228-.4477-1-1-1h-1v2.5c0 .27614-.22386.5-.5.5h-2c-.27614 0-.5-.22386-.5-.5z" fill="#d27614"/></svg>