<svg version="1.1" id="Layer_1" xmlns="http://www.w3.org/2000/svg" xmlns:xlink="http://www.w3.org/1999/xlink" x="0px" y="0px"
     viewBox="0 0 32 32" style="enable-background:new 0 0 32 32;" xml:space="preserve">
<style type="text/css">
	.Black{fill:#737374;}
	.Yellow{fill:#FCB01B;}
	.Green{fill:#129C49;}
	.Blue{fill:#387CB7;}
	.Red{fill:#D02127;}
	.White{fill:#FFFFFF;}
	.st0{opacity:0.5;}
	.st1{opacity:0.75;}
	.st2{opacity:0.25;}
	.st3{display:none;fill:#737374;}
</style>
<path class="Black" d="M20,24.6l-0.5,3c0,0.2-0.2,0.4-0.5,0.4h-6.4h-2.1c-0.3,0-0.5-0.3-0.5-0.6l0.5-3c0-0.2,0.2-0.4,0.5-0.4h2.3
	l2.9-16H14c-0.3,0-0.5-0.3-0.5-0.6l0.5-3C14,4.2,14.3,4,14.5,4h2.3h4.3h2.1c0.3,0,0.5,0.3,0.5,0.6l-0.5,3c0,0.2-0.3,0.4-0.5,0.4
	h-2.3l-2.9,16h2.1C19.8,24,20.1,24.3,20,24.6z"/>
</svg>
