<svg version="1.1" id="Layer_1" xmlns="http://www.w3.org/2000/svg" xmlns:xlink="http://www.w3.org/1999/xlink" x="0px" y="0px"
     viewBox="0 0 32 32" style="enable-background:new 0 0 32 32;" xml:space="preserve">
<style type="text/css">
	.Black{fill:#737374;}
	.Yellow{fill:#FCB01B;}
	.Green{fill:#129C49;}
	.Blue{fill:#387CB7;}
	.Red{fill:#D02127;}
	.White{fill:#FFFFFF;}
	.st0{opacity:0.5;}
	.st1{opacity:0.75;}
	.st2{opacity:0.25;}
	.st3{display:none;fill:#737374;}
</style>
<rect x="4" y="28" class="Black" width="22" height="4"/>
<path class="Black" d="M25.5,4h-7.3c-0.3,0-0.5,0.2-0.5,0.5v3C17.8,7.8,18,8,18.3,8h1.5v8.9c0,4-1.2,5.4-4.6,5.4
	c-3.7,0-4.9-1.3-4.9-5.4V8h1.5c0.3,0,0.5-0.2,0.5-0.5v-3C12.3,4.2,12,4,11.8,4H4.5C4.2,4,4,4.2,4,4.5v3C4,7.8,4.2,8,4.5,8H6v8.9
	c0,5.8,1.4,9.1,8.9,9.1c6.8,0,9.1-2.3,9.1-9.1V8h1.5C25.8,8,26,7.8,26,7.5v-3C26,4.2,25.8,4,25.5,4z"/>
</svg>
