<svg version="1.1" id="Layer_1" xmlns="http://www.w3.org/2000/svg" xmlns:xlink="http://www.w3.org/1999/xlink" x="0px" y="0px"
     viewBox="0 0 32 32" style="enable-background:new 0 0 32 32;" xml:space="preserve">
<style type="text/css">
	.Black{fill:#737374;}
	.Yellow{fill:#FCB01B;}
	.Green{fill:#129C49;}
	.Blue{fill:#387CB7;}
	.Red{fill:#D02127;}
	.White{fill:#FFFFFF;}
	.st0{opacity:0.5;}
	.st1{opacity:0.75;}
	.st2{opacity:0.25;}
	.st3{display:none;fill:#737374;}
</style>
<path class="Black" d="M31,2H1C0.5,2,0,2.5,0,3v24c0,0.5,0.5,1,1,1h30c0.5,0,1-0.5,1-1V3C32,2.5,31.5,2,31,2z M30,26H2V4h28V26z"/>
<g class="st0">
	<path class="Black" d="M26,10H6V8h20V10z M26,12H6v2h20V12z M26,16H6v2h20V16z M26,20H6v2h20V20z"/>
</g>
</svg>
