<svg version="1.1" id="Layer_1" xmlns="http://www.w3.org/2000/svg" xmlns:xlink="http://www.w3.org/1999/xlink" x="0px" y="0px"
     viewBox="0 0 32 32" style="enable-background:new 0 0 32 32;" xml:space="preserve">
<style type="text/css">
	.Black{fill:#737374;}
	.Yellow{fill:#FCB01B;}
	.Green{fill:#129C49;}
	.Blue{fill:#387CB7;}
	.Red{fill:#D02127;}
	.White{fill:#FFFFFF;}
	.st0{opacity:0.5;}
	.st1{opacity:0.75;}
	.st2{opacity:0.25;}
	.st3{display:none;fill:#737374;}
</style>
<path class="Black" d="M23,12h-3V7l-7-7H1C0.4,0,0,0.4,0,1v22c0,0.6,0.4,1,1,1h5v7c0,0.6,0.4,1,1,1h22c0.6,0,1-0.4,1-1V19L23,12z
	 M2,22V2h10v5c0,0.6,0.4,1,1,1h5v4H7c-0.6,0-1,0.4-1,1v9H2z M28,30H8v-6v-2v-8h10h2h2v5c0,0.6,0.4,1,1,1h5V30z"/>
</svg>
