<svg version="1.1" id="_x31_" xmlns="http://www.w3.org/2000/svg" xmlns:xlink="http://www.w3.org/1999/xlink" x="0px" y="0px"
	 viewBox="0 0 24 24" style="enable-background:new 0 0 24 24;" xml:space="preserve">
<style type="text/css">
	.st0{opacity:0.5;}
	.st1{fill-rule:evenodd;clip-rule:evenodd;fill:#C6C6C6;}
</style>
<g id="_x32_" class="st0">
	<path id="_x33_" class="st1" d="M8,8v8H5c-1.1,0-2-0.9-2-2V5c0-1.1,0.9-2,2-2h11c1.1,0,2,0.9,2,2v3H8z"/>
</g>
<path id="_x30_1" class="st1" d="M19,21H9c-1.1,0-2-0.9-2-2V9c0-1.1,0.9-2,2-2h10c1.1,0,2,0.9,2,2v10C21,20.1,20.1,21,19,21z M19,13
	h-4V9h-2v4H9v2h4v4h2v-4h4V13z"/>
</svg>
