<svg version="1.1" id="Layer_1" xmlns="http://www.w3.org/2000/svg" xmlns:xlink="http://www.w3.org/1999/xlink" x="0px" y="0px"
	 viewBox="0 0 16 16" style="enable-background:new 0 0 16 16;" xml:space="preserve">
<style type="text/css">
	.dx_disabled{fill:#C6C6C6;}
</style>
<path class="dx_disabled" d="M1,0v16h14V0H1z M13,14H3V2h10V14z"/>
<path class="dx_disabled" d="M12.1,10.4c0-0.3-0.1-0.5-0.2-0.8s-0.4-0.4-0.6-0.5C11,9,10.6,8.9,10.1,8.8C9.8,8.8,9.6,8.7,9.5,8.6
	S9.4,8.4,9.4,8.3c0-0.3,0.2-0.4,0.7-0.4c0.4,0,0.7,0.2,0.8,0.6l1-0.3c-0.2-0.6-0.7-1-1.4-1.1V6h-1v1C9.2,7.1,8.9,7.2,8.7,7.5
	c-0.2,0.3-0.4,0.6-0.4,1c0,0.3,0.1,0.6,0.3,0.9c0.2,0.3,0.7,0.5,1.4,0.6c0.3,0.1,0.6,0.1,0.7,0.2s0.2,0.2,0.2,0.3
	c0,0.1-0.1,0.3-0.2,0.4s-0.3,0.2-0.6,0.2c-0.5,0-0.9-0.2-1-0.7L8,10.7c0.2,0.8,0.7,1.2,1.5,1.3v1h1v-1c0.5-0.1,0.8-0.2,1.1-0.5
	C11.9,11.2,12.1,10.8,12.1,10.4z"/>
<rect x="5" y="3" class="dx_disabled" width="6" height="1"/>
<rect x="5" y="5" class="dx_disabled" width="4" height="1"/>
<rect x="5" y="7" class="dx_disabled" width="2" height="1"/>
</svg>
