<svg version="1.1" id="Layer_1" xmlns="http://www.w3.org/2000/svg" xmlns:xlink="http://www.w3.org/1999/xlink" x="0px" y="0px"
	 viewBox="0 0 16 16" style="enable-background:new 0 0 16 16;" xml:space="preserve">
<style type="text/css">
	.st0{fill:#2D9D54;}
</style>
<path class="st0" d="M11.5,7C9,7,7,9,7,11.5S9,16,11.5,16s4.5-2,4.5-4.5S14,7,11.5,7z M12,13l-1,1l-2.5-2.5l1-1L11,12l2.5-2.5l1,1
	L12,13z"/>
<path class="st0" d="M6,11.5C6,8.5,8.5,6,11.5,6c0.2,0,0.3,0,0.5,0c0,0,0,0,0,0c0-3.3-2.7-6-6-6S0,2.7,0,6s2.7,6,6,6c0,0,0,0,0,0
	C6,11.8,6,11.7,6,11.5z M4.3,8.6V3.4L8.6,6L4.3,8.6z"/>
</svg>
