<svg width="16" height="16" viewBox="0 0 16 16" fill="none" xmlns="http://www.w3.org/2000/svg">
<path d="M8.0002 3.5C10.4855 3.5 12.5002 5.51472 12.5002 8C12.5002 10.4853 10.4855 12.5 8.0002 12.5C5.73271 12.5 3.8558 10.8222 3.54535 8.6406C3.48699 8.23052 3.10725 7.94538 2.69717 8.00374C2.28708 8.0621 2.00195 8.44184 2.06031 8.85192C2.47448 11.7624 4.97538 14 8.0002 14C11.3139 14 14.0002 11.3137 14.0002 8C14.0002 4.68629 11.3139 2 8.0002 2C6.46302 2 5.06126 2.57829 4.0002 3.52793V2.75C4.0002 2.33579 3.66441 2 3.2502 2C2.83598 2 2.5002 2.33579 2.5002 2.75V5.75C2.5002 6.16421 2.83598 6.5 3.2502 6.5H5.7502C6.16441 6.5 6.5002 6.16421 6.5002 5.75C6.5002 5.33579 6.16441 5 5.7502 5H4.64593C5.47057 4.07854 6.66806 3.5 8.0002 3.5Z" fill="#0078D4"/>
<path d="M7.75018 5C8.1644 5 8.50018 5.33579 8.50018 5.75V7.5H9.75018C10.1644 7.5 10.5002 7.83579 10.5002 8.25C10.5002 8.66421 10.1644 9 9.75018 9H7.75018C7.33597 9 7.00018 8.66421 7.00018 8.25V5.75C7.00018 5.33579 7.33597 5 7.75018 5Z" fill="#5CAAE5"/>
</svg>
