<svg xmlns="http://www.w3.org/2000/svg" version="1.1" viewBox="0 0 16 16" fill="none">
  <path clip-rule="evenodd" d="M7.06667 2C3.71614 2 1 4.71614 1 8.06667V8.5C1 12.0899 3.91015 15 7.5 15H7.93333C11.2839 15 14 12.2839 14 8.93333C14 8.69401 13.806 8.5 13.5667 8.5H7.6C7.54477 8.5 7.5 8.45523 7.5 8.4V2.43333C7.5 2.19401 7.30599 2 7.06667 2Z" fill="#E37D80" fill-rule="evenodd"/>
  <path d="M8.93333 1C8.69401 1 8.5 1.19401 8.5 1.43333V6.5C8.5 7.05228 8.94771 7.5 9.5 7.5H14.5667C14.806 7.5 15 7.30599 15 7.06667C15 3.71614 12.2839 1 8.93333 1Z" fill="#D13438"/>
</svg>
