<svg width="16" height="16" viewBox="0 0 16 16" fill="none" xmlns="http://www.w3.org/2000/svg">
<path fill-rule="evenodd" clip-rule="evenodd" d="M8 4.5V1H4.5C3.67157 1 3 1.67157 3 2.5V7H8.5C9.88071 7 11 8.11929 11 9.5V13.5C11 14.0628 10.814 14.5822 10.5002 15H11.5C12.3284 15 13 14.3284 13 13.5V6H9.5C8.67157 6 8 5.32843 8 4.5Z" fill="#FAA06B"/>
<path d="M1.0127 9.30359L5.50977 11.9268L10 9.50905V9.5C10 8.67157 9.32837 8 8.5 8H2.5C1.73804 8 1.10889 8.56798 1.0127 9.30359ZM10 10.6448L5.73706 12.9402C5.58374 13.0228 5.39844 13.0196 5.24805 12.9319L1 10.4539V13.5C1 14.3284 1.67163 15 2.5 15H8.5C9.32837 15 10 14.3284 10 13.5V10.6448Z" fill="#DE590B"/>
<path d="M9 4.5V1.25L12.75 5H9.5C9.22386 5 9 4.77614 9 4.5Z" fill="#DE590B"/>
</svg>
