<svg width="16" height="16" viewBox="0 0 16 16" fill="none" xmlns="http://www.w3.org/2000/svg">
<path d="M6.75605 7.02269L7.82874 6.03876C8.42963 5.48758 8.63576 4.6268 8.3497 3.86323L7.89132 2.6397C7.53621 1.6918 6.50496 1.18373 5.53698 1.47977C3.82078 2.00464 2.50179 3.59941 2.90786 5.494C3.17491 6.73995 3.68547 8.30385 4.65389 9.9686C5.62395 11.6362 6.7318 12.869 7.68146 13.7336C9.1159 15.0395 11.1661 14.7129 12.4851 13.4831C13.2189 12.799 13.2938 11.662 12.6562 10.8875L11.8156 9.86641C11.2974 9.23689 10.4489 8.98501 9.67109 9.22981L8.28264 9.66682C8.22925 9.61194 8.16739 9.54632 8.09992 9.47109C7.87179 9.21674 7.58643 8.86025 7.34644 8.44458C7.10645 8.0289 6.94041 7.60353 6.83419 7.27879C6.80278 7.18275 6.77688 7.09637 6.75605 7.02269Z" fill="#0078D4"/>
</svg>
