<svg width="16" height="16" viewBox="0 0 16 16" fill="none" xmlns="http://www.w3.org/2000/svg">
<path d="M2 8C2 4.68629 4.68629 2 8 2C11.3137 2 14 4.68629 14 8C14 11.3137 11.3137 14 8 14C4.68629 14 2 11.3137 2 8Z" fill="#A9D3F2"/>
<path d="M9.74999 8H6.24999C5.55964 8 4.96234 8.5653 5.07986 9.24558C5.26746 10.3316 5.89577 11.5 8 11.5C10.1042 11.5 10.7325 10.3316 10.9201 9.24558C11.0377 8.5653 10.4404 8 9.74999 8ZM8 7C8.82842 7 9.5 6.32843 9.5 5.5C9.5 4.67157 8.82842 4 8 4C7.17157 4 6.5 4.67157 6.5 5.5C6.5 6.32843 7.17157 7 8 7Z" fill="#0078D4"/>
</svg>
