<svg width="16" height="16" viewBox="0 0 16 16" fill="none" xmlns="http://www.w3.org/2000/svg">
<path fill-rule="evenodd" clip-rule="evenodd" d="M9.5 6C8.672 6 8 5.328 8 4.5V1H4.5C3.672 1 3 1.672 3 2.5V13.5C3 14.328 3.672 15 4.5 15H11.5C12.328 15 13 14.328 13 13.5V6H9.5Z" fill="#C6B1DE"/>
<path d="M5.5 13C5.776 13 6 12.776 6 12.5V6.5C6 6.224 5.776 6 5.5 6C5.224 6 5 6.224 5 6.5V12.5C5 12.776 5.224 13 5.5 13Z" fill="#6B3F9E"/>
<path d="M11 12.5C11 12.776 10.776 13 10.5 13C10.224 13 10 12.776 10 12.5V8.5C10 8.224 10.224 8 10.5 8C10.776 8 11 8.224 11 8.5V12.5Z" fill="#6B3F9E"/>
<path d="M7.94 13C8.216 13 8.44 12.776 8.44 12.5V10.5C8.44 10.224 8.216 10 7.94 10C7.664 10 7.44 10.224 7.44 10.5V12.5C7.44 12.776 7.664 13 7.94 13Z" fill="#6B3F9E"/>
<path d="M9.5 5H12.75L9 1.25V4.5C9 4.776 9.224 5 9.5 5Z" fill="#6B3F9E"/>
</svg>
