<svg width="16" height="16" viewBox="0 0 16 16" fill="none" xmlns="http://www.w3.org/2000/svg">
<path fill-rule="evenodd" clip-rule="evenodd" d="M2.7 3C1.76112 3 1 3.76112 1 4.7V11.3C1 12.2389 1.76112 13 2.7 13H13.3C14.2389 13 15 12.2389 15 11.3V4.7C15 3.76112 14.2389 3 13.3 3H2.7ZM9.5 6C9.22386 6 9 6.22386 9 6.5C9 6.77614 9.22386 7 9.5 7H12.5C12.7761 7 13 6.77614 13 6.5C13 6.22386 12.7761 6 12.5 6H9.5ZM9.5 9C9.22386 9 9 9.22386 9 9.5C9 9.77614 9.22386 10 9.5 10H12.5C12.7761 10 13 9.77614 13 9.5C13 9.22386 12.7761 9 12.5 9H9.5Z" fill="#C6B1DE"/>
<path d="M6.61821 6.35683C6.61821 7.10619 6.01074 7.71366 5.26138 7.71366C4.51203 7.71366 3.90455 7.10619 3.90455 6.35683C3.90455 5.60747 4.51203 5 5.26138 5C6.01074 5 6.61821 5.60747 6.61821 6.35683Z" fill="#6B3F9E"/>
<path d="M3 9.2503C3 8.77632 3.38424 8.39207 3.85823 8.39207H6.66454C7.13852 8.39207 7.52277 8.77632 7.52277 9.2503C7.52277 10.0167 7.00119 10.6847 6.2577 10.8706L6.20432 10.8839C5.58522 11.0387 4.93754 11.0387 4.31845 10.8839L4.26507 10.8706C3.52158 10.6847 3 10.0167 3 9.2503Z" fill="#6B3F9E"/>
</svg>
