<svg width="16" height="16" viewBox="0 0 16 16" fill="none" xmlns="http://www.w3.org/2000/svg">
<path fill-rule="evenodd" clip-rule="evenodd" d="M8 7C8.27614 7 8.5 7.22386 8.5 7.5V8.99999H9.5C10.6046 8.99999 11.5 9.89542 11.5 11V11.5C11.5 11.7761 11.2761 12 11 12C10.7239 12 10.5 11.7761 10.5 11.5V11C10.5 10.4477 10.0523 9.99999 9.5 9.99999H6.5C5.94772 9.99999 5.5 10.4477 5.5 11V11.5C5.5 11.7761 5.27614 12 5 12C4.72386 12 4.5 11.7761 4.5 11.5V11C4.5 9.89542 5.39543 8.99999 6.5 8.99999H7.5V7.5C7.5 7.22386 7.72386 7 8 7Z" fill="#FAA06B"/>
<path fill-rule="evenodd" clip-rule="evenodd" d="M8.31619 1.05172C8.11093 0.982762 7.88901 0.982761 7.68374 1.05172L5.18374 1.89153C4.7754 2.02871 4.49997 2.41382 4.49997 2.8476V6.15239C4.49997 6.58617 4.7754 6.97129 5.18374 7.10846L7.68374 7.94828C7.88901 8.01724 8.11093 8.01724 8.3162 7.94828L10.8162 7.10846C11.2245 6.97129 11.5 6.58617 11.5 6.15239L11.5 2.8476C11.5 2.41382 11.2245 2.02871 10.8162 1.89153L8.31619 1.05172Z" fill="#DE590B"/>
<path fill-rule="evenodd" clip-rule="evenodd" d="M6.55277 3.27638C6.67627 3.02939 6.9766 2.92928 7.22359 3.05277L7.99999 3.44097L8.77638 3.05277C9.02337 2.92928 9.32371 3.02939 9.4472 3.27638C9.5707 3.52337 9.47058 3.82371 9.22359 3.9472L8.49999 4.309V4.99999C8.49999 5.27613 8.27613 5.49999 7.99999 5.49999C7.72385 5.49999 7.49999 5.27613 7.49999 4.99999V4.309L6.77638 3.9472C6.52939 3.82371 6.42928 3.52337 6.55277 3.27638Z" fill="#FDCFB4"/>
<path d="M8.99994 13C8.99994 11.8954 9.89537 11 10.9999 11C12.1045 11 12.9999 11.8954 12.9999 13C12.9999 14.1046 12.1045 15 10.9999 15C9.89537 15 8.99994 14.1046 8.99994 13Z" fill="#DE590B"/>
<path d="M3.00006 13C3.00006 11.8954 3.89549 11 5.00006 11C6.10463 11 7.00006 11.8954 7.00006 13C7.00006 14.1046 6.10463 15 5.00006 15C3.89549 15 3.00006 14.1046 3.00006 13Z" fill="#DE590B"/>
</svg>
