<svg width="16" height="16" viewBox="0 0 16 16" fill="none" xmlns="http://www.w3.org/2000/svg">
<g clip-path="url(#clip0_649_985)">
<path fill-rule="evenodd" clip-rule="evenodd" d="M0.749969 2.99988C0.749969 1.75724 1.75733 0.749878 2.99997 0.749878C4.24261 0.749878 5.24997 1.75724 5.24997 2.99988C5.24997 4.24252 4.24261 5.24988 2.99997 5.24988C1.75733 5.24988 0.749969 4.24252 0.749969 2.99988ZM2.99997 2.24988C2.58576 2.24988 2.24997 2.58566 2.24997 2.99988C2.24997 3.41409 2.58576 3.74988 2.99997 3.74988C3.41418 3.74988 3.74997 3.41409 3.74997 2.99988C3.74997 2.58566 3.41418 2.24988 2.99997 2.24988Z" fill="#5CAAE5"/>
<path fill-rule="evenodd" clip-rule="evenodd" d="M10.75 11.9999C10.75 11.3095 11.3097 10.7499 12 10.7499H14C14.6904 10.7499 15.25 11.3095 15.25 11.9999V13.9999C15.25 14.6902 14.6904 15.2499 14 15.2499H12C11.3097 15.2499 10.75 14.6902 10.75 13.9999V11.9999ZM12.25 12.2499V13.7499H13.75V12.2499H12.25Z" fill="#0078D4"/>
<path fill-rule="evenodd" clip-rule="evenodd" d="M5.75 2.99988C5.75 2.58566 6.08579 2.24988 6.5 2.24988H11.5C12.7426 2.24988 13.75 3.25724 13.75 4.49988V7.68922L13.9697 7.46955C14.2626 7.17665 14.7374 7.17665 15.0303 7.46955C15.3232 7.76244 15.3232 8.23731 15.0303 8.53021L13.5303 10.0302C13.4584 10.1021 13.3755 10.1564 13.2871 10.193C13.2042 10.2273 13.1138 10.2473 13.019 10.2496C13.0127 10.2498 13.0064 10.2499 13 10.2499C12.8983 10.2499 12.8013 10.2296 12.7129 10.193C12.6245 10.1564 12.5416 10.1021 12.4697 10.0302L10.9697 8.53021C10.6768 8.23731 10.6768 7.76244 10.9697 7.46955C11.2626 7.17665 11.7374 7.17665 12.0303 7.46955L12.25 7.68922V4.49988C12.25 4.08566 11.9142 3.74988 11.5 3.74988H6.5C6.08579 3.74988 5.75 3.41409 5.75 2.99988Z" fill="#5CAAE5"/>
<path fill-rule="evenodd" clip-rule="evenodd" d="M10.2497 12.9998C10.2497 13.414 9.91391 13.7498 9.49969 13.7498H4.49969C3.25705 13.7498 2.24969 12.7425 2.24969 11.4998V8.31048L2.03002 8.53015C1.73713 8.82304 1.26226 8.82304 0.969364 8.53015C0.676472 8.23725 0.676472 7.76238 0.969364 7.46949L2.46936 5.96949C2.54127 5.89758 2.62415 5.84333 2.71261 5.80673C2.79551 5.77235 2.88591 5.75241 2.98068 5.75005C2.987 5.7499 2.99334 5.74982 2.99969 5.74982C3.10139 5.74982 3.19835 5.77006 3.28678 5.80673C3.37524 5.84333 3.45812 5.89758 3.53003 5.96949L5.03003 7.46949C5.32292 7.76238 5.32292 8.23725 5.03003 8.53015C4.73713 8.82304 4.26226 8.82304 3.96936 8.53015L3.74969 8.31048V11.4998C3.74969 11.914 4.08548 12.2498 4.49969 12.2498H9.49969C9.91391 12.2498 10.2497 12.5856 10.2497 12.9998Z" fill="#0078D4"/>
</g>
<defs>
<clipPath id="clip0_649_985">
<rect width="16" height="16" fill="white"/>
</clipPath>
</defs>
</svg>
