<svg width="16" height="16" viewBox="0 0 16 16" fill="none" xmlns="http://www.w3.org/2000/svg">
<path d="M11.3362 2.06642L11.4126 2.21898L11.989 3.75197C12.0343 3.87269 12.1296 3.96795 12.2503 4.01324L13.7304 4.56851C14.3799 4.81218 14.7289 5.50622 14.5558 6.16287L14.5142 6.29356L13.8256 7.81639C13.7723 7.93378 13.7723 8.06849 13.8256 8.18588L14.4796 9.62509C14.7665 10.2567 14.5226 10.9942 13.9358 11.3362L13.7833 11.4126L12.2503 11.989C12.1296 12.0343 12.0343 12.1296 11.989 12.2503L11.4338 13.7304C11.1901 14.3799 10.496 14.7289 9.83939 14.5558L9.7087 14.5142L8.18588 13.8256C8.06849 13.7723 7.93378 13.7723 7.81639 13.8256L6.37718 14.4796C5.74561 14.7665 5.00805 14.5226 4.66611 13.9358L4.58969 13.7833L4.01324 12.2503C3.96795 12.1296 3.87269 12.0343 3.75197 11.989L2.27189 11.4338C1.62239 11.1901 1.27337 10.496 1.44644 9.83939L1.48808 9.7087L2.17665 8.18588C2.22999 8.06849 2.22999 7.93378 2.17665 7.81639L1.52272 6.37718C1.23575 5.74561 1.47971 5.00805 2.06642 4.66611L2.21898 4.58969L3.75197 4.01324C3.87269 3.96795 3.96795 3.87269 4.01324 3.75197L4.56851 2.27189C4.81218 1.62239 5.50622 1.27337 6.16287 1.44644L6.29356 1.48808L7.81639 2.17665C7.93378 2.22999 8.06849 2.22999 8.18588 2.17665L9.62509 1.52272C10.2567 1.23575 10.9942 1.47971 11.3362 2.06642Z" fill="#9FD89F"/>
<path fill-rule="evenodd" clip-rule="evenodd" d="M8.5 4.5C8.5 4.22386 8.27614 4 8 4C7.72386 4 7.5 4.22386 7.5 4.5V4.56803C7.35518 4.60361 7.19145 4.65778 7.02644 4.74029C6.77961 4.86369 6.51758 5.05666 6.31837 5.35546C6.11707 5.6574 6 6.03751 6 6.5C6 7.23473 6.22824 7.7537 6.67582 8.07729C6.92929 8.26055 7.22767 8.35671 7.5 8.41751V10.3764C7.48272 10.3682 7.46546 10.3595 7.4483 10.3502C7.32726 10.2846 7.2206 10.1955 7.14277 10.0719C7.06629 9.95035 7.0001 9.76785 7.00012 9.48583C7.00014 9.20969 6.7763 8.98582 6.50016 8.98579C6.22402 8.98577 6.00014 9.20961 6.00012 9.48575C6.00009 9.9339 6.10826 10.3055 6.29646 10.6045C6.4833 10.9014 6.73164 11.0992 6.97182 11.2294C7.15543 11.3289 7.33953 11.3917 7.5 11.4315V11.5C7.5 11.7761 7.72386 12 8 12C8.27614 12 8.5 11.7761 8.5 11.5V11.4264C8.66005 11.3855 8.84422 11.3218 9.02788 11.2226C9.52533 10.9537 10.0001 10.4278 10.0001 9.51437C10.0001 8.77715 9.77268 8.25602 9.32599 7.93022C9.07198 7.74495 8.773 7.64774 8.5 7.5864V5.62354C8.50826 5.62746 8.51652 5.63149 8.52476 5.63566C8.65257 5.70018 8.76588 5.78935 8.84847 5.91441C8.92914 6.03658 9.0001 6.22233 9.00012 6.51441C9.00014 6.79055 9.22402 7.01439 9.50016 7.01436C9.7763 7.01434 10.0001 6.79047 10.0001 6.51432C10.0001 6.04923 9.88352 5.66711 9.68294 5.36336C9.48427 5.06251 9.22259 4.86774 8.97542 4.74296C8.80974 4.65932 8.64534 4.60447 8.5 4.56851V4.5ZM7.5 5.62198C7.49121 5.62609 7.48241 5.63033 7.47363 5.63472C7.34544 5.69882 7.23245 5.78711 7.1504 5.91018C7.07044 6.03012 7 6.2125 7 6.5C7 7.01527 7.14677 7.1838 7.26172 7.26691C7.32754 7.31449 7.4054 7.35134 7.5 7.38266V5.62198ZM8.5 8.62187V10.3694C8.5175 10.3611 8.53498 10.3523 8.55236 10.3429C8.77732 10.2213 9.00012 10.0063 9.00012 9.51437C9.00012 8.9944 8.85255 8.82264 8.73671 8.73815C8.6713 8.69044 8.59392 8.65338 8.5 8.62187Z" fill="#107C10"/>
</svg>
