<svg width="16" height="16" viewBox="0 0 16 16" fill="none" xmlns="http://www.w3.org/2000/svg">
<path d="M11.3362 2.06642L11.4126 2.21898L11.989 3.75197C12.0343 3.87269 12.1296 3.96795 12.2503 4.01324L13.7304 4.56851C14.3799 4.81218 14.7289 5.50622 14.5558 6.16287L14.5142 6.29356L13.8256 7.81639C13.7723 7.93378 13.7723 8.06849 13.8256 8.18588L14.4796 9.62509C14.7665 10.2567 14.5226 10.9942 13.9358 11.3362L13.7833 11.4126L12.2503 11.989C12.1296 12.0343 12.0343 12.1296 11.989 12.2503L11.4338 13.7304C11.1901 14.3799 10.496 14.7289 9.83939 14.5558L9.7087 14.5142L8.18588 13.8256C8.06849 13.7723 7.93378 13.7723 7.81639 13.8256L6.37718 14.4796C5.74561 14.7665 5.00805 14.5226 4.66611 13.9358L4.58969 13.7833L4.01324 12.2503C3.96795 12.1296 3.87269 12.0343 3.75197 11.989L2.27189 11.4338C1.62239 11.1901 1.27337 10.496 1.44644 9.83939L1.48808 9.7087L2.17665 8.18588C2.22999 8.06849 2.22999 7.93378 2.17665 7.81639L1.52272 6.37718C1.23575 5.74561 1.47971 5.00805 2.06642 4.66611L2.21898 4.58969L3.75197 4.01324C3.87269 3.96795 3.96795 3.87269 4.01324 3.75197L4.56851 2.27189C4.81218 1.62239 5.50622 1.27337 6.16287 1.44644L6.29356 1.48808L7.81639 2.17665C7.93378 2.22999 8.06849 2.22999 8.18588 2.17665L9.62509 1.52272C10.2567 1.23575 10.9942 1.47971 11.3362 2.06642Z" fill="#FDCFB4"/>
<path d="M8 10.5C8.41421 10.5 8.75 10.8358 8.75 11.25C8.75 11.6642 8.41421 12 8 12C7.58579 12 7.25 11.6642 7.25 11.25C7.25 10.8358 7.58579 10.5 8 10.5ZM8 4.5C9.10457 4.5 10 5.39543 10 6.5C10 7.23053 9.78822 7.63969 9.24605 8.20791L8.98196 8.47745C8.60451 8.87102 8.5 9.0831 8.5 9.5C8.5 9.77614 8.27614 10 8 10C7.72386 10 7.5 9.77614 7.5 9.5C7.5 8.76947 7.71178 8.36031 8.25395 7.79209L8.51804 7.52255C8.89549 7.12898 9 6.9169 9 6.5C9 5.94772 8.55228 5.5 8 5.5C7.44772 5.5 7 5.94772 7 6.5C7 6.77614 6.77614 7 6.5 7C6.22386 7 6 6.77614 6 6.5C6 5.39543 6.89543 4.5 8 4.5Z" fill="#DE590B"/>
</svg>
