<svg width="16" height="16" viewBox="0 0 16 16" fill="none" xmlns="http://www.w3.org/2000/svg">
<path fill-rule="evenodd" clip-rule="evenodd" d="M9.35418 15H1.33459C0.30671 15 -0.332032 13.9031 0.180799 13.0312L6.84354 1.65625C7.35731 0.78125 8.64517 0.78125 9.1555 1.65625L12.9378 8.11054C12.637 8.03827 12.323 8 12 8C10.1211 8 8.54483 9.29541 8.1155 11.0418C8.07736 11.0373 8.03855 11.035 7.9992 11.035C7.45637 11.035 7.01667 11.475 7.01667 12.0175C7.01667 12.56 7.45668 13 7.9992 13C8.0415 13 8.08316 12.9973 8.12401 12.9922C8.32549 13.7816 8.76181 14.4772 9.35418 15ZM7.9992 4.5C7.58513 4.5 7.24918 4.83594 7.24918 5.25V9.25C7.24918 9.66562 7.64138 10 8.02733 10C8.41328 10 8.74923 9.66406 8.74923 9.25V5.25C8.74923 4.8375 8.41328 4.5 7.9992 4.5Z" fill="#E8939A"/>
<path d="M15.75 11.8653C15.75 11.5255 15.5126 11.25 15.2197 11.25H13.2803C12.9874 11.25 12.75 11.5255 12.75 11.8653C12.75 12.0285 12.8059 12.185 12.9053 12.3004L13.7197 13.2451C14.0126 13.585 14.4874 13.585 14.7803 13.2451L15.5947 12.3004C15.6941 12.185 15.75 12.0285 15.75 11.8653Z" fill="#CC0F1F"/>
<path d="M12 15C11.4067 15 10.8266 14.8241 10.3333 14.4944C9.83994 14.1648 9.45543 13.6962 9.22836 13.1481C9.0013 12.5999 8.94189 11.9967 9.05765 11.4147C9.1734 10.8328 9.45912 10.2982 9.87868 9.87868C10.2982 9.45912 10.8328 9.1734 11.4147 9.05765C11.9967 8.94189 12.5999 9.0013 13.1481 9.22836C13.6962 9.45543 14.1648 9.83994 14.4944 10.3333C14.8241 10.8266 15 11.4067 15 12H13.702C13.702 11.6634 13.6022 11.3343 13.4152 11.0544C13.2281 10.7745 12.9623 10.5564 12.6513 10.4276C12.3403 10.2988 11.9981 10.265 11.668 10.3307C11.3378 10.3964 11.0345 10.5585 10.7965 10.7965C10.5585 11.0345 10.3964 11.3378 10.3307 11.668C10.265 11.9981 10.2988 12.3403 10.4276 12.6513C10.5564 12.9623 10.7745 13.2281 11.0544 13.4152C11.3343 13.6022 11.6634 13.702 12 13.702L12 15Z" fill="#CC0F1F"/>
</svg>
