<svg width="16" height="16" viewBox="0 0 16 16" fill="none" xmlns="http://www.w3.org/2000/svg">
<g clip-path="url(#clip0_65_55)">
<path fill-rule="evenodd" clip-rule="evenodd" d="M9.35418 15H1.33459C0.30671 15 -0.332032 13.9031 0.180799 13.0312L6.84354 1.65625C7.35731 0.78125 8.64517 0.78125 9.1555 1.65625L12.9378 8.11054C12.637 8.03827 12.323 8 12 8C10.1211 8 8.54483 9.29541 8.1155 11.0418C8.07736 11.0373 8.03855 11.035 7.9992 11.035C7.45637 11.035 7.01667 11.475 7.01667 12.0175C7.01667 12.56 7.45668 13 7.9992 13C8.0415 13 8.08316 12.9973 8.12401 12.9922C8.32549 13.7816 8.76181 14.4772 9.35418 15ZM7.9992 4.5C7.58513 4.5 7.24918 4.83594 7.24918 5.25V9.25C7.24918 9.66562 7.64138 10 8.02733 10C8.41328 10 8.74923 9.66406 8.74923 9.25V5.25C8.74923 4.8375 8.41328 4.5 7.9992 4.5Z" fill="#E8939A"/>
<path d="M12 9C10.3438 9 9 10.3438 9 12C9 13.6562 10.3431 15 12 15C13.6569 15 15 13.6569 15 12C15 10.3431 13.6562 9 12 9ZM13.1771 12.7062C13.3071 12.8363 13.3073 13.0473 13.1773 13.1775C13.0473 13.3075 12.8362 13.3073 12.706 13.1773L11.9996 12.4708L11.2931 13.1773C11.1631 13.3073 10.9521 13.3075 10.8219 13.1775C10.6917 13.0474 10.692 12.8364 10.8221 12.7062L11.5285 11.9998L10.8221 11.2933C10.692 11.1633 10.6918 10.9523 10.8219 10.8221C10.9519 10.6919 11.1629 10.6922 11.2931 10.8223L11.9996 11.5287L12.7061 10.8223C12.8361 10.6922 13.0471 10.692 13.1771 10.8221C13.3071 10.9521 13.307 11.1631 13.1769 11.2933L12.4705 11.9998L13.1771 12.7062Z" fill="#CC0F1F"/>
</g>
<defs>
<clipPath id="clip0_65_55">
<rect width="16" height="16" fill="white"/>
</clipPath>
</defs>
</svg>
