<svg fill="none" height="16" viewBox="0 0 16 16" width="16" xmlns="http://www.w3.org/2000/svg" xmlns:xlink="http://www.w3.org/1999/xlink"><clipPath id="a"><path d="m0 0h16v16h-16z"/></clipPath><g clip-path="url(#a)" fill="#000"><path d="m15.7149 8.90031c-.0116-.01333-2.9662-3.39378-2.9636-3.38311-.48-.66756-1.3191-1.088-2.232-1.088-.0249 0-.0489.00267-.0729.00355-.76086.01956-1.38042.41156-1.8533.91645l3.2898 3.71733-5.47469 3.42667s-1.03822.7609-2.21778.4809c.09689.0604 3.088 1.928 3.088 1.928.44355.2782 1.01867.2782 1.46222 0 0 0 6.52355-4.0853 6.65685-4.1662.7343-.4454.7449-1.34315.3174-1.83559z"/><path d="m8.98922 1.30415c-.46667-.512892-1.42045-.607114-1.99823.03822-.168.18756-6.511107 7.344-6.689773 7.54578-.504889.56711-.3582226 1.43555.313777 1.84975 0 0 1.556446.9751 1.657776 1.0391.61867.3876 2.28534.9209 3.95911-.0853l1.048-.656-3.14311-1.96711s3.96534-4.47911 3.97067-4.48622c1.15022-1.25867 2.65506-.91733 3.21156-.65333.0018.00088-2.31734-2.61067-2.32978-2.62311z"/></g></svg>