<svg fill="none" height="16" viewBox="0 0 14 16" width="14" xmlns="http://www.w3.org/2000/svg" xmlns:xlink="http://www.w3.org/1999/xlink"><clipPath id="a"><path d="m0 0h14v16h-14z"/></clipPath><g clip-path="url(#a)"><path d="m7 16.0001c-.53125 0-1.04063-.2094-1.41563-.5844s-.58437-.9125-.58437-1.4156h4c0 .5031-.20938 1.0406-.58438 1.4156s-.91249.5844-1.41562.5844z" fill="#7e5dbb"/><path d="m7.99999 1.00006v.6c2.28121.46344 4.00001 2.48125 4.00001 4.9v.5875c0 1.47188.5406 2.8875 1.5156 3.98754l.2313.2593c.2625.2969.3281.7157.1656 1.075-.1625.3594-.5188.5907-.9125.5907h-12.000007c-.39375 0-.750907-.2313-.9122192-.5907-.1613125-.3593-.09679067-.7781.1648442-1.075l.23175-.2593c.976252-1.10004 1.515622-2.51566 1.515622-3.98754v-.5875c0-2.41875 1.69063-4.43656 4-4.9v-.6c0-.552186.44688-.99999896 1-.99999896.55313 0 1 .44781296 1 .99999896z" fill="#b7a9d1"/></g></svg>