<svg fill="none" height="16" viewBox="0 0 16 16" width="16" xmlns="http://www.w3.org/2000/svg"><g fill="#cc0f1f"><path d="m14.6531 1.00351c.4335 0 .8494.33656.8494.845v4.55937c0 .33094-.2683.59907-.5991.59907h-4.5531c-.50874 0-.84562-.41625-.84562-.85 0-.20732.07691-.41875.24875-.59063l4.28437-4.3125c.1966-.17344.4091-.25031.6153-.25031z"/><path d="m11.5938 11.8001c.5775 0 .999.47.999.9987 0 1.095-2.5497 2.2003-4.59374 2.2003-3.85625 0-6.99687-3.1406-6.99687-6.99686 0-3.85625 3.14062-6.97188 6.99687-6.97188 1.70625 0 3.32184.64844 4.57814 1.73844l-1.4138 1.41469c-.8818-.72313-1.99527-1.145-3.16559-1.145-2.75281 0-4.99375 2.24031-4.99375 4.99375 0 2.75346 2.23969 4.96466 4.99282 4.96466 2.28442 0 2.79372-1.1968 3.59692-1.1968z"/></g></svg>