<svg width="16" height="16" viewBox="0 0 16 16" fill="none" xmlns="http://www.w3.org/2000/svg">
<path d="M12.0005 7.00055C11.2562 7.00055 10.6158 7.4116 10.272 8.01478C10.1823 8.00821 10.0941 8.00055 10.0005 8.00055C7.95238 8.00055 6.00931 6.44061 5.29995 4.50903C5.72633 4.14231 6 3.60536 6 3C6 1.896 5.104 1 4 1C2.896 1 2 1.896 2 3C2 3.73782 2.40394 4.37603 3 4.72304V11.2775C2.40394 11.624 2 12.2622 2 13C2 14.1034 2.896 15 4 15C5.104 15 6 14.1034 6 13C6 12.2616 5.59606 11.624 5 11.2775V7.67926C6.31527 9.07061 8.13082 10 10 10C10.0996 10 10.1817 9.99343 10.2715 9.99015C10.6174 10.5906 11.2578 11 12 11C13.1034 11 14 10.1034 14 9C14 7.89655 13.104 7.00055 12.0005 7.00055ZM4.00055 14.0005C3.44882 14.0005 3.00055 13.5534 3.00055 13.0005C3.00055 12.4488 3.44882 12.0005 4.00055 12.0005C4.55391 12.0005 5.00055 12.4488 5.00055 13.0005C5.00055 13.5534 4.55391 14.0005 4.00055 14.0005ZM4.00055 4C3.44882 4 3.00055 3.55337 3.00055 3C3.00055 2.44663 3.44882 2 4.00055 2C4.55391 2 5.00055 2.44663 5.00055 3C5.00055 3.55337 4.55391 4 4.00055 4ZM12.0005 10.0005C11.4488 10.0005 11.0005 9.55337 11.0005 9.00055C11.0005 8.44773 11.4488 8.00055 12.0005 8.00055C12.5534 8.00055 13.0005 8.44718 13.0005 9.00055C13.0005 9.55391 12.5534 10.0005 12.0005 10.0005Z" fill="#FE7109"/>
</svg>
