<svg width="16" height="16" viewBox="0 0 16 16" fill="none" xmlns="http://www.w3.org/2000/svg">
<path d="M7.9994 0C7.44628 0 6.9994 0.446875 6.9994 1V1.6C4.71815 2.0625 2.9994 4.08125 2.9994 6.5V7.0875C2.9994 8.55625 2.45878 9.975 1.48378 11.075L1.25253 11.3344C0.990027 11.6281 0.927527 12.05 1.0869 12.4094C1.24628 12.7688 1.60565 13 1.9994 13H13.9994C14.3932 13 14.7494 12.7688 14.9119 12.4094C15.0744 12.05 15.0088 11.6281 14.7463 11.3344L14.515 11.075C13.54 9.975 12.9994 8.55938 12.9994 7.0875V6.5C12.9994 4.08125 11.2807 2.0625 8.9994 1.6V1C8.9994 0.446875 8.55253 0 7.9994 0ZM9.41503 15.4156C9.79003 15.0406 9.9994 14.5312 9.9994 14H5.9994C5.9994 14.5312 6.20878 15.0406 6.58378 15.4156C6.95878 15.7906 7.46815 16 7.9994 16C8.53065 16 9.04003 15.7906 9.41503 15.4156Z" fill="#80B7E5"/>
<path d="M6.25119 4.5H9.75119C10.0387 4.5 10.2981 4.6625 10.4262 4.92188C10.5543 5.18125 10.5199 5.48438 10.3449 5.7125L7.78556 9H9.75119C10.1668 9 10.5012 9.33437 10.5012 9.75C10.5012 10.1656 10.1668 10.5 9.75119 10.5H6.25119C5.96369 10.5 5.70431 10.3375 5.57619 10.0781C5.44806 9.81875 5.48244 9.51563 5.65744 9.2875L8.21681 6H6.25119C5.83556 6 5.50119 5.66563 5.50119 5.25C5.50119 4.83437 5.83556 4.5 6.25119 4.5Z" fill="#00437A"/>
</svg>
