<svg width="16" height="16" viewBox="0 0 16 16" fill="none" xmlns="http://www.w3.org/2000/svg">
<path d="M14.0594 1.24877L12.5438 2.76534C11.3281 1.66221 9.73125 1.00002 8 1.00002C5.04688 1.00002 2.45594 2.88565 1.54938 5.69377C1.37944 6.21909 1.66803 6.78377 2.19344 6.95252C2.72375 7.1244 3.28281 6.8334 3.45281 6.30909C4.09062 4.32815 5.91875 3.00002 8 3.00002C9.18625 3.00002 10.2812 3.44315 11.1313 4.18127L9.72188 5.56252C9.22188 6.08752 9.5875 6.98127 10.325 7.00002H14.9156C15.2406 6.99065 15.5 6.72815 15.5 6.40315V1.84502C15.5 1.09346 14.5906 0.717211 14.0594 1.24877Z" fill="#0070CC"/>
<path d="M14.45 10.3063C13.5437 13.1156 10.95 15 7.97188 15C6.24031 15 4.64375 14.3378 3.42812 13.2347L1.9125 14.7513C1.40844 15.2813 0.5 14.9063 0.5 14.1281V9.5969C0.5 9.2719 0.76 9.0094 1.08312 9.00002H5.67375C6.41031 9.01809 6.77563 9.91096 6.24969 10.4375L4.86906 11.8188C5.71875 12.5563 6.8125 13 8 13C10.0806 13 11.9094 11.671 12.5469 9.69377C12.7163 9.1694 13.2769 8.88033 13.8062 9.05033C14.3312 9.19065 14.6219 9.78127 14.45 10.3063Z" fill="#0070CC"/>
</svg>
