<svg width="16" height="13" viewBox="0 0 16 13" fill="none" xmlns="http://www.w3.org/2000/svg">
<g clip-path="url(#clip0_1_36)">
<path d="M0.127796 0.229896C0.332245 -0.0309045 0.709246 -0.0766295 0.970245 0.127796L15.77 11.7275C16.03 11.9325 16.0775 12.31 15.8725 12.57C15.6675 12.83 15.29 12.8775 15.03 12.6725L0.229896 1.07225C-0.0309045 0.867745 -0.0766295 0.490746 0.127796 0.229896Z" fill="#D27614"/>
<path d="M4.65009 3.0125C5.22509 2.13425 6.13509 1.496 7.20009 1.28V0.8C7.20009 0.35825 7.55759 0 8.00009 0C8.44259 0 8.80009 0.35825 8.80009 0.8V1.28C10.6251 1.65075 12.0001 3.265 12.0001 5.2V5.67C12.0001 6.8475 12.4326 7.98 13.2126 8.86L13.3976 9.0675C13.6076 9.305 13.6601 9.64 13.5301 9.9275C13.5026 9.9375 13.5201 9.9275 13.5151 9.96L4.65009 3.0125ZM4.00009 5.67V5.5525L10.1551 10.4H3.20009C2.88509 10.4 2.57759 10.215 2.47034 9.9275C2.34134 9.64 2.39284 9.305 2.60259 9.0675L2.78759 8.86C3.56759 7.98 4.00009 6.8475 4.00009 5.67ZM8.00009 12.8C7.57509 12.8 7.16759 12.6325 6.86759 12.3325C6.56759 12.0325 6.40009 11.6025 6.40009 11.2H9.60009C9.60009 11.6025 9.43259 12.0325 9.13259 12.3325C8.83259 12.6325 8.40259 12.8 8.00009 12.8Z" fill="#F5C591"/>
</g>
<defs>
<clipPath id="clip0_1_36">
<rect width="16" height="12.8" fill="white"/>
</clipPath>
</defs>
</svg>
