<svg fill="none" height="16" viewBox="0 0 16 16" width="16" xmlns="http://www.w3.org/2000/svg"><g fill="#000"><path d="m3.5 8-3.140304-3.58892c-.231883-.26501-.359696-.60518-.359696-.95731 0-.8029.650874-1.45377 1.45377-1.45377h8.09246c.80287 0 1.45377.65087 1.45377 1.45377 0 .35213-.1278.6923-.3597.95731l-3.1403 3.58892v5c0 .824-.94076 1.2944-1.6.8l-2-1.5c-.25181-.1889-.4-.4852-.4-.8z" fill-opacity=".5"/><path d="m12 3c0-.55228.4477-1 1-1h2c.5523 0 1 .44772 1 1s-.4477 1-1 1h-2c-.5523 0-1-.44772-1-1z"/><path d="m10 8c0-.55228.4477-1 1-1h4c.5523 0 1 .44772 1 1s-.4477 1-1 1h-4c-.5523 0-1-.44772-1-1z"/><path d="m10 13c0-.5523.4477-1 1-1h4c.5523 0 1 .4477 1 1s-.4477 1-1 1h-4c-.5523 0-1-.4477-1-1z"/></g></svg>