<svg width="16" height="16" viewBox="0 0 16 16" fill="none" xmlns="http://www.w3.org/2000/svg">
<g clip-path="url(#clip0_511_225)">
<path d="M15.6555 13.6815L13.4956 11.5227C13.9691 10.8206 14.2309 10 14.2309 9.1129C14.2309 6.56516 12.1646 4.5 9.61546 4.5C7.06631 4.5 5 6.56694 5 9.1129C5 11.6589 7.06631 13.7258 9.61546 13.7258C10.4631 13.7258 11.3241 13.4631 12.0279 13.029L14.1879 15.1877C14.3951 15.398 14.6658 15.5 14.941 15.5C15.2162 15.5 15.486 15.396 15.6941 15.1881C16.1082 14.7726 16.1082 14.0984 15.6555 13.6815ZM9.61546 11.5968C8.24503 11.5968 7.13021 10.4826 7.13021 9.1129C7.13021 7.74323 8.24503 6.62903 9.61546 6.62903C10.9859 6.62903 12.1007 7.74323 12.1007 9.1129C12.1007 10.4835 10.9868 11.5968 9.61546 11.5968Z" fill="#212529"/>
<path fill-rule="evenodd" clip-rule="evenodd" d="M1 0.500061C0.446875 0.500061 0 0.947874 0 1.50006C0 2.05319 0.446875 2.50006 1 2.50006H9.47153C9.48101 2.50002 9.49051 2.5 9.5 2.5C9.50949 2.5 9.51899 2.50002 9.52847 2.50006H10C10.5531 2.50006 11 2.05319 11 1.50006C11 0.947874 10.5531 0.500061 10 0.500061H1ZM3.01894 8.50006C3.00639 8.66506 3 8.83179 3 9C3 9.51629 3.06019 10.0185 3.17395 10.5001H1C0.446875 10.5001 0 10.0532 0 9.50006C0 8.94694 0.446875 8.50006 1 8.50006H3.01894ZM4.80951 4.50006C4.25726 5.07555 3.80989 5.75246 3.49814 6.50006H1C0.446875 6.50006 0 6.05319 0 5.50006C0 4.94694 0.446875 4.50006 1 4.50006H4.80951Z" fill="#212529"/>
</g>
<defs>
<clipPath id="clip0_511_225">
<rect width="16" height="16" fill="white"/>
</clipPath>
</defs>
</svg>
