<svg xmlns="http://www.w3.org/2000/svg" width="16" height="16" fill="none"><g clip-path="url(#a)"><path fill="#697586" d="M16 11.5c0 2.4844-2.0156 4.5-4.5 4.5S7 13.9844 7 11.5 9.0156 7 11.5 7 16 9.0156 16 11.5Zm-3.3531-1.8531L11.5 10.7937l-1.1469-1.1468a.496.496 0 0 0-.7062 0 .496.496 0 0 0 0 .7062L10.7937 11.5l-1.1468 1.1469a.496.496 0 0 0 0 .7062.496.496 0 0 0 .7062 0L11.5 12.2063l1.1469 1.1468a.496.496 0 0 0 .7062 0 .496.496 0 0 0 0-.7062L12.2063 11.5l1.1468-1.1469a.496.496 0 0 0 0-.7062.496.496 0 0 0-.7062 0Z"/><path fill="#B1B4C3" fill-rule="evenodd" d="M2 12V2h6v5.2572a5.4856 5.4856 0 0 1 2-1.0502V1.1C10 .4925 9.5075 0 8.9 0H1.1C.4925 0 0 .4925 0 1.1v11.8c0 .6075.4925 1.1 1.1 1.1h5.4997a5.4647 5.4647 0 0 1-.5773-2H2Z" clip-rule="evenodd"/></g><defs><clipPath id="a"><path fill="#fff" d="M0 0h16v16H0z"/></clipPath></defs></svg>