<svg width="16" height="16" viewBox="0 0 16 16" fill="none" xmlns="http://www.w3.org/2000/svg">
<g clip-path="url(#clip0_1175_24642)">
<path d="M15.9179 7.32338H8.36923V9.47264H13.7026C13.4564 12.4975 10.8308 13.7711 8.36923 13.7711C5.25128 13.7711 2.46154 11.3831 2.46154 7.9602C2.46154 4.69652 5.08718 2.14925 8.36923 2.14925C10.9128 2.14925 12.3897 3.74129 12.3897 3.74129L13.9487 2.14925C13.9487 2.14925 11.9795 0 8.28718 0C3.61026 0.079602 0 3.9005 0 8.0398C0 12.0199 3.3641 16 8.36923 16C12.8 16 16 13.0547 16 8.75622C16 7.8806 15.9179 7.32338 15.9179 7.32338Z" fill="black"/>
</g>
<defs>
<clipPath id="clip0_1175_24642">
<rect width="16" height="16" fill="white"/>
</clipPath>
</defs>
</svg>
