<svg xmlns="http://www.w3.org/2000/svg" width="16" height="16" fill="none"><g clip-path="url(#a)"><path fill="#CC0F1F" d="M16 11.5c0 2.4844-2.0156 4.5-4.5 4.5S7 13.9844 7 11.5 9.0156 7 11.5 7 16 9.0156 16 11.5Zm-3.3531-1.8531L11.5 10.7937l-1.1469-1.1468a.496.496 0 0 0-.7062 0 .496.496 0 0 0 0 .7062L10.7937 11.5l-1.1468 1.1469a.496.496 0 0 0 0 .7062.496.496 0 0 0 .7062 0L11.5 12.2063l1.1469 1.1468a.496.496 0 0 0 .7062 0 .496.496 0 0 0 0-.7062L12.2063 11.5l1.1468-1.1469a.496.496 0 0 0 0-.7062.496.496 0 0 0-.7062 0Z"/><path fill="#E8939A" fill-rule="evenodd" d="M2 2v6h1V6.1C3 5.4925 3.4925 5 4.1 5H6V2H2Zm-.9 8H3v3.9c0 .6075.4925 1.1 1.1 1.1h3.1572a5.4852 5.4852 0 0 1-1.0502-2H5V7h3.337a5.4695 5.4695 0 0 1 2.6603-.9773C10.9576 5.4512 10.4815 5 9.9 5H8V4h4v2.0224a5.4647 5.4647 0 0 1 2 .5773V3.1c0-.6075-.4925-1.1-1.1-1.1H8v-.9C8 .4925 7.5075 0 6.9 0H1.1C.4925 0 0 .4925 0 1.1v7.8C0 9.5075.4925 10 1.1 10Z" clip-rule="evenodd"/></g><defs><clipPath id="a"><path fill="#fff" d="M0 0h16v16H0z"/></clipPath></defs></svg>