<svg fill="none" height="16" viewBox="0 0 16 16" width="16" xmlns="http://www.w3.org/2000/svg" xmlns:xlink="http://www.w3.org/1999/xlink"><clipPath id="a"><path d="m0 0h16v16h-16z"/></clipPath><g clip-path="url(#a)" clip-rule="evenodd" fill-rule="evenodd"><path d="m10 .00006104 4 3.99999896v10.50004c0 .8284-.6716 1.5-1.5 1.5h-9c-.82844 0-1.5-.6719-1.5-1.5v-13.00004c0-.828436.67156-1.49999896 1.5-1.49999896zm-.5 13.00003896c-.27614 0-.5.2238-.5.5 0 .2761.22386.5.5.5h2c.2761 0 .5-.2239.5-.5 0-.2762-.2239-.5-.5-.5zm-5.5-10.50004c0-.27614.22386-.5.5-.5h2c.27614 0 .5.22386.5.5s-.22386.5-.5.5h-2c-.27614 0-.5-.22386-.5-.5zm.5 1.5c-.27614 0-.5.22386-.5.5s.22386.5.5.5h2c.27614 0 .5-.22386.5-.5s-.22386-.5-.5-.5z" fill="#f5c591"/><path d="m5.5 8.50006v1h5v-1zm-.5-1.5c-.55228 0-1 .44772-1 1v2.00004c0 .5522.44772 1 1 1h6c.5523 0 1-.4478 1-1v-2.00004c0-.55228-.4477-1-1-1z" fill="#d27614"/></g></svg>