<svg width="16" height="13" viewBox="0 0 16 13" fill="none" xmlns="http://www.w3.org/2000/svg">
<g clip-path="url(#clip0_1_32)">
<path d="M11.386 11.2867L10.7274 11.5299C11.0199 11.9311 11.4899 12.1875 12.0199 12.1875C12.1716 12.1875 12.3185 12.1663 12.4577 12.1267L11.386 11.2867Z" fill="#E8939A"/>
<path d="M13.4243 11.3593C13.5568 11.1227 13.6324 10.8491 13.6324 10.5574C13.6324 10.5244 13.6324 10.4914 13.6299 10.4584L12.7087 10.7985L13.4243 11.3593Z" fill="#E8939A"/>
<path d="M2.34766 9.74238C2.34766 10.6438 3.06991 11.3725 3.95991 11.3725C4.51741 11.3725 5.00741 11.0881 5.29741 10.6514L2.35841 9.54942C2.35116 9.61289 2.34766 9.67637 2.34766 9.74238Z" fill="#E8939A"/>
<path d="M6.32745 10.0496C6.55995 9.22188 6.52995 8.34082 6.23745 7.5334L6.09618 7.14057L2.38042 4.22817C2.01173 5.12854 1.38371 5.88155 0.575952 6.4416L0.371452 6.57617C0.118177 6.74629 -0.0198059 7.0459 0.0147791 7.35059C0.0493516 7.65527 0.250702 7.91426 0.534952 8.01836L6.29745 10.1486L6.32745 10.0496Z" fill="#E8939A"/>
<path d="M2.81253 3.04208L5.53018 5.17211C5.37719 3.59325 6.10396 2.04306 7.41245 1.16899C7.30245 1.11262 7.18495 1.06184 7.06495 1.01766C5.32745 0.383146 3.42745 1.2807 2.81995 3.02149L2.81253 3.04208Z" fill="#E8939A"/>
<path d="M7.19663 8.00309C7.33844 8.74817 7.30607 9.53527 7.09745 10.273L6.98245 10.6768C6.89995 10.9688 6.98745 11.2861 7.20745 11.4943C7.42745 11.7025 7.74495 11.7686 8.02745 11.6645L10.637 10.6996L7.19663 8.00309Z" fill="#E8939A"/>
<path d="M11.959 10.2109L6.51558 5.94444C5.87158 4.1373 6.78896 2.14174 8.56995 1.48358C10.3525 0.824181 12.33 1.75729 12.9825 3.56738L13.45 4.86738C13.8 5.83731 14.445 6.67012 15.29 7.24395L15.635 7.47754C15.885 7.64766 16.02 7.92441 15.985 8.24941C15.9475 8.5541 15.7475 8.7877 15.465 8.91465L11.959 10.2109Z" fill="#E8939A"/>
<path d="M0.127796 0.229896C0.332245 -0.0309045 0.709246 -0.0766295 0.970245 0.127796L15.77 11.7275C16.03 11.9325 16.0775 12.31 15.8725 12.57C15.6675 12.83 15.29 12.8775 15.03 12.6725L0.229896 1.07225C-0.0309045 0.867745 -0.0766295 0.490746 0.127796 0.229896Z" fill="#CC0F1F"/>
</g>
<defs>
<clipPath id="clip0_1_32">
<rect width="16" height="13" fill="white"/>
</clipPath>
</defs>
</svg>
