<svg width="16" height="16" viewBox="0 0 16 16" fill="none" xmlns="http://www.w3.org/2000/svg">
<g clip-path="url(#clip0_1175_24662)">
<path d="M8 0C3.6 0 0 3.6886 0 8.19688C0 11.8035 2.32 14.9183 5.44 15.9839C5.84 16.0659 6 15.82 6 15.5741C6 15.4101 6 14.8364 6 14.1806C3.76 14.6724 3.28 13.115 3.28 13.115C2.96 12.1314 2.4 11.8855 2.4 11.8855C1.68 11.3937 2.48 11.3937 2.48 11.3937C3.28 11.4756 3.68 12.2134 3.68 12.2134C4.4 13.5249 5.6 13.115 6 12.9511C6.08 12.4593 6.32 12.0494 6.48 11.8855C4.72 11.6396 2.8 10.9838 2.8 7.86901C2.8 6.96735 3.12 6.22963 3.6 5.65585C3.68 5.32797 3.36 4.50829 3.84 3.44269C3.84 3.44269 4.48 3.19678 6.08 4.26238C6.64 4.01647 7.28 3.9345 8 3.9345C8.72 3.9345 9.36 4.01647 10 4.18041C11.52 3.11482 12.24 3.36072 12.24 3.36072C12.64 4.42632 12.4 5.32797 12.32 5.49191C12.8 6.06569 13.12 6.80341 13.12 7.70507C13.12 10.8199 11.28 11.5576 9.44 11.7215C9.76 11.9674 10 12.4593 10 13.279C10 14.3445 10 15.2462 10 15.4921C10 15.738 10.16 15.9839 10.56 15.902C13.76 14.8364 16 11.7215 16 8.11491C16 3.6886 12.4 0 8 0Z" fill="black"/>
</g>
<defs>
<clipPath id="clip0_1175_24662">
<rect width="16" height="16" fill="white"/>
</clipPath>
</defs>
</svg>
