<svg fill="none" height="16" viewBox="0 0 16 16" width="16" xmlns="http://www.w3.org/2000/svg" xmlns:xlink="http://www.w3.org/1999/xlink"><clipPath id="a"><path d="m0 0h16v16h-16z"/></clipPath><g clip-path="url(#a)"><g fill="#80b7e5"><path d="m2.33493 5.16323c-.9145.80098-1.678512 1.79234-2.2382783 2.91884-.0635441.12963-.0966517.27284-.0966517.41809s.0331076.28846.0966517.41808c1.5063883 3.03106 4.4886183 5.08176 7.9033483 5.08176.94756 0 1.86188-.158 2.7206-.4511l-1.22321-1.2232c-.47577.1979-.98415.2996-1.49739.2993-.79113 0-1.56449-.2419-2.22229-.6952-.65779-.4532-1.17048-1.0975-1.47324-1.8512-.30275-.75376-.38196-1.58316-.22762-2.38333.04089-.21199.09769-.41941.16949-.62052z"/><path d="m5.362 8.19046c-.04589.42557.00525.85838.15185 1.26318.19472.53766.54803.99886 1.01021 1.31856.46217.3197 1.00994.482 1.56621.4638.09785-.0032.19509-.0119.29132-.026z"/><path d="m10.137 10.1368-2.76709-2.76713c.10346-.18007.16632-.38356.18186-.5953.02397-.32686-.06643-.65177-.25483-.91579.22856-.06862.46504-.10513.70306-.10856.55654-.00136 1.09948.17731 1.5524.51084.4529.33353.793.80514.9724 1.34843.1794.5433.1891 1.13094.0277 1.6802-.0903.30702-.2314.5934-.4155.84731z"/><path d="m11.1037 11.1035c.2441-.3096.4438-.6546.5923-1.0246.201-.50059.3043-1.03711.304-1.57888 0-.81585-.2346-1.61338-.6741-2.29173s-1.0643-1.20707-1.79516-1.51928c-.73091-.31221-1.53518-.3939-2.3111-.23473-.68181.13985-1.31483.46016-1.83791.92721l-1.37622-1.37621c1.20388-.64369 2.56116-1.00526 3.99449-1.00526 3.4147 0 6.397 2.05075 7.9033 5.08177.0636.12962.0967.27283.0967.41808s-.0331.28846-.0967.41809c-.7608 1.53114-1.8989 2.81254-3.2794 3.70574z"/></g><path d="m1.70711 2.12134c-.39053-.39053-.39053-1.02369 0-1.414216.39052-.390525 1.02369-.390525 1.41421 0l12.16588 12.165876c.3905.3905.3905 1.0236 0 1.4142-.3906.3905-1.0237.3905-1.4143 0z" fill="#0070cc"/></g></svg>