<svg width="16" height="16" viewBox="0 0 16 16" fill="none" xmlns="http://www.w3.org/2000/svg">
<g clip-path="url(#clip0_1162_23886)">
<path d="M8 4.8C9.80775 4.8 11.3142 6.2 11.3142 8C11.3142 9.8 9.80775 11.2 8 11.2C6.19225 11.2 4.68578 9.8 4.68578 8C4.68578 6.2 6.19225 4.8 8 4.8ZM8 6.4C7.09612 6.4 6.39311 7.1 6.39311 8C6.39311 8.9 7.09612 9.6 8 9.6C8.90388 9.6 9.60689 8.9 9.60689 8C9.60689 7.1 8.90388 6.4 8 6.4ZM6.39311 16C6.19225 16 5.99138 15.9 5.99138 15.7L5.69009 13.6C5.18794 13.4 4.68578 13.1 4.28406 12.8L2.27545 13.6C2.07458 13.7 1.87372 13.6 1.77329 13.4L0.166399 10.6C-0.0344624 10.4 -0.0344624 10.2 0.166399 10.1L1.87372 8.8L1.77329 8L1.87372 7.2L0.166399 5.9C-0.0344624 5.8 -0.0344624 5.6 0.0659684 5.4L1.67286 2.6C1.77329 2.4 1.97415 2.4 2.17501 2.4L4.18363 3.2C4.58535 2.9 5.08751 2.6 5.58966 2.4L5.89095 0.3C5.99138 0.1 6.09182 0 6.39311 0H9.70732C9.90819 0 10.109 0.1 10.109 0.3L10.4103 2.4C10.9125 2.6 11.4146 2.9 11.8164 3.2L13.825 2.4C14.0258 2.3 14.2267 2.4 14.3271 2.6L15.934 5.4C16.0345 5.6 16.0345 5.8 15.8336 5.9L14.1263 7.2L14.2267 8L14.1263 8.8L15.8336 10.1C16.0345 10.2 16.0345 10.4 15.934 10.6L14.3271 13.4C14.2267 13.6 14.0258 13.6 13.825 13.6L11.8164 12.8C11.4146 13.1 10.9125 13.4 10.4103 13.6L10.109 15.7C10.109 15.9 9.90819 16 9.70732 16H6.39311ZM7.39742 1.6L7.09612 3.7C6.09182 3.9 5.18794 4.4 4.58535 5.1L2.57674 4.3L1.97415 5.3L3.68148 6.5C3.38018 7.4 3.38018 8.5 3.68148 9.4L1.97415 10.7L2.57674 11.7L4.58535 10.9C5.18794 11.6 6.09182 12.1 7.09612 12.3L7.39742 14.4H8.60259L8.90388 12.3C9.90819 12.1 10.7116 11.6 11.4146 10.9L13.4233 11.7L14.0258 10.7L12.3185 9.5C12.6198 8.6 12.6198 7.5 12.3185 6.6L14.0258 5.3L13.4233 4.3L11.4146 5.1C10.8121 4.4 9.90819 3.9 8.90388 3.7L8.60259 1.6H7.39742Z" fill="black"/>
</g>
<defs>
<clipPath id="clip0_1162_23886">
<rect width="16" height="16" fill="white"/>
</clipPath>
</defs>
</svg>
