<svg fill="none" height="16" viewBox="0 0 16 16" width="16" xmlns="http://www.w3.org/2000/svg"><path clip-rule="evenodd" d="m0 2.00006c0-1.104569.895431-1.99999896 2-1.99999896h10c1.1046 0 2 .89543096 2 1.99999896v3h-2v-3h-2v3h-.94271c-.37542 0-.73076.06667-1.05729.18773v-3.18773h-2v10.00004h1.85927c.09285 0 .18474.0188.2701.0554.25241.108.41608.3562.41608.6307v1.3139h-6.54545c-1.10457 0-2-.8955-2-2zm4 0h-2v10.00004h2z" fill="#b7a9d1" fill-rule="evenodd"/><path d="m10.5455 11.4994-2.2839-2.6913c-.16865-.19873-.2616-.45382-.2616-.71787 0-.60209.47336-1.09017 1.05729-1.09017h5.88541c.5839 0 1.0573.48808 1.0573 1.09017 0 .26405-.0929.51914-.2616.71787l-2.2839 2.6913v3.7494c0 .6179-.6841.9707-1.1636.5999l-1.4545-1.1248c-.1832-.1416-.2909-.3638-.2909-.5999z" fill="#7e5dbb"/></svg>