<svg fill="none" height="16" viewBox="0 0 16 16" width="16" xmlns="http://www.w3.org/2000/svg"><path d="m2.5 2.00006h7c.27614 0 .5.22386.5.5v.5h2v-.5c0-1.38071-1.1193-2.49999896-2.5-2.49999896h-7c-1.38071 0-2.5 1.11928896-2.5 2.49999896v7c0 1.38074 1.11929 2.50004 2.5 2.50004h.5v-2h-.5c-.27614 0-.5-.2239-.5-.50004v-7c0-.27614.22386-.5.5-.5z" fill="#f5c591"/><path clip-rule="evenodd" d="m6 4.00006c-1.10457 0-2 .89543-2 2v8.00004c0 1.1045.89543 2 2 2h8c1.1046 0 2-.8955 2-2v-8.00004c0-1.10457-.8954-2-2-2zm1 4c-.55228 0-1 .44772-1 1v4.00004c0 .5522.44772 1 1 1h6c.5523 0 1-.4478 1-1v-4.00004c0-.55228-.4477-1-1-1z" fill="#d27614" fill-rule="evenodd"/></svg>