<svg fill="none" height="16" viewBox="0 0 16 16" width="16" xmlns="http://www.w3.org/2000/svg"><path d="m15 3h-5c-.55219 0-1-.44781-1-1s.44781-1 1-1h5c.5531 0 1 .44781 1 1s-.4469 1-1 1zm0 4h-5c-.55219 0-1-.44687-1-1s.44781-1 1-1h5c.5531 0 1 .44687 1 1s-.4469 1-1 1zm-6 3c0-.55313.44781-1 1-1h5c.5531 0 1 .44687 1 1 0 .5531-.4469 1-1 1h-5c-.55219 0-1-.4469-1-1zm6 5h-5c-.55219 0-1-.4469-1-1s.44781-1 1-1h5c.5531 0 1 .4469 1 1s-.4469 1-1 1z" fill="#7e5dbb"/><path d="m6 3h-5c-.553125 0-1-.44781-1-1s.446875-1 1-1h5c.55313 0 1 .44781 1 1s-.44687 1-1 1zm0 4h-5c-.553125 0-1-.44687-1-1s.446875-1 1-1h5c.55313 0 1 .44687 1 1s-.44687 1-1 1zm-6 3c0-.55313.446875-1 1-1h5c.55313 0 1 .44687 1 1 0 .5531-.44687 1-1 1h-5c-.553125 0-1-.4469-1-1zm6 5h-5c-.553125 0-1-.4469-1-1s.446875-1 1-1h5c.55313 0 1 .4469 1 1s-.44687 1-1 1z" fill="#b7a9d1"/></svg>