<svg fill="none" height="16" viewBox="0 0 16 16" width="16" xmlns="http://www.w3.org/2000/svg"><path clip-rule="evenodd" d="m0 2.00006c0-1.104569.895431-1.99999896 2-1.99999896h10c1.1046 0 2 .89543096 2 1.99999896v3.30444c-.5905-.45975-1.2665-.81493-2-1.03776v-2.26668h-2v2.00304c-.70236.02182-1.3753.16055-2 .39738v-2.40042h-2v3.63683c-1.22956 1.13198-2 2.75469-2 4.55671v-8.19354h-2v10.00004h2v-1.8065c0 1.4349.48851 2.7562 1.30835 3.8065h-3.30835c-1.10457 0-2-.8955-2-2z" fill="#b1b4c3" fill-rule="evenodd"/><path d="m15.6868 14.3468-1.9636-1.9625c.4305-.6383.6686-1.3842.6686-2.1907 0-2.31612-1.8785-4.19354-4.1959-4.19354-2.31744 0-4.1959 1.87903-4.1959 4.19354 0 2.3145 1.87846 4.1936 4.1959 4.1936.7706 0 1.5533-.2388 2.1931-.6335l1.9636 1.9625c.1884.1911.4345.2839.6847.2839.2501 0 .4954-.0946.6846-.2835.3764-.3778.3764-.9907-.0351-1.3698zm-5.4909-1.8951c-1.24588 0-2.25934-1.0129-2.25934-2.2581 0-1.24515 1.01346-2.25806 2.25934-2.25806 1.2458 0 2.2593 1.01291 2.2593 2.25806 0 1.246-1.0127 2.2581-2.2593 2.2581z" fill="#697586"/></svg>