<svg fill="none" height="16" viewBox="0 0 16 16" width="16" xmlns="http://www.w3.org/2000/svg" xmlns:xlink="http://www.w3.org/1999/xlink"><clipPath id="a"><path d="m0 0h16v16h-16z"/></clipPath><g clip-path="url(#a)"><path d="m9.50065 8.00067-.02813 3.00933h1.77808c.2984 0 .5685.1768.6875.4504.1191.2735.065.5918-.1376.81l-3.25004 3.5c-.28419.3056-.81531.3056-1.09969 0l-3.25-3.5c-.20262-.2183-.25684-.5366-.13769-.81.11882-.2722.39069-.4504.68757-.4504h1.72187l.02813-3.00933z" fill="#80b7e5"/><g fill="#0070cc"><path d="m0 8.00006c0-.55229.447715-1 1-1 .55228 0 1 .44771 1 1 0 .55228-.44772 1-1 1-.552285 0-1-.44772-1-1z"/><path d="m3 8.00006c0-.55229.44772-1 1-1s1 .44771 1 1c0 .55228-.44772 1-1 1s-1-.44772-1-1z"/><path d="m14 8.00006c0-.55229.4477-1 1-1s1 .44771 1 1c0 .55228-.4477 1-1 1s-1-.44772-1-1z"/><path d="m11 8.00006c0-.55229.4477-1 1-1s1 .44771 1 1c0 .55228-.4477 1-1 1s-1-.44772-1-1z"/><path d="m6.50064 8.0007v-3.01063h-1.75c-.29834 0-.56843-.17675-.6875-.45031-.11906-.27356-.06493-.59187.13769-.81l3.25-3.499999c.28419-.3056563.81531-.3056563 1.09969 0l3.24998 3.499999c.2026.21825.2569.53656.1377.81-.1191.27344-.3907.45156-.6876.45156h-1.74996v3.00938z"/></g></g></svg>