<svg width="16" height="16" viewBox="0 0 16 16" fill="none" xmlns="http://www.w3.org/2000/svg">
<g clip-path="url(#clip0_3415_76)">
<path fill-rule="evenodd" clip-rule="evenodd" d="M12.4 5.50018C12.9523 5.50018 13.4 5.05247 13.4 4.50018C13.4 3.9479 12.9523 3.50018 12.4 3.50018L3.90002 3.50018C3.34774 3.50018 2.90002 3.9479 2.90002 4.50018C2.90002 5.05247 3.34774 5.50018 3.90002 5.50018L12.4 5.50018Z" fill="#80B7E5"/>
<path fill-rule="evenodd" clip-rule="evenodd" d="M12.4 2.50018C12.9523 2.50018 13.4 2.05247 13.4 1.50018C13.4 0.947899 12.9523 0.500184 12.4 0.500184L3.90002 0.500183C3.34774 0.500183 2.90002 0.947899 2.90002 1.50018C2.90002 2.05247 3.34774 2.50018 3.90002 2.50018L12.4 2.50018Z" fill="#80B7E5"/>
<path d="M8.09888 10.0001H11.1095V8.25011C11.1095 7.95177 11.2863 7.68168 11.5598 7.56261C11.8334 7.44355 12.1517 7.49768 12.3698 7.7003L15.8698 10.9503C16.1755 11.2345 16.1755 11.7656 15.8698 12.05L12.3698 15.3C12.1516 15.5026 11.8333 15.5568 11.5598 15.4377C11.2864 15.3185 11.1083 15.047 11.1083 14.7501V13.0001H8.09888V10.0001Z" fill="#80B7E5"/>
<path d="M8.09888 13.0001L5.08953 12.9721V14.7502C5.08953 15.0486 4.91278 15.3187 4.63922 15.4377C4.36565 15.5568 4.04734 15.5027 3.82922 15.3L0.329218 12.05C0.0235615 11.7658 0.0235615 11.2347 0.329218 10.9503L3.82922 7.70034C4.04747 7.49772 4.36578 7.4435 4.63922 7.56266C4.9114 7.68147 5.08953 7.95334 5.08953 8.25022V9.97209L8.09888 10.0001V13.0001Z" fill="#0070CC"/>
</g>
<defs>
<clipPath id="clip0_3415_76">
<rect width="16" height="16" fill="white"/>
</clipPath>
</defs>
</svg>
