<svg width="16" height="16" viewBox="0 0 16 16" fill="none" xmlns="http://www.w3.org/2000/svg">
<path d="M3.5 7L0.359696 3.41108C0.127813 3.14607 0 2.8059 0 2.45377C0 1.65087 0.650874 1 1.45377 1H9.54623C10.3491 1 11 1.65087 11 2.45377C11 2.8059 10.8722 3.14607 10.6403 3.41108L8.51988 5.83443C6.17911 6.65246 4.5 8.88014 4.5 11.5C4.5 11.5851 4.50177 11.6697 4.50528 11.754L3.9 11.3C3.64819 11.1111 3.5 10.8148 3.5 10.5V7Z" fill="#B1B4C3"/>
<path d="M16 11.7071C16 11.3166 15.6834 11 15.2929 11H12.7071C12.3166 11 12 11.3166 12 11.7071C12 11.8946 12.0745 12.0745 12.2071 12.2071L13.2929 13.2929C13.6834 13.6834 14.3166 13.6834 14.7071 13.2929L15.7929 12.2071C15.9255 12.0745 16 11.8946 16 11.7071Z" fill="#697586"/>
<path d="M10.5 14C9.11929 14 8 12.8807 8 11.5C8 10.1193 9.11929 9 10.5 9C11.8525 9 12.9541 10.074 12.9986 11.4156L13.0345 11.3797L14.7203 13.0654C14.9012 12.5779 15 12.0505 15 11.5C15 9.01472 12.9853 7 10.5 7C8.01472 7 6 9.01472 6 11.5C6 13.9853 8.01472 16 10.5 16C10.9364 16 11.3583 15.9379 11.7574 15.822C12.3735 15.6431 12.4639 14.8781 12.0102 14.4244L11.8767 14.2909C11.5954 14.0097 11.175 13.9405 10.7797 13.9845C10.6878 13.9948 10.5945 14 10.5 14Z" fill="#697586"/>
</svg>
