<svg width="16" height="16" viewBox="0 0 16 16" fill="none" xmlns="http://www.w3.org/2000/svg">
<path d="M15 7.00006H13.5074L13.0749 5.66533H10.9124L10.4841 7.00006H9L11.2134 1.00006H12.8375L15 7.00006ZM12.7611 4.62768L12.1081 2.61094C12.0601 2.46031 12.0261 2.2804 12.0064 2.07119H11.9724C11.9583 2.24692 11.923 2.42126 11.8664 2.5942L11.2049 4.62768H12.7611Z" fill="#B7A9D1"/>
<path d="M14.5001 15.0001H9.50012V14.2218L12.6819 10.1005H9.72956V9.00006H14.4915V9.75738L11.3789 13.9038H14.5001V15.0001Z" fill="#B7A9D1"/>
<path d="M7.81977 10.2719C8.22696 10.6454 8.25415 11.2788 7.8813 11.6866L5.15943 14.6894C4.78068 15.1038 4.0638 15.1038 3.68474 14.6894L0.962865 11.6866C0.58974 11.2788 0.61724 10.6457 1.0244 10.2719C1.2163 10.0959 1.45846 10.009 1.69971 10.009C2.46536 10.009 2.9491 10.0004 3.4491 10.0004L3.45002 2.001C3.39477 1.44787 3.84165 1.00006 4.39477 1.00006C4.9479 1.00006 5.39477 1.44787 5.39477 2.001L5.4491 10.0004C5.9491 10.0004 6.47428 10.0125 7.17977 9.99941C7.389 9.99552 7.60363 10.0741 7.81977 10.2719Z" fill="#7E5DBB"/>
</svg>
