<svg fill="none" height="16" viewBox="0 0 16 16" width="16" xmlns="http://www.w3.org/2000/svg" xmlns:xlink="http://www.w3.org/1999/xlink"><clipPath id="a"><path d="m0 0h16v16h-16z"/></clipPath><g clip-path="url(#a)"><path d="m6.5 2h4c.8281 0 1.5.67188 1.5 1.5v1.67393c-.4815-.11374-.9837-.17393-1.5-.17393-3.07358 0-5.6489 2.1333-6.32607 5h-2.67393c-.828125 0-1.5-.67188-1.5-1.5v-7c0-.828125.671875-1.5 1.5-1.5h3z" fill="#b1b4c3"/><path d="m8.49982 10h-2.24376c.61775-1.74779 2.28461-3 4.24394-3 .526 0 1.0308.09023 1.5.25606v1.24394c0 .30816-.093.59468-.2525.833-.0545-.0314-.1102-.06081-.1671-.08812-.327-.15696-.6934-.24488-1.0804-.24488-.81791 0-1.54408.39278-2.00018 1z" fill="#b1b4c3"/><g fill="#697586"><path d="m16 11.7071c0-.3905-.3166-.7071-.7071-.7071h-2.5858c-.3905 0-.7071.3166-.7071.7071 0 .1875.0745.3674.2071.5l1.0858 1.0858c.3905.3905 1.0237.3905 1.4142 0l1.0858-1.0858c.1326-.1326.2071-.3125.2071-.5z"/><path d="m10.5 14c-1.38071 0-2.5-1.1193-2.5-2.5s1.11929-2.5 2.5-2.5c1.3525 0 2.4541 1.074 2.4986 2.4156l.0359-.0359 1.6858 1.6857c.1809-.4875.2797-1.0149.2797-1.5654 0-2.48528-2.0147-4.5-4.5-4.5-2.48528 0-4.5 2.01472-4.5 4.5 0 2.4853 2.01472 4.5 4.5 4.5.4364 0 .8583-.0621 1.2574-.178.6161-.1789.7065-.9439.2528-1.3976l-.1335-.1335c-.2813-.2812-.7017-.3504-1.097-.3064-.0919.0103-.1852.0155-.2797.0155z"/></g></g></svg>