<svg width="16" height="16" viewBox="0 0 16 16" fill="none" xmlns="http://www.w3.org/2000/svg">
<path d="M15.2002 11.6071C15.2002 11.2165 14.8836 10.9 14.4931 10.9H11.9073C11.5168 10.9 11.2002 11.2165 11.2002 11.6071C11.2002 11.7946 11.2747 11.9745 11.4073 12.1071L12.4931 13.1929C12.8836 13.5834 13.5168 13.5834 13.9073 13.1929L14.9931 12.1071C15.1257 11.9745 15.2002 11.7946 15.2002 11.6071Z" fill="#7E5DBB"/>
<path d="M9.7002 13.9C8.31948 13.9 7.2002 12.7807 7.2002 11.4C7.2002 10.0193 8.31948 8.89996 9.7002 8.89996C11.0527 8.89996 12.1543 9.97393 12.1988 11.3156L12.2347 11.2796L13.9205 12.9653C14.1014 12.4778 14.2002 11.9504 14.2002 11.4C14.2002 8.91468 12.1855 6.89996 9.7002 6.89996C7.21491 6.89996 5.2002 8.91468 5.2002 11.4C5.2002 13.8852 7.21491 15.9 9.7002 15.9C10.1366 15.9 10.5585 15.8378 10.9576 15.722C11.5737 15.543 11.6641 14.7781 11.2104 14.3244L11.0769 14.1909C10.7956 13.9096 10.3752 13.8405 9.97985 13.8845C9.88804 13.8947 9.79473 13.9 9.7002 13.9Z" fill="#7E5DBB"/>
<path fill-rule="evenodd" clip-rule="evenodd" d="M1.16272 3.41375C0.789872 3.82156 0.81706 4.455 1.22425 4.82844C1.44039 5.0263 1.65501 5.10486 1.86425 5.10097C2.35093 5.09191 2.7518 5.09489 3.11779 5.0976C3.28234 5.09883 3.43985 5.09999 3.59492 5.09999L3.62209 9.10049C3.40782 9.10062 3.19556 9.10228 2.96177 9.1041C2.66033 9.10646 2.32311 9.1091 1.89966 9.1091C1.65841 9.1091 1.41625 9.196 1.22435 9.37203C0.817191 9.74578 0.789691 10.3789 1.16282 10.7867L3.88469 13.7895C4.07739 14.0002 4.3574 14.1038 4.6359 14.1002L4.64925 14.1003C4.71534 14.1003 4.77992 14.0939 4.8423 14.0817C4.43232 13.3119 4.19998 12.4331 4.19998 11.5001C4.19998 10.0701 4.74566 8.76766 5.64014 7.78951L5.62188 5.09999C5.83609 5.09986 6.0483 5.0982 6.28201 5.09637C6.58342 5.09401 6.9209 5.09138 7.34431 5.09138C7.58556 5.09138 7.82772 5.00447 8.01962 4.82844C8.42678 4.45469 8.45428 3.82156 8.08115 3.41375L5.35928 0.41094C5.16658 0.200286 4.88657 0.0967211 4.60807 0.100246L4.59472 0.100159C4.27269 0.100159 3.98668 0.251947 3.8148 0.487934L1.16272 3.41375Z" fill="#B7A9D1"/>
</svg>
