<svg width="16" height="16" viewBox="0 0 16 16" fill="none" xmlns="http://www.w3.org/2000/svg">
<path d="M15.144 15.0001H13.6515L13.219 13.6653H11.0564L10.6281 15.0001H9.14404L11.3575 9.00006H12.9815L15.144 15.0001ZM12.9052 12.6277L12.2522 10.6109C12.2041 10.4603 12.1702 10.2804 12.1504 10.0712H12.1165C12.1023 10.2469 12.067 10.4213 12.0105 10.5942L11.349 12.6277H12.9052Z" fill="#B7A9D1"/>
<path d="M14.6442 7.00006H9.64417V6.22182L12.826 2.10048H9.8736V1.00006H14.6355V1.75738L11.523 5.90383H14.6442V7.00006Z" fill="#B7A9D1"/>
<path d="M1.0243 5.72834C0.617109 5.3549 0.589921 4.72147 0.962765 4.31365L3.68464 1.31084C4.06339 0.896467 4.78026 0.896467 5.15933 1.31084L7.8812 4.31365C8.25433 4.72147 8.22683 5.35459 7.81967 5.72834C7.62777 5.90437 7.38561 5.99128 7.14436 5.99128C6.37871 5.99128 5.89497 5.9999 5.39497 5.9999L5.39405 13.9993C5.4493 14.5524 5.00242 15.0002 4.4493 15.0002C3.89617 15.0002 3.4493 14.5524 3.4493 13.9993L3.39497 5.9999C2.89497 5.9999 2.36979 5.98775 1.6643 6.00087C1.45506 6.00476 1.24044 5.9262 1.0243 5.72834Z" fill="#7E5DBB"/>
</svg>
