<svg width="16" height="16" viewBox="0 0 16 16" fill="none" xmlns="http://www.w3.org/2000/svg">
<path d="M15.5001 11.2067C15.5001 10.8162 15.1835 10.4996 14.793 10.4996H12.2072C11.8167 10.4996 11.5001 10.8162 11.5001 11.2067C11.5001 11.3942 11.5746 11.5741 11.7072 11.7067L12.793 12.7925C13.1835 13.183 13.8167 13.183 14.2072 12.7925L15.293 11.7067C15.4256 11.5741 15.5001 11.3942 15.5001 11.2067Z" fill="#7E5DBB"/>
<path d="M10.0001 13.4996C8.61941 13.4996 7.50012 12.3803 7.50012 10.9996C7.50012 9.61886 8.61941 8.49957 10.0001 8.49957C11.3526 8.49957 12.4542 9.57354 12.4987 10.9152L12.5347 10.8792L14.2204 12.565C14.4013 12.0774 14.5001 11.55 14.5001 10.9996C14.5001 8.51429 12.4854 6.49957 10.0001 6.49957C7.51484 6.49957 5.50012 8.51429 5.50012 10.9996C5.50012 13.4849 7.51484 15.4996 10.0001 15.4996C10.4365 15.4996 10.8584 15.4374 11.2575 15.3216C11.8736 15.1426 11.964 14.3777 11.5103 13.924L11.3768 13.7905C11.0956 13.5092 10.6751 13.4401 10.2798 13.4841C10.188 13.4943 10.0947 13.4996 10.0001 13.4996Z" fill="#7E5DBB"/>
<path fill-rule="evenodd" clip-rule="evenodd" d="M4.36363 5.64341H5.64298L3.78937 0.500549H2.39735L0.500122 5.64341H1.77221L2.13929 4.49935H3.9929L4.36363 5.64341ZM3.16423 1.8813L3.72395 3.60993H2.39008L2.95706 1.86696C3.00552 1.71872 3.03581 1.56929 3.04793 1.41866H3.077C3.09396 1.59798 3.12304 1.75219 3.16423 1.8813ZM11.2145 5.63507C10.8238 5.54702 10.4174 5.50055 10.0001 5.50055C9.56986 5.50055 9.15113 5.54996 8.7493 5.64341H6.9288V4.97634L9.65607 1.44377H7.12546V0.500549H11.2071V1.14968L8.53919 4.70378H11.2145V5.63507ZM4.70715 12.5005H0.928798V11.8335L3.65607 8.30091H1.12546V7.35769H5.20709V8.00683L2.53919 11.5609H4.52832C4.56093 11.8832 4.62135 12.1972 4.70715 12.5005Z" fill="#B7A9D1"/>
</svg>
