<svg fill="none" height="16" viewBox="0 0 16 16" width="16" xmlns="http://www.w3.org/2000/svg" xmlns:xlink="http://www.w3.org/1999/xlink"><clipPath id="a"><path d="m0 0h16v16h-16z"/></clipPath><g clip-path="url(#a)"><g fill="#80b7e5"><path d="m-.00006104 8.00015c0-.55228.44771504-1 1.00000004-1 .552281 0 1.000001.44772 1.000001 1 0 .55229-.44772 1-1.000001 1-.552285 0-1.00000004-.44771-1.00000004-1z"/><path d="m2.99994 8.00015c0-.55228.44771-1 1-1 .55228 0 1 .44772 1 1 0 .55229-.44772 1-1 1-.55229 0-1-.44771-1-1z"/><path d="m11.9999 7.00015c-.5522 0-1 .44772-1 1 0 .55229.4478 1 1 1 .5523 0 1-.44771 1-1 0-.55228-.4477-1-1-1z"/><path d="m13.9999 8.00015c0-.55228.4478-1 1-1 .5523 0 1 .44772 1 1 0 .55229-.4477 1-1 1-.5522 0-1-.44771-1-1z"/><path d="m6.52858 12.9903-.02813 3.0094h3l.02813-3.0094h1.72192c.2968 0 .5687-.1781.6875-.4503.1192-.2735.065-.5918-.1377-.81l-3.24997-3.50003c-.28438-.30565-.8155-.30565-1.09969 0l-3.25 3.50003c-.20262.2181-.25675.5364-.13769.81.11906.2735.38916.4503.6875.4503z"/></g><path d="m9.501.00054932v3.01062068h1.75c.2983 0 .5684.17675.6875.45032.1191.27356.0649.59187-.1377.81l-3.24999 3.5c-.28419.30565-.81531.30565-1.09969 0l-3.25-3.5c-.20262-.21825-.25684-.53657-.13768-.81.11915-.27344.39068-.45157.68756-.45157h1.75v-3.00937068z" fill="#0070cc"/></g></svg>