<svg fill="none" height="16" viewBox="0 0 16 16" width="16" xmlns="http://www.w3.org/2000/svg"><path d="m13.7063 12.2938c.3906.3906.3906 1.0234 0 1.4141-.1938.1953-.4501.2921-.7063.2921s-.5119-.0976-.7069-.2929l-4.2931-4.29143-4.29281 4.29063c-.19531.1969-.45125.2937-.70719.2937s-.51156-.0968-.70703-.2937c-.39063-.3906-.39063-1.0234 0-1.4141l4.29375-4.29371-4.29375-4.29219c-.39063-.39063-.39063-1.02344 0-1.41406.39062-.39063 1.02344-.39063 1.41406 0l4.29297 4.29531 4.2937-4.29375c.3907-.39063 1.0235-.39063 1.4141 0 .3906.39062.3906 1.02344 0 1.41406l-4.29374 4.29375z" fill="#d27614"/></svg>
