<svg fill="none" height="16" viewBox="0 0 16 16" width="16" xmlns="http://www.w3.org/2000/svg" xmlns:xlink="http://www.w3.org/1999/xlink"><clipPath id="a"><path d="m0 0h16v16h-16z"/></clipPath><g clip-path="url(#a)"><path d="m11.8344.585952c.7813-.781188 2.05-.781188 2.8313 0l.7312.732188c.7813.78094.7813 2.04844 0 2.82969l-1.7625 1.7625-3.5625-3.56188zm1.0938 6.030628-7.96567 7.96252c-.20937.2094-.46875.3625-.75625.4469l-3.250312.9281c-.261875.075-.54375 0-.73625-.2188-.1925004-.1656-.2656255-.4468-.190938-.7093l.929063-3.25c.081567-.2875.234687-.5469.444997-.7563l7.96282-7.96437z" fill="#d27614"/></g></svg>