<svg fill="none" height="16" viewBox="0 0 16 16" width="16" xmlns="http://www.w3.org/2000/svg"><path clip-rule="evenodd" d="m11.9125 1.41256 2.6219 2.62188c.2687.26875.4656.74375.4656 1.0875v7.87816c0 1.1046-.8953 2-2 2h-10c-1.10469 0-2-.8954-2-2v-10.00004c0-1.10469.89531-2 2-2h7.8781c.3438 0 .8188.1975 1.0344.4125zm-5.9125 9.58754c0 1.1043.89563 2 2 2s2-.8957 2-2c0-1.10441-.89563-2.00004-2-2.00004s-2 .89563-2 2.00004zm4.5-4.00004c.275 0 .5-.225.5-.5v-3c0-.275-.225-.5-.5-.5h-7c-.27625 0-.5.225-.5.5v3c0 .275.22375.5.5.5z" fill="#d27614" fill-rule="evenodd"/></svg>