<svg fill="none" height="16" viewBox="0 0 16 16" width="16" xmlns="http://www.w3.org/2000/svg" xmlns:xlink="http://www.w3.org/1999/xlink"><clipPath id="a"><path d="m0 0h16v16h-16z"/></clipPath><g clip-path="url(#a)"><path d="m15.2219.00006104h-4.25c-.4044 0-.7697.24365596-.9238.61718796-.15526.374062-.06932.803751.2168 1.089691l.9394.93937-2.43936 2.43969c-.39063.39062-.39063 1.02375 0 1.41437l.70687.70688c.39063.39062 1.02379.39062 1.41439 0l2.4394-2.43969.9393.93938c.2862.28565.7147.37 1.0897.21678.4017-.15491.6454-.52053.6454-.95178v-4.250004c0-.38625-.3344-.72187496-.7781-.72187496z" fill="#cc0f1f"/><path d="m6.5 8.7938c-.39063-.39062-1.02375-.39062-1.41438-.00006l-2.43937 2.43966-.93938-.9393c-.1914-.1915-.44718-.2928-.707183-.2928-.128906 0-.258719.0247-.382812.076-.374063.1548-.61718781.5193-.61718781.9237v4.2219c.00035313.4428.33624981.7772.75031281.7772h4.25c.40437 0 .76969-.2437.92375-.6172.15528-.3741.06934-.8038-.21681-1.0897l-.93938-.9394 2.43938-2.4397c.39062-.3903.39062-1.02342.00006-1.41405z" fill="#e8939a"/></g></svg>