<svg width="48" height="48" viewBox="0 0 48 48" fill="none" xmlns="http://www.w3.org/2000/svg">
<path opacity="0.3" d="M6.00244 14C6.00244 9.58172 9.58416 6 14.0024 6H34.0024C38.4207 6 42.0024 9.58172 42.0024 14V24H38.0024V14C38.0024 11.7909 36.2116 10 34.0024 10H14.0024C11.7933 10 10.0024 11.7909 10.0024 14V34C10.0024 36.2091 11.7933 38 14.0024 38H24.0024V42H14.0024C9.58416 42 6.00244 38.4183 6.00244 34V14Z" fill="black"/>
<path d="M29.7447 44.4833L27.0114 23.3801C26.8972 22.4986 27.9038 21.9174 28.6102 22.4571L45.5194 35.3758C46.2165 35.9084 45.9388 37.0165 45.073 37.1575L36.8083 38.5029L31.5109 44.9875C30.9559 45.6669 29.8574 45.3534 29.7447 44.4833Z" fill="black"/>
</svg>
