<svg width="72" height="72" viewBox="0 0 72 72" fill="none" xmlns="http://www.w3.org/2000/svg">
<g clip-path="url(#clip0_1178_24893)">
<path d="M39.9976 38C39.9976 43.5228 35.5204 48 29.9976 48C24.4747 48 19.9976 43.5228 19.9976 38C19.9976 32.4771 24.4747 28 29.9976 28C35.5204 28 39.9976 32.4771 39.9976 38Z" fill="black"/>
<path fill-rule="evenodd" clip-rule="evenodd" d="M43.9976 56C43.9976 47.1634 51.161 40 59.9976 40V20C59.9976 17 56.9976 14 53.9976 14H44.9976L38.9976 8H20.9976L14.9976 14H5.99756C2.99756 14 -0.00244141 17 -0.00244141 20V57C-0.00244141 60 2.99756 63 5.99756 63H45.606C44.5757 60.8856 43.9976 58.5103 43.9976 56ZM29.9976 54C38.8341 54 45.9976 46.8366 45.9976 38C45.9976 29.1634 38.8341 22 29.9976 22C21.161 22 13.9976 29.1634 13.9976 38C13.9976 46.8366 21.161 54 29.9976 54Z" fill="black"/>
<path fill-rule="evenodd" clip-rule="evenodd" d="M47.9976 56C47.9976 62.71 53.3046 68 59.9976 68C66.6905 68 71.9976 62.71 71.9976 56C71.9976 49.29 66.6905 44 59.9976 44C53.3046 44 47.9976 49.29 47.9976 56ZM61.9976 54H66.9976V58H61.9976V63H57.9976V58H52.9976V54H57.9976V49H61.9976V54Z" fill="black"/>
</g>
<defs>
<clipPath id="clip0_1178_24893">
<rect width="72" height="72" fill="white"/>
</clipPath>
</defs>
</svg>
