<svg width="62" height="62" viewBox="0 0 62 62" fill="none" xmlns="http://www.w3.org/2000/svg">
<path fill-rule="evenodd" clip-rule="evenodd" d="M30.9976 60C14.9509 60 1.99756 47.0467 1.99756 31C1.99756 14.9533 14.9509 2 30.9976 2C47.0442 2 59.9976 14.9533 59.9976 31C59.9976 47.0467 47.0442 60 30.9976 60ZM30.9976 6C17.0776 6 5.99756 17.08 5.99756 31C5.99756 44.92 17.0776 56 30.9976 56C44.9176 56 55.9976 44.92 55.9976 31C55.9976 17.08 44.9176 6 30.9976 6ZM51.2976 34.3833L48.8809 36.8L45.4976 33.4167L42.1142 36.8L39.6976 34.3833L43.0809 31L39.6976 27.6167L42.1142 25.2L45.4976 28.5833L48.8809 25.2L51.2976 27.6167L47.9142 31L51.2976 34.3833ZM42.9976 43.5C42.9976 44.5633 42.0609 45.5 40.9976 45.5H20.9976C19.9342 45.5 18.9976 44.5633 18.9976 43.5C18.9976 42.4367 19.9342 41.5 20.9976 41.5H40.9976C42.0609 41.5 42.9976 42.4367 42.9976 43.5ZM19.8809 36.8L16.4976 33.4167L13.1142 36.8L10.6976 34.3833L14.0809 31L10.6976 27.6167L13.1142 25.2L16.4976 28.5833L19.8809 25.2L22.2976 27.6167L18.9142 31L22.2976 34.3833L19.8809 36.8Z" fill="black"/>
</svg>
