<svg width="14" height="16" viewBox="0 0 14 16" fill="none" xmlns="http://www.w3.org/2000/svg">
<path d="M6.99951 2C6.60442 2 6.28523 2.33516 6.28523 2.75V3.2C4.65579 3.54688 3.42813 5.06094 3.42813 6.875V7.31563C3.42813 8.41719 3.04197 9.48125 2.34555 10.3062L2.18037 10.5008C1.99288 10.7211 1.94823 11.0375 2.06207 11.307C2.17591 11.5766 2.4326 11.75 2.71385 11.75H11.2852C11.5664 11.75 11.8209 11.5766 11.9369 11.307C12.053 11.0375 12.0061 10.7211 11.8186 10.5008L11.6535 10.3062C10.957 9.48125 10.5709 8.41953 10.5709 7.31563V6.875C10.5709 5.06094 9.34323 3.54688 7.71378 3.2V2.75C7.71378 2.33516 7.39459 2 6.99951 2ZM8.01065 13.5617C8.27851 13.2805 8.42806 12.8984 8.42806 12.5H6.99951H5.57095C5.57095 12.8984 5.72051 13.2805 5.98836 13.5617C6.25621 13.843 6.62005 14 6.99951 14C7.37897 14 7.7428 13.843 8.01065 13.5617Z" fill="white"/>
</svg>
