<svg width="24" height="24" viewBox="0 0 24 24" fill="none" xmlns="http://www.w3.org/2000/svg">
<path d="M11.9976 18.48C9.74756 18.48 7.76756 17.31 6.59756 15.6C6.59756 13.8 10.1976 12.81 11.9976 12.81C13.7976 12.81 17.3976 13.8 17.3976 15.6C16.2276 17.31 14.2476 18.48 11.9976 18.48ZM11.9976 5.7C13.5276 5.7 14.6976 6.87 14.6976 8.4C14.6976 9.93 13.5276 11.1 11.9976 11.1C10.4676 11.1 9.29756 9.93 9.29756 8.4C9.29756 6.87 10.4676 5.7 11.9976 5.7ZM11.9976 3C7.04756 3 2.99756 7.05 2.99756 12C2.99756 16.95 7.04756 21 11.9976 21C16.9476 21 20.9976 16.95 20.9976 12C20.9976 7.05 16.9476 3 11.9976 3Z" fill="black"/>
</svg>
