<svg width="24" height="24" viewBox="0 0 24 24" fill="none" xmlns="http://www.w3.org/2000/svg">
<path d="M11.995 8C14.2621 8 16.1061 9.79 16.1061 12C16.1061 14.21 14.2621 16 11.995 16C9.72781 16 7.88385 14.21 7.88385 12C7.88385 9.79 9.72781 8 11.995 8ZM11.995 10C10.8563 10 9.93941 10.9 9.93941 12C9.93941 13.1 10.8563 14 11.995 14C13.1336 14 14.0505 13.1 14.0505 12C14.0505 10.9 13.1336 10 11.995 10ZM9.93941 22C9.67742 22 9.46582 21.82 9.42552 21.58L9.04262 18.93C8.39774 18.68 7.84355 18.34 7.30951 17.94L4.75014 18.95C4.52846 19.03 4.24633 18.95 4.12541 18.73L2.06986 15.27C1.93887 15.05 1.99933 14.78 2.19078 14.63L4.35717 12.97L4.28663 12L4.35717 11L2.20085 9.37C1.99933 9.22 1.93887 8.95 2.06986 8.73L4.12541 5.27C4.24633 5.05 4.52846 4.96 4.75014 5.05L7.30951 6.05C7.84355 5.66 8.39774 5.32 9.0527 5.07L9.4356 2.42C9.4759 2.18 9.6875 2 9.94948 2H14.0606C14.3125 2 14.5342 2.18 14.5745 2.42L14.9574 5.07C15.6023 5.32 16.1565 5.66 16.6905 6.05L19.2499 5.05C19.4715 4.96 19.7537 5.05 19.8746 5.27L21.9301 8.73C22.0611 8.95 22.0007 9.22 21.8092 9.37L19.6428 11L19.7134 12L19.6428 13L21.8092 14.63C22.0007 14.78 22.0611 15.05 21.9301 15.27L19.8746 18.73C19.7537 18.95 19.4715 19.04 19.2499 18.95L16.6905 17.95C16.1565 18.34 15.6023 18.68 14.9574 18.93L14.5745 21.58C14.5342 21.82 14.3125 22 14.0606 22H9.93941ZM11.2292 4L10.8463 6.61C9.61697 6.86 8.52873 7.5 7.73271 8.39L5.25395 7.35L4.48816 8.65L6.65455 10.2C6.24143 11.37 6.24143 12.64 6.65455 13.8L4.47808 15.36L5.24388 16.66L7.74279 15.62C8.52873 16.5 9.61697 17.14 10.8362 17.38L11.2191 20H12.7809L13.1638 17.39C14.383 17.14 15.4612 16.5 16.2572 15.62L18.7561 16.66L19.5219 15.36L17.3454 13.81C17.7586 12.64 17.7586 11.37 17.3454 10.2L19.5118 8.65L18.746 7.35L16.2673 8.39C15.4713 7.5 14.383 6.86 13.1537 6.62L12.7708 4H11.2292Z" fill="black"/>
</svg>
