<svg id="Layer_4" data-name="Layer 4" xmlns="http://www.w3.org/2000/svg" viewBox="0 0 32 32"><defs><style>.cls-1{opacity:0.35;}.Red{fill:#d11c1c;}.Black{fill:#727272;}</style></defs><g class="cls-1"><path class="Red" d="M19.09,22l-1.4-2.05-3.92,1.4.2,2.48-3.58,1.28L10,11.55,14.34,10l8.31,10.68Zm-3-4.48-1.23-1.79c-.28-.4-.63-.91-1.05-1.55s-.72-1.09-.88-1.37c0,.29.12.79.2,1.48s.22,2.08.39,4.15Z"/></g><path class="Black" d="M26,16.43l2-.85V28a2,2,0,0,1-2,2H6a2,2,0,0,1-2-2V25.86L6,25v3H26Zm2-7.6v1.31L26,11V10H22a2,2,0,0,1-2-2V4H6V19.57l-2,.85V4A2,2,0,0,1,6,2H21.17a2,2,0,0,1,1.42.59l4.82,4.82A2,2,0,0,1,28,8.83ZM25.17,8,22,4.83V8Z"/><path class="Red" d="M2,25a1,1,0,0,1-.39-1.92l28-12a1,1,0,1,1,.78,1.84l-28,12A1,1,0,0,1,2,25Z"/></svg>