<svg id="Layer_4" data-name="Layer 4" xmlns="http://www.w3.org/2000/svg" viewBox="0 0 32 32"><defs><style>.Black{fill:#727272;}.cls-1{opacity:0.35;}.Red{fill:#d11c1c;}</style></defs><path class="Black" d="M27.41,7.41,22.59,2.59A2,2,0,0,0,21.17,2H6A2,2,0,0,0,4,4V28a2,2,0,0,0,2,2H26a2,2,0,0,0,2-2V8.83A2,2,0,0,0,27.41,7.41ZM22,4.83,25.17,8H22ZM26,28H6V4H20V8a2,2,0,0,0,2,2h4Z"/><g class="cls-1"><path class="Red" d="M19.09,22l-1.4-2.05-3.92,1.4.2,2.48-3.58,1.28L10,11.55,14.34,10l8.31,10.68Zm-3-4.48-1.23-1.79c-.28-.4-.63-.91-1.05-1.55s-.72-1.09-.88-1.37c0,.29.12.79.2,1.48s.22,2.08.39,4.15Z"/></g></svg>