<svg id="Layer_4" data-name="Layer 4" xmlns="http://www.w3.org/2000/svg" viewBox="0 0 32 32"><defs><style>.Black{fill:#727272;}.Blue{fill:#1177d7;}</style></defs><polygon class="Black" points="24 6 24 28 26 28 26 6 28 6 25 2 22 6 24 6"/><polygon class="Black" points="18 6 18 28 20 28 20 6 22 6 19 2 16 6 18 6"/><polygon class="Black" points="12 6 12 14 14 14 14 6 16 6 13 2 10 6 12 6"/><polygon class="Black" points="6 6 6 14 8 14 8 6 10 6 7 2 4 6 6 6"/><path class="Blue" d="M16,18.84l-2.84.9v4.52l2.84.9V28L4,23.62V20.4L16,16Zm-5,1.53-4.37,1.4c-.34.11-.61.18-.8.23.69.18,2.42.72,5.17,1.6Z"/></svg>