<svg id="Layer_4" data-name="Layer 4" xmlns="http://www.w3.org/2000/svg" viewBox="0 0 32 32"><defs><style>.Black{fill:#727272;}.Blue{fill:#1177d7;}</style></defs><polygon class="Black" points="8 26 8 4 6 4 6 26 4 26 7 30 10 26 8 26"/><polygon class="Black" points="14 26 14 4 12 4 12 26 10 26 13 30 16 26 14 26"/><polygon class="Black" points="20 26 20 18 18 18 18 26 16 26 19 30 22 26 20 26"/><polygon class="Black" points="26 26 26 18 24 18 24 26 22 26 25 30 28 26 26 26"/><path class="Blue" d="M16,13.16l2.84-.9V7.74L16,6.84V4L28,8.38V11.6L16,16Zm5-1.53,4.37-1.4c.34-.11.61-.18.8-.23-.69-.18-2.42-.72-5.17-1.6Z"/></svg>