<svg id="Layer_4" data-name="Layer 4" xmlns="http://www.w3.org/2000/svg" viewBox="0 0 32 32"><defs><style>.Black{fill:#727272;}.Blue{fill:#1177d7;}</style></defs><polygon class="Black" points="8 26 8 4 6 4 6 26 4 26 7 30 10 26 8 26"/><polygon class="Black" points="14 26 14 4 12 4 12 26 10 26 13 30 16 26 14 26"/><polygon class="Black" points="20 26 20 16 18 16 18 26 16 26 19 30 22 26 20 26"/><polygon class="Black" points="26 26 26 16 24 16 24 26 22 26 25 30 28 26 26 26"/><path class="Blue" d="M25.16,14l-.9-2.84H19.74L18.84,14H16L20.38,2H23.6L28,14ZM23.63,9c-.83-2.58-1.3-4-1.4-4.37s-.18-.61-.23-.8c-.18.69-.72,2.42-1.6,5.17Z"/></svg>