<svg id="Layer_4" data-name="Layer 4" xmlns="http://www.w3.org/2000/svg" viewBox="0 0 32 32"><defs><style>.Black{fill:#727272;}.Blue{fill:#1177d7;}</style></defs><polygon class="Black" points="26 24 4 24 4 26 26 26 26 28 30 25 26 22 26 24"/><polygon class="Black" points="26 18 4 18 4 20 26 20 26 22 30 19 26 16 26 18"/><polygon class="Black" points="26 12 18 12 18 14 26 14 26 16 30 13 26 10 26 12"/><polygon class="Black" points="26 6 18 6 18 8 26 8 26 10 30 7 26 4 26 6"/><path class="Blue" d="M13.16,16l-.9-2.84H7.74L6.84,16H4L8.38,4H11.6L16,16Zm-1.53-5c-.83-2.58-1.3-4-1.4-4.37s-.18-.61-.23-.8c-.18.69-.72,2.42-1.6,5.17Z"/></svg>