<svg xmlns="http://www.w3.org/2000/svg" width="32" height="32" fill="none"><path fill="#FFB115" d="M21 14a3 3 0 1 0 0-6 3 3 0 0 0 0 6Z"/><path fill="#1177D7" d="m18.096 25 .46 1.588h-1.654L17.357 25c.128-.454.25-.91.365-1.369.035.152.072.303.113.453l.144.51c.04.134.08.27.117.406Z"/><path fill="#1177D7" fill-rule="evenodd" d="M13.293 20.293A1 1 0 0 1 14 20h17a1 1 0 0 1 1 1v10a1 1 0 0 1-1 1H14a1 1 0 0 1-1-1V21a1 1 0 0 1 .293-.707Zm5.585 7.51.46 1.626h1.45l-2.249-6.857h-1.646l-2.24 6.857h1.45l.46-1.626h2.315Zm2.713-5.204v6.83h3.921v-1.196h-2.575v-5.634h-1.346Zm7.033 6.83h-1.346v-5.624h-1.724V22.6h4.794v1.205h-1.724v5.624Z" clip-rule="evenodd"/><path fill="#039C23" d="m14 18-4-4-4 4v6h5v-3a3 3 0 0 1 3-3Z"/><path fill="#727272" d="M3 4h26c.5 0 1 .5 1 1v13h-2V6H4v20h7v2H3c-.5 0-1-.5-1-1V5c0-.5.5-1 1-1Z"/></svg>