<svg version="1.1" id="Layer_1" xmlns="http://www.w3.org/2000/svg" xmlns:xlink="http://www.w3.org/1999/xlink" x="0px" y="0px"
     viewBox="0 0 32 32" style="enable-background:new 0 0 32 32;" xml:space="preserve">
<style type="text/css">
	.Black{fill:#737374;}
	.Yellow{fill:#FCB01B;}
	.Green{fill:#129C49;}
	.Blue{fill:#387CB7;}
	.Red{fill:#D02127;}
	.White{fill:#FFFFFF;}
	.st0{opacity:0.5;}
	.st1{opacity:0.75;}
	.st2{opacity:0.25;}
	.st3{display:none;fill:#737374;}
</style>
<path class="Blue" d="M21,26h-4c-0.5,0-1,0.4-1,1v4c0,0.6,0.5,1,1,1h4c0.5,0,1-0.4,1-1v-4C22,26.4,21.5,26,21,26z M20,30h-2v-2h2V30
	z"/>
<path class="Blue" d="M11,18H7c-0.5,0-1-0.4-1-1v-4c0-0.6,0.5-1,1-1h4c0.5,0,1,0.4,1,1v4C12,17.6,11.5,18,11,18z M10,14H8v2h2V14z
	 M31,18h-4c-0.5,0-1-0.4-1-1v-4c0-0.6,0.5-1,1-1h4c0.5,0,1,0.4,1,1v4C32,17.6,31.5,18,31,18z M30,14h-2v2h2V14z"/>
<path class="Blue" d="M21,6h-4c-0.5,0-1-0.4-1-1V1c0-0.6,0.5-1,1-1h4c0.5,0,1,0.4,1,1v4C22,5.6,21.5,6,21,6z M20,2h-2v2h2V2z"/>
<polygon class="Black" points="3,31 0,28 2,28 2,2 4,2 4,28 6,28 "/>
<g class="st0">
	<path class="Black" d="M26,26l-3,3l3,3v-2h4V18h-2v10h-2V26z M10,28h2v-2l3,3l-3,3v-2H8V18h2V28z M29,11l-3-3h2V4h-6V2h8v6h2L29,11
		z M19,25l-3-3h2V6h2v16h2L19,25z M10,8h2l-3,3L6,8h2V2h8v2h-6V8z"/>
</g>
</svg>
