<svg version="1.1" id="Layer_1" xmlns="http://www.w3.org/2000/svg" xmlns:xlink="http://www.w3.org/1999/xlink" x="0px" y="0px"
     viewBox="0 0 32 32" style="enable-background:new 0 0 32 32;" xml:space="preserve">
<style type="text/css">
	.Black{fill:#737374;}
	.Yellow{fill:#FCB01B;}
	.Green{fill:#129C49;}
	.Blue{fill:#387CB7;}
	.Red{fill:#D02127;}
	.White{fill:#FFFFFF;}
	.st0{opacity:0.5;}
	.st1{opacity:0.75;}
	.st2{opacity:0.25;}
	.st3{display:none;fill:#737374;}
</style>
<path class="Blue" d="M31,16h-4c-0.6,0-1,0.4-1,1v4c0,0.6,0.4,1,1,1h4c0.6,0,1-0.4,1-1v-4C32,16.4,31.6,16,31,16z M30,20h-2v-2h2V20
	z"/>
<path class="Blue" d="M17,6h-4c-0.6,0-1,0.4-1,1v4c0,0.6,0.4,1,1,1h4c0.6,0,1-0.4,1-1V7C18,6.4,17.6,6,17,6z M16,10h-2V8h2V10z
	 M17,26h-4c-0.6,0-1,0.4-1,1v4c0,0.6,0.4,1,1,1h4c0.6,0,1-0.4,1-1v-4C18,26.4,17.6,26,17,26z M16,30h-2v-2h2V30z"/>
<path class="Blue" d="M5,16H1c-0.6,0-1,0.4-1,1v4c0,0.6,0.4,1,1,1h4c0.6,0,1-0.4,1-1v-4C6,16.4,5.6,16,5,16z M4,20H2v-2h2V20z"/>
<polygon class="Black" points="31,3 28,0 28,2 2,2 2,4 28,4 28,6 "/>
<g class="st0">
	<path class="Black" d="M28,10H18V8h12v4h2l-3,3l-3-3h2V10z M25,19l-3-3v2H6v2h16v2L25,19z M4,10h4v2l3-3L8,6v2H2v8h2V10z M8,28H4
		v-6H2v8h6v2l3-3l-3-3V28z M26,26h2v2H18v2h12v-4h2l-3-3L26,26z"/>
</g>
</svg>
