<svg version="1.1" id="Layer_1" xmlns="http://www.w3.org/2000/svg" xmlns:xlink="http://www.w3.org/1999/xlink" x="0px" y="0px"
     viewBox="0 0 32 32" style="enable-background:new 0 0 32 32;" xml:space="preserve">
<style type="text/css">
	.Black{fill:#737374;}
	.Yellow{fill:#FCB01B;}
	.Green{fill:#129C49;}
	.Blue{fill:#387CB7;}
	.Red{fill:#D02127;}
	.White{fill:#FFFFFF;}
	.st0{opacity:0.5;}
	.st1{opacity:0.75;}
	.st2{opacity:0.25;}
	.st3{display:none;fill:#737374;}
</style>
<polygon class="Yellow" points="28,16 18,26 24,26 22,32 32,22 26,22 "/>
<path class="Blue" d="M7,2H3C2.5,2,2,2.5,2,3v4c0,0.5,0.5,1,1,1h4c0.5,0,1-0.5,1-1V3C8,2.5,7.5,2,7,2z M6,6H4V4h2V6z M15,2h-4
	c-0.5,0-1,0.5-1,1v4c0,0.5,0.5,1,1,1h4c0.5,0,1-0.5,1-1V3C16,2.5,15.5,2,15,2z M14,6h-2V4h2V6z M15,10h-4c-0.5,0-1,0.5-1,1v4
	c0,0.5,0.5,1,1,1h4c0.5,0,1-0.5,1-1v-4C16,10.5,15.5,10,15,10z M14,14h-2v-2h2V14z M7,10H3c-0.5,0-1,0.5-1,1v4c0,0.5,0.5,1,1,1h4
	c0.5,0,1-0.5,1-1v-4C8,10.5,7.5,10,7,10z M6,14H4v-2h2V14z M23,2h-4c-0.5,0-1,0.5-1,1v4c0,0.5,0.5,1,1,1h4c0.5,0,1-0.5,1-1V3
	C24,2.5,23.5,2,23,2z M22,6h-2V4h2V6z M15,18h-4c-0.5,0-1,0.5-1,1v4c0,0.5,0.5,1,1,1h4c0.5,0,1-0.5,1-1v-4C16,18.5,15.5,18,15,18z
	 M14,22h-2v-2h2V22z M23,10h-4c-0.5,0-1,0.5-1,1v4c0,0.5,0.5,1,1,1h4c0.5,0,1-0.5,1-1v-4C24,10.5,23.5,10,23,10z M22,14h-2v-2h2V14z
	 M7,18H3c-0.5,0-1,0.5-1,1v4c0,0.5,0.5,1,1,1h4c0.5,0,1-0.5,1-1v-4C8,18.5,7.5,18,7,18z M6,22H4v-2h2V22z"/>
</svg>
