<svg version="1.1" id="Layer_1" xmlns="http://www.w3.org/2000/svg" xmlns:xlink="http://www.w3.org/1999/xlink" x="0px" y="0px"
	 viewBox="0 0 32 32" style="enable-background:new 0 0 32 32;" xml:space="preserve">
<style type="text/css">
	.Blue{fill:#1177D7;}
	.Black{fill:#727272;}
</style>
<path class="Black" d="M0,3v24c0,0.6,0.4,1,1,1h28c0.6,0,1-0.4,1-1V3c0-0.6-0.4-1-1-1H1C0.4,2,0,2.4,0,3z M28,26H2V6h26V26z"/>
<path class="Blue" d="M11,17.3H8.7l-0.4,1.5H9V20H6v-1.2h0.7l2.3-8h1.8l2.3,8h0.7V20h-3.1v-1.2h0.7L11,17.3z M9.9,12.7l-0.8,3.2h1.6
	L9.9,12.7z"/>
<path class="Blue" d="M16,13.3l0.1,0.2c0.5-0.2,1.1-0.3,1.4-0.3c1.6,0,2.4,0.9,2.4,2.8v1.4c0,1.9-0.8,2.7-2.4,2.7
	c-0.5,0-0.9-0.1-1.1-0.1v1.4h0.7v1.2h-3v-1.2h0.7v-6.9H14v-1.2H16z M16.4,18.8c0.2,0.1,0.5,0.1,0.8,0.1c0.8,0,1.1-0.3,1.1-1.6v-1.1
	c0-1.2-0.2-1.6-1.1-1.6c-0.2,0-0.6,0.1-0.8,0.1V18.8z"/>
<path class="Blue" d="M23.8,18.8V20h-3v-1.2h0.7v-4.3h-0.8v-1.2h2.1l0.1,0.5c0.7-0.3,1.3-0.6,2-0.6v1.5c-0.4,0-1.5,0.1-1.9,0.3v3.8
	H23.8z"/>
</svg>
