<svg version="1.1" id="Layer_1" xmlns="http://www.w3.org/2000/svg" xmlns:xlink="http://www.w3.org/1999/xlink" x="0px" y="0px"
	 viewBox="0 0 32 32" style="enable-background:new 0 0 32 32;" xml:space="preserve">
<style type="text/css">
	.Blue{fill:#1177D7;}
	.Black{fill:#727272;}
</style>
<path class="Black" d="M0,3v24c0,0.6,0.4,1,1,1h28c0.6,0,1-0.4,1-1V3c0-0.6-0.4-1-1-1H1C0.4,2,0,2.4,0,3z M28,26H2V6h26V26z"/>
<path class="Blue" d="M9,17.3H6.7l-0.4,1.5H7V20H3.9v-1.2h0.7l2.3-8h1.8l2.3,8h0.7V20H8.7v-1.2h0.7L9,17.3z M7.8,12.7L7,15.9h1.6
	L7.8,12.7z"/>
<path class="Blue" d="M15.1,14.5v-1.2h2.4v5.5h0.7V20h-2l-0.1-0.2c-0.5,0.2-1,0.3-1.3,0.3c-1.7,0-2.3-0.7-2.3-2.6v-3h-0.8v-1.2h2.4
	v3.8c0,1.2,0.1,1.7,0.9,1.7c0.3,0,0.7-0.1,0.9-0.2v-4.1H15.1z"/>
<path class="Blue" d="M24.1,19.2c0,1.3-0.1,2.7-1.8,3.3c-0.8,0.2-1.8,0.2-2.4,0.2h-0.6v-1.2c0.3,0,1.8,0.1,2.6-0.3
	c0.4-0.2,0.6-0.7,0.6-1.4c-0.3,0.2-0.6,0.2-1.1,0.2c-1.5,0-2.4-0.8-2.4-2.7V16c0-1.8,0.7-2.8,2.3-2.8c0.1,0,0.8,0.1,1.4,0.3l0.1-0.2
	h2v1.2h-0.7V19.2z M22.5,14.6c-0.2-0.1-0.5-0.2-0.8-0.2c-0.9,0-1.1,0.4-1.1,1.6v1.1c0,1.3,0.3,1.6,1.1,1.6c0.3,0,0.6-0.1,0.8-0.1
	V14.6z"/>
</svg>
