<svg version="1.1" id="Layer_1" xmlns="http://www.w3.org/2000/svg" xmlns:xlink="http://www.w3.org/1999/xlink" x="0px" y="0px"
	 viewBox="0 0 32 32" style="enable-background:new 0 0 32 32;" xml:space="preserve">
<style type="text/css">
	.Blue{fill:#1177D7;}
	.Black{fill:#727272;}
</style>
<path class="Black" d="M0,3v24c0,0.6,0.4,1,1,1h28c0.6,0,1-0.4,1-1V3c0-0.6-0.4-1-1-1H1C0.4,2,0,2.4,0,3z M28,26H2V6h26V26z"/>
<path class="Blue" d="M6,20v-1.2h0.8V12H6v-1.2h3.5c2.3,0,3.4,1,3.4,3.7v1.8c0,2.8-1.2,3.7-3.4,3.7H6z M9.5,18.6
	c1.3,0,1.8-0.7,1.8-2.4v-1.8c0-1.8-0.6-2.4-1.8-2.4h-1v6.5H9.5z"/>
<path class="Blue" d="M15.4,17.1c0,1.5,0.6,1.7,1.4,1.7c0.2,0,1.1-0.1,1.6-0.2v1.2c-0.4,0.1-1.1,0.3-1.8,0.3c-2.2,0-2.8-0.9-2.8-3.4
	c0-2.9,1-3.5,2.6-3.5c1.5,0,2.4,0.6,2.4,2.8c0,0.4,0,0.7-0.1,1.1H15.4z M17.3,16c0-0.1,0-0.2,0-0.3c0-0.9-0.3-1.2-0.8-1.2
	c-0.7,0-1,0.4-1,1.5H17.3z"/>
<path class="Blue" d="M22.7,14.6c-0.1,0-0.3-0.1-0.4-0.1c-0.6,0-1,0.3-1.1,1.5v1.3c0,1.1,0.4,1.5,1.2,1.5c0.6,0,1.2-0.1,1.7-0.2v1.3
	c-0.5,0.1-1.2,0.3-1.9,0.3c-2.5,0-2.6-1.8-2.6-2.6v-1.6c0-0.9,0.1-2.6,2.6-2.6c0.7,0,1.4,0.1,1.9,0.3v2h-1.4V14.6z"/>
</svg>
