<svg version="1.1" id="Layer_1" xmlns="http://www.w3.org/2000/svg" xmlns:xlink="http://www.w3.org/1999/xlink" x="0px" y="0px"
	 viewBox="0 0 32 32" style="enable-background:new 0 0 32 32;" xml:space="preserve">
<style type="text/css">
	.Blue{fill:#1177D7;}
	.Black{fill:#727272;}
</style>
<path class="Black" d="M0,3v24c0,0.6,0.4,1,1,1h28c0.6,0,1-0.4,1-1V3c0-0.6-0.4-1-1-1H1C0.4,2,0,2.4,0,3z M28,26H2V6h26V26z"/>
<path class="Blue" d="M13.1,13.1h-1.5v-1h-2v2.6h2.5v1.4H9.7v2.6h0.8V20H7.2v-1.2h0.8V12H7.2v-1.2h5.9V13.1z"/>
<path class="Blue" d="M14.9,17.1c0,1.5,0.6,1.7,1.4,1.7c0.2,0,1.1-0.1,1.6-0.2v1.2c-0.4,0.1-1.1,0.3-1.8,0.3c-2.2,0-2.8-0.9-2.8-3.4
	c0-2.9,1-3.5,2.6-3.5c1.5,0,2.4,0.6,2.4,2.8c0,0.4,0,0.7-0.1,1.1H14.9z M16.8,16c0-0.1,0-0.2,0-0.3c0-0.9-0.3-1.2-0.8-1.2
	c-0.7,0-1,0.4-1,1.5H16.8z"/>
<path class="Blue" d="M19.4,12h-0.8v-1.2H21v2.6c0.3-0.1,0.6-0.2,1.1-0.2c1.9,0,2.4,1.3,2.4,2.7v1.4c0,1.3-0.3,2.8-2.6,2.8
	c-0.4,0-1.4,0-2.5-0.2V12z M21,18.8c0.2,0.1,0.6,0.1,0.8,0.1c0.9,0,1.1-0.5,1.1-1.7v-1c0-1.3-0.3-1.7-1.1-1.7
	c-0.4,0-0.6,0.1-0.8,0.2V18.8z"/>
</svg>
