<svg id="Layer_4" xmlns="http://www.w3.org/2000/svg" viewBox="0 0 32 32">
  <style type="text/css">
    .Black {fill: #727272;}
    .cls-1 {opacity: .5;}
  </style>
  <path class="Black" d="M16,2c7.72,0,14,6.28,14,14s-6.28,14-14,14S2,23.72,2,16,8.28,2,16,2M16,0C7.16,0,0,7.16,0,16s7.16,16,16,16,16-7.16,16-16S24.84,0,16,0h0Z"/>
  <g class="cls-1">
    <path class="Black" d="M16,11c-.26,0-.51-.1-.71-.29-.39-.39-.39-1.02,0-1.41.15-.15.22-.25.26-.31-.06-.08-.18-.19-.26-.27-.47-.47-1.71-1.71,0-3.41.39-.39,1.02-.39,1.41,0s.39,1.02,0,1.41c-.15.15-.22.25-.26.31.06.08.18.19.26.27.47.47,1.71,1.71,0,3.41-.2.2-.45.29-.71.29ZM15.58,8.92h0ZM16.42,7.08h0Z"/>
  </g>
  <path class="Black" d="M20,14v2c0,2.21-1.79,4-4,4s-4-1.79-4-4v-2h8M21,12h-10c-.55,0-1,.45-1,1v3c0,3.31,2.69,6,6,6s6-2.69,6-6v-3c0-.55-.45-1-1-1h0Z"/>
  <path class="Black" d="M10,24h12c.55,0,1-.45,1-1s-.45-1-1-1h-12c-.55,0-1,.45-1,1s.45,1,1,1h0Z"/>
</svg>