<svg version="1.1" id="Layer_1" xmlns="http://www.w3.org/2000/svg" xmlns:xlink="http://www.w3.org/1999/xlink" x="0px" y="0px"
	 viewBox="0 0 32 32" style="enable-background:new 0 0 32 32;" xml:space="preserve">
<style type="text/css">
	.Blue{fill:#1177D7;}
	.Black{fill:#727272;}
</style>
<path class="Black" d="M0,3v24c0,0.6,0.4,1,1,1h28c0.6,0,1-0.4,1-1V3c0-0.6-0.4-1-1-1H1C0.4,2,0,2.4,0,3z M28,26H2V6h26V26z"/>
<path class="Blue" d="M10,17.6c0,2.2-2.2,2.4-4,2.4v-1.3h0.3c0.9,0,2-0.1,2-1.2v-5.4H7.5v-1.2h3.2v1.2H10V17.6z"/>
<path class="Blue" d="M14.9,20l-0.1-0.2c-0.6,0.3-1.2,0.3-1.3,0.3c-2,0-2.3-1.4-2.3-2.7v-1.4c0-0.9,0.1-2.6,2.6-2.6
	c0.8,0,1.6,0.1,2.4,0.4v5h0.7V20H14.9z M12.7,17.3c0,1.2,0.2,1.6,1.1,1.6c0.2,0,0.5-0.1,0.7-0.1v-4c-0.2-0.1-0.4-0.1-0.7-0.1
	c-0.9,0-1.1,0.5-1.1,1.7V17.3z"/>
<path class="Blue" d="M21.8,16.2c0-1-0.1-1.5-0.9-1.5c-0.2,0-0.7,0.1-0.9,0.1v4.1h0.7V20h-3v-1.2h0.7v-4.2h-0.8v-1.2h2l0.1,0.2
	c0.5-0.2,1.2-0.3,1.6-0.3c1.5,0,2,0.7,2,2.5v2.9h0.7V20h-2.3V16.2z"/>
</svg>
