<svg version="1.1" id="Layer_1" xmlns="http://www.w3.org/2000/svg" xmlns:xlink="http://www.w3.org/1999/xlink" x="0px" y="0px"
	 viewBox="0 0 32 32" style="enable-background:new 0 0 32 32;" xml:space="preserve">
<style type="text/css">
	.Blue{fill:#1177D7;}
	.Black{fill:#727272;}
</style>
<path class="Black" d="M0,3v24c0,0.6,0.4,1,1,1h28c0.6,0,1-0.4,1-1V3c0-0.6-0.4-1-1-1H1C0.4,2,0,2.4,0,3z M28,26H2V6h26V26z"/>
<path class="Blue" d="M10.8,17.7c0,2.3-1.9,2.4-3.6,2.5v-1.4h0.3c0.9,0,1.7-0.1,1.7-1.2V12H8.3v-1.2h3.2V12h-0.7V17.7z"/>
<path class="Blue" d="M15.3,14.5v-1.2h2.4v5.5h0.7V20h-2l-0.1-0.2c-0.5,0.2-1,0.3-1.3,0.3c-1.7,0-2.3-0.7-2.3-2.6v-3h-0.8v-1.2h2.4
	v3.8c0,1.2,0.1,1.7,0.9,1.7c0.3,0,0.7-0.1,0.9-0.2v-4.1H15.3z"/>
<path class="Blue" d="M18.9,10.8h2.4v8H22V20h-3v-1.2h0.7V12h-0.8V10.8z"/>
</svg>
