<svg version="1.1" id="Layer_1" xmlns="http://www.w3.org/2000/svg" xmlns:xlink="http://www.w3.org/1999/xlink" x="0px" y="0px"
	 viewBox="0 0 32 32" style="enable-background:new 0 0 32 32;" xml:space="preserve">
<style type="text/css">
	.Black{fill:#727272;}
	.Blue{fill:#1177D7;}
</style>
<path class="Black" d="M16.6,28H1c-0.6,0-1-0.4-1-1V3c0-0.6,0.4-1,1-1h28c0.6,0,1,0.4,1,1v19h-2V6H2v20h12L16.6,28z"/>
<polygon class="Blue" points="16,26 24,20 24,24 32,24 32,28 24,28 24,32 "/>
<path class="Black" d="M12.7,15.5h-1.5v-1.4h1.5c0.7,0,1.1-0.4,1.1-1.3c0-1.4-0.7-1.5-1.6-1.5c-0.2,0-1,0-1.9,0.3v-1.4
	c0.8-0.3,1.7-0.3,1.9-0.3c1.9,0,3.2,0.2,3.2,2.9c0,0.8-0.4,1.6-1.2,2h0c0.9,0.4,1.4,1.3,1.4,2.3c0,2.7-1.4,3-3.3,3
	c-0.5,0-1.3-0.1-2.3-0.4v-1.4c1.1,0.3,1.9,0.4,2.3,0.4c0.9,0,1.6-0.2,1.6-1.6C13.9,16.1,13.5,15.5,12.7,15.5z"/>
<path class="Black" d="M22,18.6V20h-5v-1.4h1.6v-6.7L16.6,13v-1.7l2.3-1.3h1.5v8.5H22z"/>
</svg>
