<svg id="Layer_4" xmlns="http://www.w3.org/2000/svg" viewBox="0 0 32 32">
  <style  type="text/css">
    .Black {fill: #727272;}
    .cls-1 {opacity: .5;}
  </style>
  <path class="Black" d="M16,2c7.72,0,14,6.28,14,14s-6.28,14-14,14S2,23.72,2,16,8.28,2,16,2M16,0C7.16,0,0,7.16,0,16s7.16,16,16,16,16-7.16,16-16S24.84,0,16,0h0Z"/>
  <path class="Black" d="M7.52,18c-.68,0-1.18.67-.96,1.31,1.37,3.89,5.08,6.69,9.44,6.69s8.07-2.79,9.44-6.69c.23-.64-.27-1.31-.96-1.31H7.52Z"/>
  <g class="cls-1">
    <path class="Black" d="M16,17c-.26,0-.51-.1-.71-.29-.39-.39-.39-1.02,0-1.41,1.29-1.29.99-1.59,0-2.59-.95-.95-2.71-2.71,0-5.41.39-.39,1.02-.39,1.41,0s.39,1.02,0,1.41c-1.29,1.29-.99,1.59,0,2.59.95.95,2.71,2.71,0,5.41-.2.2-.45.29-.71.29Z"/>
    <path class="Black" d="M10.85,17c-.26,0-.51-.1-.71-.29-.39-.39-.39-1.02,0-1.41,1.29-1.29.99-1.59,0-2.59-.95-.95-2.71-2.71,0-5.41.39-.39,1.02-.39,1.41,0s.39,1.02,0,1.41c-1.29,1.29-.99,1.59,0,2.59.95.95,2.71,2.71,0,5.41-.2.2-.45.29-.71.29Z"/>
    <path class="Black" d="M20.85,17c-.26,0-.51-.1-.71-.29-.39-.39-.39-1.02,0-1.41,1.29-1.29.99-1.59,0-2.59-.95-.95-2.71-2.71,0-5.41.39-.39,1.02-.39,1.41,0s.39,1.02,0,1.41c-1.29,1.29-.99,1.59,0,2.59.95.95,2.71,2.71,0,5.41-.2.2-.45.29-.71.29Z"/>
  </g>
</svg>