<svg version="1.1" id="Layer_1" xmlns="http://www.w3.org/2000/svg" xmlns:xlink="http://www.w3.org/1999/xlink" x="0px" y="0px"
	 viewBox="0 0 32 32" style="enable-background:new 0 0 32 32;" xml:space="preserve">
<style type="text/css">
	.Blue{fill:#1177D7;}
	.Black{fill:#727272;}
</style>
<path class="Black" d="M0,3v24c0,0.6,0.4,1,1,1h28c0.6,0,1-0.4,1-1V3c0-0.6-0.4-1-1-1H1C0.4,2,0,2.4,0,3z M28,26H2V6h26V26z"/>
<path class="Blue" d="M7.3,10.8l1.8,5.7l1.9-5.7h2.8V12h-0.8l0.4,6.7h0.8V20h-3.3v-1.2h0.8l-0.3-5l-1.7,5.1H8.4l-1.7-4.9l-0.3,4.8
	h0.8V20H4v-1.2h0.8L5.2,12H4.5v-1.2H7.3z"/>
<path class="Blue" d="M18.6,20l-0.1-0.2c-0.6,0.3-1.2,0.3-1.3,0.3c-2,0-2.3-1.5-2.3-2.7v-1.4c0-1,0.1-2.7,2.6-2.7
	c0.8,0,1.6,0.1,2.4,0.4v5.1h0.7V20H18.6z M16.4,17.2c0,1.2,0.2,1.6,1.1,1.6c0.2,0,0.5-0.1,0.7-0.1v-4.1c-0.2-0.1-0.4-0.1-0.7-0.1
	c-0.9,0-1.1,0.5-1.1,1.7V17.2z"/>
<path class="Blue" d="M21.1,21.5c1.1,0,1.8-0.3,2.1-1.6l-1.8-5.3h-0.6v-1.2h2.9v1.2h-0.6l0.9,3.2l0.8-3.2h-0.6v-1.2h2.9v1.2h-0.6
	l-1.6,5.1c-0.6,2.1-1.1,3-3.8,3.1V21.5z"/>
</svg>
