<svg id="Layer_4" xmlns="http://www.w3.org/2000/svg" viewBox="0 0 32 32">
  <style type="text/css">
    .Black {fill: #727272;}
    .Yellow {fill: #ffb115;}
  </style>
  <path class="Black" d="M16,2c7.72,0,14,6.28,14,14s-6.28,14-14,14S2,23.72,2,16,8.28,2,16,2M16,0C7.16,0,0,7.16,0,16s7.16,16,16,16,16-7.16,16-16S24.84,0,16,0h0Z"/>
  <polygon class="Black" points="2 22 30 22 30 20 2 20 2 22 2 22"/>
  <path class="Yellow" d="M5.63,16.93l3.31,1.32c-.29.55-.52,1.13-.68,1.75h15.49c-.16-.61-.39-1.2-.68-1.75l3.31-1.32c.51-.21.76-.79.56-1.3-.21-.51-.79-.76-1.3-.56l-3.76,1.5c-.52-.56-1.12-1.05-1.78-1.44l2.77-4.62c.28-.47.13-1.09-.34-1.37-.47-.28-1.09-.13-1.37.34l-2.9,4.84c-.4-.12-.82-.2-1.24-.25v-6.07c0-.55-.45-1-1-1s-1,.45-1,1v6.07c-.42.05-.84.14-1.24.25l-2.9-4.84c-.28-.47-.9-.63-1.37-.34s-.63.9-.34,1.37l2.77,4.62c-.66.39-1.26.88-1.78,1.44l-3.76-1.5c-.51-.2-1.09.04-1.3.56-.21.51.04,1.09.56,1.3Z"/>
</svg>