<svg version="1.1" id="Layer_1" xmlns="http://www.w3.org/2000/svg" xmlns:xlink="http://www.w3.org/1999/xlink" x="0px" y="0px"
	 viewBox="0 0 32 32" style="enable-background:new 0 0 32 32;" xml:space="preserve">
<style type="text/css">
	.Black{fill:#727272;}
	.Blue{fill:#1177D7;}
</style>
<path class="Black" d="M14,28H1c-0.6,0-1-0.4-1-1V3c0-0.6,0.4-1,1-1h28c0.6,0,1,0.4,1,1v19.5L28,21V6H2v20h12L14,28z"/>
<polygon class="Blue" points="24,32 24,28 16,28 16,24 24,24 24,20 32,26 "/>
<path class="Black" d="M14.9,18.6V20h-5v-1.4h1.6v-6.7L9.5,13v-1.7l2.3-1.3h1.5v8.5H14.9z"/>
<path class="Black" d="M15.6,21.6c1.2,0,1.9-0.3,2.3-1.7L16,14.1h-0.7v-1.3h3.1v1.3h-0.6l0.9,3.5l0.9-3.5H19v-1.3h3.1v1.3h-0.7
	l-1.7,5.5c-0.7,2.3-1.2,3.2-4.1,3.3V21.6z"/>
</svg>
