<svg id="Layer_4" xmlns="http://www.w3.org/2000/svg" viewBox="0 0 32 32">
  <style type="text/css">
    .Black {fill: #727272;}
    .Blue {fill: #1177d7;}
  </style>
  <path class="Black" d="M16,2c7.72,0,14,6.28,14,14s-6.28,14-14,14S2,23.72,2,16,8.28,2,16,2M16,0C7.16,0,0,7.16,0,16s7.16,16,16,16,16-7.16,16-16S24.84,0,16,0h0Z"/>
  <path class="Blue" d="M19.4,6.6c.38,1.06.6,2.2.6,3.4,0,5.52-4.48,10-10,10-1.19,0-2.33-.22-3.4-.6,1.39,3.85,5.07,6.6,9.4,6.6,5.52,0,10-4.48,10-10,0-4.33-2.76-8-6.6-9.4Z"/>
</svg>