<svg version="1.1" id="Layer_1" xmlns="http://www.w3.org/2000/svg" xmlns:xlink="http://www.w3.org/1999/xlink" x="0px" y="0px"
	 viewBox="0 0 32 32" style="enable-background:new 0 0 32 32;" xml:space="preserve">
<style type="text/css">
	.Blue{fill:#1177D7;}
	.Black{fill:#727272;}
</style>
<path class="Black" d="M0,3v24c0,0.6,0.4,1,1,1h28c0.6,0,1-0.4,1-1V3c0-0.6-0.4-1-1-1H1C0.4,2,0,2.4,0,3z M28,26H2V6h26V26z"/>
<path class="Blue" d="M12.8,16.4c0,1.3-0.1,3.7-3.4,3.7c-3.3,0-3.4-2.3-3.4-3.7v-2.1c0-1.3,0.1-3.7,3.4-3.7c3.3,0,3.4,2.4,3.4,3.7
	V16.4z M7.7,16.4c0,1.9,0.6,2.3,1.8,2.3c1.3,0,1.8-0.6,1.8-2.3v-2.1c0-1.8-0.5-2.3-1.8-2.3c-1.2,0-1.8,0.5-1.8,2.3V16.4z"/>
<path class="Blue" d="M16.9,14.6c-0.1,0-0.3-0.1-0.4-0.1c-0.6,0-1,0.3-1.1,1.5v1.3c0,1.1,0.4,1.5,1.2,1.5c0.6,0,1.2-0.1,1.7-0.2v1.3
	c-0.5,0.1-1.2,0.3-1.9,0.3c-2.5,0-2.6-1.8-2.6-2.6v-1.6c0-0.9,0.1-2.6,2.6-2.6c0.7,0,1.4,0.1,1.9,0.3v2h-1.4V14.6z"/>
<path class="Blue" d="M22.7,20c-0.4,0.1-0.8,0.1-1.1,0.1c-1.4,0-1.9-0.7-1.9-2v-3.5h-0.8v-1.2h0.8l0.2-1.7h1.3v1.7h1.5v1.2h-1.5V18
	c0,0.5,0.1,0.9,0.6,0.9c0.2,0,0.5,0,0.8-0.1V20z"/>
</svg>
