<svg id="Layer_4" xmlns="http://www.w3.org/2000/svg" viewBox="0 0 32 32">
  <style type="text/css">
    .Black {fill: #727272;}
    .Blue {fill: #1177d7;}
  </style>
  <path class="Black" d="M16,2c7.72,0,14,6.28,14,14s-6.28,14-14,14S2,23.72,2,16,8.28,2,16,2M16,0C7.16,0,0,7.16,0,16s7.16,16,16,16,16-7.16,16-16S24.84,0,16,0h0Z"/>
  <path class="Blue" d="M15.58,19.24l-6.44-10.73c-.28-.47-.13-1.09.34-1.37.47-.28,1.09-.13,1.37.34l5.56,9.27,9.21-3.68c.51-.2,1.1.04,1.3.56.21.51-.04,1.09-.56,1.3l-10.79,4.32Z"/>
</svg>