<svg version="1.1" id="Layer_1" xmlns="http://www.w3.org/2000/svg" xmlns:xlink="http://www.w3.org/1999/xlink" x="0px" y="0px"
	 viewBox="0 0 32 32" style="enable-background:new 0 0 32 32;" xml:space="preserve">
<style type="text/css">
	.Blue{fill:#1177D7;}
	.Black{fill:#727272;}
</style>
<path class="Black" d="M0,3v24c0,0.6,0.4,1,1,1h28c0.6,0,1-0.4,1-1V3c0-0.6-0.4-1-1-1H1C0.4,2,0,2.4,0,3z M28,26H2V6h26V26z"/>
<path class="Blue" d="M7.9,17.6v1.1c0.3,0.2,0.7,0.2,0.9,0.2c0.8,0,1.4-0.3,1.4-1.1c0-0.6-0.1-0.9-0.5-1.2l-1.6-1
	c-0.9-0.6-1.5-1.2-1.5-2.5c0-1.8,0.8-2.5,2.9-2.5c0.4,0,1.3,0.1,2.1,0.4v2h-1.5v-1c-0.2-0.1-0.5-0.1-0.6-0.1c-0.9,0-1.3,0.4-1.3,1.1
	c0,0.7,0.2,0.9,0.9,1.3c0.4,0.3,0.9,0.6,1.3,0.8c0.9,0.6,1.4,1.3,1.4,2.5c0,1.9-1.1,2.4-3,2.4c-0.4,0-1.5-0.1-2.4-0.4v-2.1H7.9z"/>
<path class="Blue" d="M14.2,17.1c0,1.5,0.6,1.7,1.4,1.7c0.2,0,1.1-0.1,1.6-0.2v1.2c-0.4,0.1-1.1,0.3-1.8,0.3c-2.2,0-2.8-0.9-2.8-3.4
	c0-2.9,1-3.5,2.6-3.5c1.5,0,2.4,0.6,2.4,2.8c0,0.4,0,0.7-0.1,1.1H14.2z M16.1,16c0-0.1,0-0.2,0-0.3c0-0.9-0.3-1.2-0.8-1.2
	c-0.7,0-1,0.4-1,1.5H16.1z"/>
<path class="Blue" d="M20.2,13.3l0.1,0.2c0.5-0.2,1.1-0.3,1.4-0.3c1.6,0,2.4,0.9,2.4,2.8v1.4c0,2-0.8,2.7-2.4,2.7
	c-0.5,0-0.9-0.1-1.1-0.1v1.4h0.7v1.2h-3v-1.2H19v-6.9h-0.8v-1.2H20.2z M20.6,18.8c0.2,0.1,0.5,0.1,0.8,0.1c0.8,0,1.1-0.3,1.1-1.6
	v-1.1c0-1.2-0.2-1.6-1.1-1.6c-0.2,0-0.6,0.1-0.8,0.1V18.8z"/>
</svg>
