<svg version="1.1" id="Layer_1" xmlns="http://www.w3.org/2000/svg" xmlns:xlink="http://www.w3.org/1999/xlink" x="0px" y="0px"
	 viewBox="0 0 32 32" style="enable-background:new 0 0 32 32;" xml:space="preserve">
<style type="text/css">
	.Blue{fill:#1177D7;}
	.Black{fill:#727272;}
	.st0{opacity:0.5;}
</style>
<path class="Black" d="M0,3v24c0,0.6,0.4,1,1,1h28c0.6,0,1-0.4,1-1V3c0-0.6-0.4-1-1-1H1C0.4,2,0,2.4,0,3z M28,26H2V6h26V26z"/>
<path class="Blue" d="M20,18h-4v-4h4V18z M14,14h-4v4h4V14z M14,8h-4v4h4V8z M20,8h-4v4h4V8z M26,8h-4v4h4V8z M20,20h-4v4h4V20z
	 M14,20h-4v4h4V20z M8,20H4v4h4V20z M8,14H4v4h4V14z M26,14h-4v4h4V14z"/>
<g class="st0">
	<path class="Black" d="M26,20h-4v4h4V20z M8,8H4v4h4V8z"/>
</g>
</svg>
