<svg id="Layer_4" xmlns="http://www.w3.org/2000/svg" viewBox="0 0 32 32">
  <style type="text/css">
    .Green {fill: #039c23;}
    .Black {fill: #727272;}
    .cls-1 {opacity: .5;}
  </style>
  <path class="Black" d="M16,2c7.72,0,14,6.28,14,14s-6.28,14-14,14S2,23.72,2,16,8.28,2,16,2M16,0C7.16,0,0,7.16,0,16s7.16,16,16,16,16-7.16,16-16S24.84,0,16,0h0Z"/>
  <g class="cls-1">
    <path class="Green" d="M14,18l13.1-6.55c-1.22-2.97-3.58-5.33-6.55-6.55l-6.55,13.1Z"/>
  </g>
  <path class="Black" d="M26,7c-.26,0-.51-.1-.71-.29-.39-.39-.39-1.02,0-1.41l4-4c.39-.39,1.02-.39,1.41,0s.39,1.02,0,1.41l-4,4c-.2.2-.45.29-.71.29Z"/>
</svg>