<svg width="16" height="16" viewBox="0 0 16 16" fill="none" xmlns="http://www.w3.org/2000/svg">
<path fill-rule="evenodd" clip-rule="evenodd" d="M7.5 5V2H4.5C3.11929 2 2 3.11929 2 4.5V5H7.5ZM8.5 5.37494V2H11.5C12.8807 2 14 3.11929 14 4.5V6.25716C13.0491 5.47182 11.8296 5 10.5 5C9.79442 5 9.11986 5.13286 8.5 5.37494ZM7.33692 6H2V11.5C2 12.8807 3.11929 14 4.5 14H6.25716C5.47182 13.0491 5 11.8296 5 10.5C5 8.63984 5.92345 6.99537 7.33692 6Z" fill="#FAA06B"/>
<path fill-rule="evenodd" clip-rule="evenodd" d="M6.63471 9.91995C7.72266 9.64203 8.36866 8.52312 8.06537 7.44197L7.90917 6.88518C8.16325 6.68988 8.43864 6.52258 8.73106 6.3877L9.06844 6.74567C9.85737 7.58279 11.1881 7.58349 11.978 6.7472L12.3026 6.40341C12.6004 6.54393 12.8802 6.7182 13.1374 6.92148L13.0113 7.34378C12.6819 8.44593 13.3479 9.59805 14.4673 9.86273L14.8163 9.94525C14.8379 10.127 14.849 10.3121 14.849 10.4999C14.849 10.6559 14.8414 10.81 14.8264 10.9619L14.3659 11.0796C13.2779 11.3575 12.6319 12.4764 12.9352 13.5575L13.0913 14.1142C12.8373 14.3095 12.5619 14.4769 12.2695 14.6118L11.9321 14.2538C11.1432 13.4167 9.81243 13.416 9.02262 14.2523L8.69763 14.5964C8.3999 14.4559 8.12016 14.2817 7.86297 14.0785L7.98931 13.6557C8.31865 12.5536 7.65266 11.4015 6.53323 11.1368L6.18366 11.0541C6.1621 10.8725 6.151 10.6875 6.151 10.4999C6.151 10.3438 6.15868 10.1897 6.17365 10.0377L6.63471 9.91995ZM11.5 10.4999C11.5 11.0521 11.0523 11.4999 10.5 11.4999C9.94774 11.4999 9.50002 11.0521 9.50002 10.4999C9.50002 9.94757 9.94774 9.49985 10.5 9.49985C11.0523 9.49985 11.5 9.94757 11.5 10.4999Z" fill="#DE590B"/>
</svg>
