<svg width="16" height="16" viewBox="0 0 16 16" fill="none" xmlns="http://www.w3.org/2000/svg">
<path d="M3 4.00488C3 3.4526 3.44772 3.00488 4 3.00488H7C7.55228 3.00488 8 3.4526 8 4.00488H3Z" fill="#54B054"/>
<path fill-rule="evenodd" clip-rule="evenodd" d="M5.70802 5.42032C5.27622 5.76861 5 6.30205 5 6.9V9.98829C4.93496 9.9992 4.86814 10.0049 4.8 10.0049H2.2C1.53726 10.0049 1 9.46762 1 8.80488V6.20488C1 5.54214 1.53726 5.00488 2.2 5.00488H4.8C5.16279 5.00488 5.48798 5.16588 5.70802 5.42032Z" fill="#54B054"/>
<path fill-rule="evenodd" clip-rule="evenodd" d="M9 4.00488C9 3.4526 9.44772 3.00488 10 3.00488H11C12.5703 3.00488 13.8587 4.21129 13.9891 5.7478C13.6774 5.35942 13.2325 5.10251 12.7438 5.0248C12.4009 4.41603 11.7485 4.00488 11 4.00488H9Z" fill="#54B054"/>
<path d="M12 5.99902H9.00002V7.99902H12V5.99902Z" fill="#107C10"/>
<path d="M8.00002 5.99902H7.00002C6.44773 5.99902 6.00002 6.44674 6.00002 6.99902V13.999C6.00002 14.5513 6.44773 14.999 7.00002 14.999V10.499C7.00002 10.2229 7.22387 9.99902 7.50002 9.99902H13.5C13.7762 9.99902 14 10.2229 14 10.499V14.999C14.5523 14.999 15 14.5513 15 13.999V8.41324C15 8.14802 14.8947 7.89367 14.7071 7.70613L13.2929 6.29192C13.2074 6.20641 13.108 6.13799 13 6.08884V8.49902C13 8.77517 12.7762 8.99902 12.5 8.99902H8.50002C8.22387 8.99902 8.00002 8.77517 8.00002 8.49902V5.99902Z" fill="#107C10"/>
<path d="M13 14.999V10.999H8.00002V14.999H13Z" fill="#107C10"/>
</svg>
