<svg width="16" height="16" viewBox="0 0 16 16" fill="none" xmlns="http://www.w3.org/2000/svg">
<path d="M7.74951 4.5V1H4.24951C3.42108 1 2.74951 1.67157 2.74951 2.5V9.15747H4.99438C5.26893 9.15747 5.52624 9.23123 5.74759 9.36C6.43255 8.96323 7.31066 9.16827 7.74866 9.82927C8.18683 9.168 9.06549 8.96306 9.75058 9.3605C9.97212 9.23142 10.2297 9.15747 10.5046 9.15747H12.7495V6H9.24951C8.42108 6 7.74951 5.32843 7.74951 4.5Z" fill="#C6B1DE"/>
<path fill-rule="evenodd" clip-rule="evenodd" d="M1.49902 10.5061C1.49902 10.23 1.72288 10.0061 1.99902 10.0061H4.99438C5.27053 10.0061 5.49438 10.23 5.49438 10.5061C5.49438 10.7822 5.27053 11.0061 4.99438 11.0061H3.9967L3.9967 14.5037C3.9967 14.7798 3.77285 15.0037 3.4967 15.0037C3.22056 15.0037 2.9967 14.7798 2.9967 14.5037L2.9967 11.0061H1.99902C1.72288 11.0061 1.49902 10.7822 1.49902 10.5061ZM10.0046 10.5061C10.0046 10.23 10.2285 10.0061 10.5046 10.0061H13.5C13.7761 10.0061 14 10.23 14 10.5061C14 10.7822 13.7761 11.0061 13.5 11.0061H12.5023V14.5037C12.5023 14.7798 12.2785 15.0037 12.0023 15.0037C11.7262 15.0037 11.5023 14.7798 11.5023 14.5037V11.0061H10.5046C10.2285 11.0061 10.0046 10.7822 10.0046 10.5061ZM6.23347 10.0832C6.46758 9.93674 6.77608 10.0078 6.92254 10.2419L7.74866 11.5624L8.57477 10.2419C8.72123 10.0078 9.02974 9.93674 9.26384 10.0832C9.49795 10.2297 9.569 10.5382 9.42254 10.7723L8.33844 12.5051L9.42254 14.238C9.569 14.4721 9.49795 14.7806 9.26384 14.9271C9.02974 15.0735 8.72123 15.0025 8.57477 14.7684L7.74866 13.4479L6.92254 14.7684C6.77608 15.0025 6.46758 15.0735 6.23347 14.9271C5.99937 14.7806 5.92832 14.4721 6.07477 14.238L7.15887 12.5051L6.07477 10.7723C5.92832 10.5382 5.99937 10.2297 6.23347 10.0832Z" fill="#7C52AB"/>
<path d="M8.74951 4.5V1.25L12.4995 5H9.24951C8.97337 5 8.74951 4.77614 8.74951 4.5Z" fill="#7C52AB"/>
</svg>
