<svg width="16" height="16" viewBox="0 0 16 16" fill="none" xmlns="http://www.w3.org/2000/svg">
<path fill-rule="evenodd" clip-rule="evenodd" d="M9.5 2H6.5C6.22386 2 6 2.22386 6 2.5C6 2.77614 6.22386 3 6.5 3H9.5C9.77614 3 10 2.77614 10 2.5C10 2.22386 9.77614 2 9.5 2ZM6.5 1C5.67157 1 5 1.67157 5 2.5C5 3.32843 5.67157 4 6.5 4H9.5C10.3284 4 11 3.32843 11 2.5C11 1.67157 10.3284 1 9.5 1H6.5Z" fill="#7C52AB"/>
<path fill-rule="evenodd" clip-rule="evenodd" d="M5 2.5C5 2.32468 5.03008 2.15639 5.08535 2H4.5C3.67157 2 3 2.67157 3 3.5V5.25606C3.46917 5.09023 3.97405 5 4.5 5C6.98528 5 9 7.01472 9 9.5C9 10.1947 8.84257 10.8527 8.56144 11.4401L10.5607 13.4393C10.9827 13.8614 11.1007 14.4723 10.9146 15H11.5C12.3284 15 13 14.3284 13 13.5V3.5C13 2.67157 12.3284 2 11.5 2H10.9146C10.9699 2.15639 11 2.32468 11 2.5C11 3.32843 10.3284 4 9.5 4H6.5C5.67157 4 5 3.32843 5 2.5Z" fill="#C6B1DE"/>
<path fill-rule="evenodd" clip-rule="evenodd" d="M6.59615 12.3031C6.01185 12.7408 5.2862 13 4.5 13C2.567 13 1 11.433 1 9.5C1 7.567 2.567 6 4.5 6C6.433 6 8 7.567 8 9.5C8 10.2861 7.74082 11.0117 7.30324 11.596L9.85356 14.1464C10.0488 14.3417 10.0488 14.6583 9.85355 14.8535C9.65828 15.0488 9.3417 15.0488 9.14644 14.8535L6.59615 12.3031ZM7 9.5C7 10.8807 5.88071 12 4.5 12C3.11929 12 2 10.8807 2 9.5C2 8.11929 3.11929 7 4.5 7C5.88071 7 7 8.11929 7 9.5Z" fill="#7C52AB"/>
</svg>
