<svg width="16" height="16" viewBox="0 0 16 16" fill="none" xmlns="http://www.w3.org/2000/svg">
<path d="M3.0028 2.64534C2.97878 1.68104 3.80102 1 4.68106 1H11.3188C12.1988 1 13.021 1.681 12.997 2.64526C12.9717 3.66216 12.7572 4.43599 12.4307 5.05156C12.1049 5.66562 11.683 6.09278 11.29 6.43237C11.1542 6.54974 11.0146 6.66258 10.8874 6.76535C10.8359 6.80694 10.7865 6.84689 10.7402 6.88481C10.5715 7.02289 10.433 7.14303 10.3199 7.26381C10.1076 7.49055 9.99994 7.70124 9.99995 8C9.99995 8.29897 10.1075 8.50972 10.3195 8.73635C10.4324 8.85709 10.5707 8.97719 10.739 9.11524C10.7854 9.15327 10.835 9.19335 10.8866 9.23508C11.0135 9.33772 11.1528 9.45041 11.2882 9.56756C11.6808 9.90708 12.1023 10.3341 12.4281 10.9478C12.7547 11.5631 12.9696 12.3366 12.9959 13.3531C13.0209 14.318 12.1983 15 11.3176 15H4.67902C3.7984 15 2.97572 14.318 3.0008 13.353C3.02722 12.3364 3.2425 11.5629 3.56946 10.9476C3.89561 10.3339 4.31761 9.90688 4.71056 9.5674C4.84611 9.45029 4.98552 9.33764 5.1125 9.23502C5.16419 9.19325 5.21382 9.15315 5.26029 9.11508C5.42883 8.97704 5.56726 8.85693 5.68028 8.73618C5.89242 8.50954 5.99999 8.29887 5.99995 8.00008C5.9999 7.7013 5.89221 7.49057 5.67986 7.26382C5.56674 7.14304 5.42823 7.0229 5.25962 6.88482C5.21332 6.84689 5.1639 6.80696 5.11244 6.76538C4.98524 6.6626 4.8456 6.54975 4.70977 6.43238C4.3168 6.09278 3.89491 5.66563 3.56918 5.05158C3.24265 4.43602 3.02813 3.66221 3.0028 2.64534ZM4.68106 2C4.27668 2 3.99453 2.3007 4.00249 2.62043C4.02451 3.5043 4.20829 4.12243 4.45259 4.58296C4.69768 5.045 5.01915 5.37807 5.36362 5.67575C5.48643 5.78188 5.60493 5.87762 5.72664 5.97594C5.78129 6.0201 5.8366 6.06478 5.89322 6.11115C6.06809 6.25436 6.24927 6.40889 6.40976 6.58027C6.74464 6.93786 6.99985 7.38146 6.99995 7.99992C7.00004 8.61828 6.74512 9.0619 6.41035 9.41955C6.24992 9.59095 6.06879 9.74549 5.89394 9.8887C5.83706 9.93529 5.78153 9.98016 5.72664 10.0245C5.6052 10.1226 5.48693 10.2182 5.36432 10.3241C5.01975 10.6218 4.69804 10.9549 4.45252 11.4169C4.2078 11.8774 4.02343 12.4954 4.00047 13.379C3.99215 13.6989 4.27432 14 4.67902 14H11.3176C11.7223 14 12.0045 13.6989 11.9963 13.3789C11.9734 12.4953 11.7893 11.8772 11.5448 11.4167C11.2996 10.9546 10.9782 10.6216 10.6341 10.3239C10.5116 10.218 10.3934 10.1224 10.272 10.0243C10.2172 9.97994 10.1618 9.9351 10.105 9.88855C9.93033 9.74533 9.74937 9.59079 9.58908 9.41938C9.25459 9.06172 8.99995 8.61818 8.99995 8C8.99994 7.38151 9.25513 6.93788 9.59001 6.58028C9.75051 6.40889 9.93169 6.25435 10.1066 6.11114C10.1632 6.06475 10.2185 6.02006 10.2732 5.97589C10.3949 5.87758 10.5134 5.78185 10.6362 5.67574C10.9807 5.37805 11.3022 5.04498 11.5473 4.58294C11.7916 4.12241 11.9754 3.50427 11.9973 2.6204C12.0053 2.30069 11.7231 2 11.3188 2H4.68106Z" fill="#7C52AB"/>
<path d="M5.33571 4.11435C5.20502 3.86796 5.08018 3.5195 5.02695 3H10.9723C10.9191 3.51949 10.7943 3.86794 10.6636 4.11431C10.4991 4.42433 10.2781 4.66331 9.98208 4.9191C9.87188 5.01433 9.77307 5.09412 9.65872 5.18647C9.60171 5.23251 9.54079 5.28172 9.4727 5.33747C9.29157 5.48581 9.06771 5.67474 8.85982 5.89674C8.40242 6.38517 7.99974 7.06166 7.99967 7.99976C7.99952 7.06162 7.59679 6.38514 7.13939 5.89673C6.93151 5.67474 6.70767 5.48582 6.52654 5.33749C6.45847 5.28174 6.39759 5.23257 6.34058 5.18653C6.22622 5.09417 6.12741 5.01437 6.0172 4.91913C5.72122 4.66336 5.50017 4.42437 5.33571 4.11435ZM10.9709 13H5.02539C5.0792 12.481 5.20433 12.1326 5.33531 11.8861C5.50019 11.5759 5.72161 11.3367 6.01779 11.0808C6.1279 10.9857 6.2265 10.9061 6.34056 10.8139C6.39779 10.7677 6.45891 10.7184 6.52732 10.6623C6.70847 10.5139 6.9323 10.325 7.14016 10.1029C7.59751 9.61431 7.99975 8.93757 7.99967 7.99976C7.99967 8.93715 8.40139 9.61371 8.85842 10.1024C9.06609 10.3245 9.28973 10.5135 9.47071 10.6619C9.53898 10.7178 9.59998 10.7672 9.6571 10.8133C9.77104 10.9054 9.86968 10.9852 9.97966 11.0803C10.2754 11.3361 10.4966 11.5752 10.6612 11.8855C10.7921 12.1321 10.9172 12.4806 10.9709 13Z" fill="#C6B1DE"/>
</svg>
