<svg width="16" height="16" viewBox="0 0 16 16" fill="none" xmlns="http://www.w3.org/2000/svg">
<g clip-path="url(#clip0_649_635)">
<path fill-rule="evenodd" clip-rule="evenodd" d="M0.75 2.99976C0.75 1.75712 1.75736 0.749756 3 0.749756C4.24264 0.749756 5.25 1.75712 5.25 2.99976C5.25 4.2424 4.24264 5.24976 3 5.24976C1.75736 5.24976 0.75 4.2424 0.75 2.99976ZM3 2.24976C2.58579 2.24976 2.25 2.58554 2.25 2.99976C2.25 3.41397 2.58579 3.74976 3 3.74976C3.41421 3.74976 3.75 3.41397 3.75 2.99976C3.75 2.58554 3.41421 2.24976 3 2.24976Z" fill="#5CAAE5"/>
<path fill-rule="evenodd" clip-rule="evenodd" d="M10.75 11.9998C10.75 11.3094 11.3096 10.7498 12 10.7498H14C14.6904 10.7498 15.25 11.3094 15.25 11.9998V13.9998C15.25 14.6901 14.6904 15.2498 14 15.2498H12C11.3096 15.2498 10.75 14.6901 10.75 13.9998V11.9998ZM12.25 12.2498V13.7498H13.75V12.2498H12.25Z" fill="#0078D4"/>
<path fill-rule="evenodd" clip-rule="evenodd" d="M5.75 2.99976C5.75 2.58554 6.08579 2.24976 6.5 2.24976H11.5C12.7426 2.24976 13.75 3.25712 13.75 4.49976V7.6891L13.9697 7.46943C14.2626 7.17653 14.7374 7.17653 15.0303 7.46943C15.3232 7.76232 15.3232 8.23719 15.0303 8.53009L13.5303 10.0301C13.4584 10.102 13.3755 10.1562 13.2871 10.1928C13.2042 10.2272 13.1138 10.2472 13.019 10.2495C13.0127 10.2497 13.0064 10.2498 13 10.2498C12.8983 10.2498 12.8013 10.2295 12.7129 10.1928C12.6245 10.1562 12.5416 10.102 12.4697 10.0301L10.9697 8.53009C10.6768 8.23719 10.6768 7.76232 10.9697 7.46943C11.2626 7.17653 11.7374 7.17653 12.0303 7.46943L12.25 7.6891V4.49976C12.25 4.08554 11.9142 3.74976 11.5 3.74976H6.5C6.08579 3.74976 5.75 3.41397 5.75 2.99976Z" fill="#5CAAE5"/>
<path fill-rule="evenodd" clip-rule="evenodd" d="M10.2497 12.9998C10.2497 13.414 9.91391 13.7498 9.49969 13.7498H4.49969C3.25705 13.7498 2.24969 12.7424 2.24969 11.4998V8.31042L2.03002 8.53009C1.73713 8.82298 1.26226 8.82298 0.969364 8.53009C0.676472 8.23719 0.676472 7.76232 0.969364 7.46943L2.46936 5.96943C2.54127 5.89752 2.62415 5.84326 2.71261 5.80666C2.79551 5.77229 2.88591 5.75235 2.98068 5.74999C2.987 5.74983 2.99334 5.74976 2.99969 5.74976C3.10139 5.74976 3.19835 5.77 3.28678 5.80666C3.37524 5.84326 3.45812 5.89752 3.53003 5.96943L5.03003 7.46943C5.32292 7.76232 5.32292 8.23719 5.03003 8.53009C4.73713 8.82298 4.26226 8.82298 3.96936 8.53009L3.74969 8.31042V11.4998C3.74969 11.914 4.08548 12.2498 4.49969 12.2498H9.49969C9.91391 12.2498 10.2497 12.5855 10.2497 12.9998Z" fill="#0078D4"/>
</g>
<defs>
<clipPath id="clip0_649_635">
<rect width="16" height="16" fill="white"/>
</clipPath>
</defs>
</svg>
