<svg width="16" height="16" viewBox="0 0 16 16" fill="none" xmlns="http://www.w3.org/2000/svg">
<path d="M8 4.5V1H4.5C3.67157 1 3 1.67157 3 2.5V9.10761C3.0761 9.0772 3.1555 9.0527 3.2378 9.03496C3.77961 8.91817 4.30409 9.111 4.65757 9.48507C5.14236 8.97433 5.93619 8.82032 6.58711 9.24987C6.81714 9.09561 7.09736 9.00152 7.42046 9.00152C8.6971 9.00152 9.2557 9.51745 9.5 10C9.5 9.5 10.6917 8.98047 11.1562 8.98047C11.9223 8.98047 12.4364 9.00201 13 9.46491V6H9.5C8.67157 6 8 5.32843 8 4.5Z" fill="#54B054"/>
<path d="M3.92406 10.2351C3.77771 10.0009 3.46923 9.92972 3.23507 10.0761C3.0009 10.2224 2.92971 10.5309 3.07607 10.7651L4.16044 12.5001L3.07607 14.2351C2.92971 14.4692 3.0009 14.7777 3.23507 14.9241C3.46923 15.0704 3.77771 14.9992 3.92406 14.7651L4.75007 13.4435L5.57607 14.7651C5.72242 14.9992 6.0309 15.0704 6.26507 14.9241C6.49923 14.7777 6.57042 14.4692 6.42406 14.2351L5.33969 12.5001L6.42406 10.7651C6.57042 10.5309 6.49923 10.2224 6.26507 10.0761C6.0309 9.92972 5.72242 10.0009 5.57607 10.2351L4.75007 11.5567L3.92406 10.2351Z" fill="#0C5E0C"/>
<path d="M8 10.5C8 10.2238 7.77614 10 7.5 10C7.22386 10 7 10.2238 7 10.5V14.5C7 14.7762 7.22386 15 7.5 15H9.5C9.77614 15 10 14.7762 10 14.5C10 14.2238 9.77614 14 9.5 14H8V10.5Z" fill="#0C5E0C"/>
<path d="M12.073 15H11.927C11.5486 14.9997 11.1858 14.8493 10.9183 14.5818C10.6507 14.3142 10.5003 13.9514 10.5 13.573C10.4987 13.4365 10.5499 13.3047 10.6429 13.2048C10.7359 13.1049 10.8638 13.0445 11 13.036C11.0637 13.0321 11.1275 13.0411 11.1875 13.0626C11.2476 13.084 11.3027 13.1175 11.3494 13.1609C11.3962 13.2043 11.4337 13.2567 11.4595 13.315C11.4854 13.3733 11.4992 13.4362 11.5 13.5C11.4928 13.5613 11.4983 13.6235 11.5163 13.6826C11.5342 13.7416 11.5642 13.7964 11.6043 13.8433C11.6444 13.8903 11.6937 13.9284 11.7493 13.9554C11.8048 13.9823 11.8653 13.9975 11.927 14H12.073C12.1863 14 12.2949 13.955 12.375 13.8749C12.455 13.7949 12.5 13.6862 12.5 13.573C12.5005 13.4938 12.4788 13.4161 12.4372 13.3488C12.3956 13.2814 12.336 13.2271 12.265 13.192L11.289 12.7C11.0033 12.5553 10.7746 12.3187 10.6397 12.0283C10.5047 11.7379 10.4714 11.4105 10.5451 11.0988C10.6187 10.7872 10.795 10.5093 11.0457 10.31C11.2964 10.1107 11.6068 10.0015 11.927 10H12.073C12.4514 10.0003 12.8142 10.1507 13.0818 10.4182C13.3493 10.6858 13.4998 11.0486 13.5 11.427C13.5013 11.5635 13.4502 11.6953 13.3571 11.7952C13.2641 11.8951 13.1363 11.9556 13 11.964C12.9364 11.9679 12.8726 11.9589 12.8125 11.9374C12.7524 11.916 12.6973 11.8825 12.6506 11.8391C12.6038 11.7957 12.5664 11.7433 12.5405 11.685C12.5146 11.6267 12.5008 11.5638 12.5 11.5V11.427C12.5 11.3138 12.455 11.2051 12.375 11.1251C12.2949 11.045 12.1863 11 12.073 11H11.927C11.8138 11 11.7052 11.045 11.6251 11.1251C11.545 11.2051 11.5 11.3138 11.5 11.427C11.4995 11.5062 11.5213 11.5839 11.5628 11.6512C11.6044 11.7186 11.6641 11.7729 11.735 11.808L12.711 12.297C12.9967 12.4417 13.2254 12.6783 13.3604 12.9687C13.4953 13.2592 13.5286 13.5865 13.455 13.8982C13.3813 14.2098 13.205 14.4877 12.9543 14.687C12.7037 14.8863 12.3933 14.9955 12.073 14.997V15Z" fill="#0C5E0C"/>
<path d="M3.92406 10.2351C3.77771 10.0009 3.46923 9.92972 3.23507 10.0761C3.0009 10.2224 2.92971 10.5309 3.07607 10.7651L4.16044 12.5001L3.07607 14.2351C2.92971 14.4692 3.0009 14.7777 3.23507 14.9241C3.46923 15.0704 3.77771 14.9992 3.92406 14.7651L4.75007 13.4435L5.57607 14.7651C5.72242 14.9992 6.0309 15.0704 6.26507 14.9241C6.49923 14.7777 6.57042 14.4692 6.42406 14.2351L5.33969 12.5001L6.42406 10.7651C6.57042 10.5309 6.49923 10.2224 6.26507 10.0761C6.0309 9.92972 5.72242 10.0009 5.57607 10.2351L4.75007 11.5567L3.92406 10.2351Z" fill="#0C5E0C"/>
<path d="M8 10.5C8 10.2238 7.77614 10 7.5 10C7.22386 10 7 10.2238 7 10.5V14.5C7 14.7762 7.22386 15 7.5 15H9.5C9.77614 15 10 14.7762 10 14.5C10 14.2238 9.77614 14 9.5 14H8V10.5Z" fill="#0C5E0C"/>
<path d="M12.073 15H11.927C11.5486 14.9997 11.1858 14.8493 10.9183 14.5818C10.6507 14.3142 10.5003 13.9514 10.5 13.573C10.4987 13.4365 10.5499 13.3047 10.6429 13.2048C10.7359 13.1049 10.8638 13.0445 11 13.036C11.0637 13.0321 11.1275 13.0411 11.1875 13.0626C11.2476 13.084 11.3027 13.1175 11.3494 13.1609C11.3962 13.2043 11.4337 13.2567 11.4595 13.315C11.4854 13.3733 11.4992 13.4362 11.5 13.5C11.4928 13.5613 11.4983 13.6235 11.5163 13.6826C11.5342 13.7416 11.5642 13.7964 11.6043 13.8433C11.6444 13.8903 11.6937 13.9284 11.7493 13.9554C11.8048 13.9823 11.8653 13.9975 11.927 14H12.073C12.1863 14 12.2949 13.955 12.375 13.8749C12.455 13.7949 12.5 13.6862 12.5 13.573C12.5005 13.4938 12.4788 13.4161 12.4372 13.3488C12.3956 13.2814 12.336 13.2271 12.265 13.192L11.289 12.7C11.0033 12.5553 10.7746 12.3187 10.6397 12.0283C10.5047 11.7379 10.4714 11.4105 10.5451 11.0988C10.6187 10.7872 10.795 10.5093 11.0457 10.31C11.2964 10.1107 11.6068 10.0015 11.927 10H12.073C12.4514 10.0003 12.8142 10.1507 13.0818 10.4182C13.3493 10.6858 13.4998 11.0486 13.5 11.427C13.5013 11.5635 13.4502 11.6953 13.3571 11.7952C13.2641 11.8951 13.1363 11.9556 13 11.964C12.9364 11.9679 12.8726 11.9589 12.8125 11.9374C12.7524 11.916 12.6973 11.8825 12.6506 11.8391C12.6038 11.7957 12.5664 11.7433 12.5405 11.685C12.5146 11.6267 12.5008 11.5638 12.5 11.5V11.427C12.5 11.3138 12.455 11.2051 12.375 11.1251C12.2949 11.045 12.1863 11 12.073 11H11.927C11.8138 11 11.7052 11.045 11.6251 11.1251C11.545 11.2051 11.5 11.3138 11.5 11.427C11.4995 11.5062 11.5213 11.5839 11.5628 11.6512C11.6044 11.7186 11.6641 11.7729 11.735 11.808L12.711 12.297C12.9967 12.4417 13.2254 12.6783 13.3604 12.9687C13.4953 13.2592 13.5286 13.5865 13.455 13.8982C13.3813 14.2098 13.205 14.4877 12.9543 14.687C12.7037 14.8863 12.3933 14.9955 12.073 14.997V15Z" fill="#0C5E0C"/>
<path d="M9 4.5V1.25L12.75 5H9.5C9.22386 5 9 4.77614 9 4.5Z" fill="#0C5E0C"/>
</svg>
