<svg width="16" height="16" viewBox="0 0 16 16" fill="none" xmlns="http://www.w3.org/2000/svg">
<path d="M4 5.00488C4 4.4526 4.44772 4.00488 5 4.00488H8C8.55228 4.00488 9 4.4526 9 5.00488H4Z" fill="#5CAAE5"/>
<path fill-rule="evenodd" clip-rule="evenodd" d="M6.99111 9.95167L6.27271 10.6701C6.17222 10.7706 6.0789 10.8773 5.9932 10.9894C5.9303 10.9996 5.86577 11.0049 5.8 11.0049H3.2C2.53726 11.0049 2 10.4676 2 9.80488V7.20488C2 6.54214 2.53726 6.00488 3.2 6.00488H5.8C6.46274 6.00488 7 6.54214 7 7.20488V9.80488C7 9.85458 6.99698 9.90356 6.99111 9.95167Z" fill="#5CAAE5"/>
<path fill-rule="evenodd" clip-rule="evenodd" d="M10.9379 6.00488H9C8.44772 6.00488 8 6.4526 8 7.00488V8.94278L10.9379 6.00488Z" fill="#5CAAE5"/>
<path fill-rule="evenodd" clip-rule="evenodd" d="M10 5.00488C10 4.4526 10.4477 4.00488 11 4.00488H12C13.0437 4.00488 13.9629 4.53787 14.5003 5.34651C13.8849 5.0124 13.1731 4.91991 12.5043 5.06902C12.3432 5.02716 12.1742 5.00488 12 5.00488H10Z" fill="#5CAAE5"/>
<path fill-rule="evenodd" clip-rule="evenodd" d="M11.8092 6.54776L6.97975 11.3772C6.69818 11.6588 6.49842 12.0116 6.40184 12.3979L6.02737 13.8958C5.86451 14.5472 6.45456 15.1372 7.10597 14.9744L8.60387 14.5999C8.99019 14.5033 9.343 14.3036 9.62457 14.022L14.454 9.19258C15.1843 8.46223 15.1843 7.27811 14.454 6.54776C13.7237 5.81741 12.5395 5.81741 11.8092 6.54776Z" fill="#0078D4"/>
</svg>
