<svg width="16" height="16" viewBox="0 0 16 16" fill="none" xmlns="http://www.w3.org/2000/svg">
<path d="M15.4996 10C15.4996 12.2091 13.7088 14 11.4996 14C9.2905 14 7.49963 12.2091 7.49963 10C7.49963 7.79086 9.2905 6 11.4996 6C13.7088 6 15.4996 7.79086 15.4996 10ZM13.1472 8.98094C13.3208 8.80737 13.3208 8.52596 13.1472 8.3524C12.9737 8.17883 12.6923 8.17883 12.5187 8.3524L11.4996 9.37146L10.4806 8.3524C10.307 8.17883 10.0256 8.17883 9.85203 8.3524C9.67846 8.52596 9.67846 8.80737 9.85203 8.98094L10.8711 10L9.85203 11.0191C9.67846 11.1926 9.67846 11.474 9.85203 11.6476C10.0256 11.8212 10.307 11.8212 10.4806 11.6476L11.4996 10.6285L12.5187 11.6476C12.6923 11.8212 12.9737 11.8212 13.1472 11.6476C13.3208 11.474 13.3208 11.1926 13.1472 11.0191L12.1282 10L13.1472 8.98094Z" fill="#BC2F32"/>
<path d="M5.4131 2.64005C5.89023 1.78655 7.11842 1.78668 7.59538 2.64027L9.22039 5.54843C8.25893 6.04168 7.47815 6.83726 7.00354 7.80967V5.50195C7.00354 5.22581 6.77968 5.00195 6.50354 5.00195C6.2274 5.00195 6.00354 5.22581 6.00354 5.50195V8.00195C6.00354 8.2781 6.2274 8.50195 6.50354 8.50195C6.59247 8.50195 6.67598 8.47874 6.74833 8.43803C6.6366 8.77812 6.56036 9.13431 6.524 9.50223C6.5172 9.50204 6.51038 9.50195 6.50354 9.50195C6.08933 9.50195 5.75354 9.83774 5.75354 10.252C5.75354 10.6662 6.08933 11.002 6.50354 11.002C6.53579 11.002 6.56757 10.9999 6.59875 10.996C6.74856 11.7371 7.06229 12.4188 7.50047 13.0017H1.75144C0.79687 13.0017 0.194566 11.975 0.660361 11.1417L5.4131 2.64005Z" fill="#E37D80"/>
</svg>
