<svg width="16" height="16" viewBox="0 0 16 16" fill="none" xmlns="http://www.w3.org/2000/svg">
<path d="M14.9282 7.40796H8.32308V9.28856H12.9898C12.7743 11.9353 10.477 13.0497 8.32308 13.0497C5.59487 13.0497 3.15385 10.9602 3.15385 7.96517C3.15385 5.10946 5.45128 2.88059 8.32308 2.88059C10.5487 2.88059 11.841 4.27363 11.841 4.27363L13.2051 2.88059C13.2051 2.88059 11.4821 1 8.25128 1C4.15898 1.06965 1 4.41294 1 8.03482C1 11.5174 3.94359 15 8.32308 15C12.2 15 15 12.4229 15 8.66169C15 7.89552 14.9282 7.40796 14.9282 7.40796Z" fill="black"/>
</svg>
