<svg width="16" height="16" viewBox="0 0 16 16" fill="none" xmlns="http://www.w3.org/2000/svg">
<path fill-rule="evenodd" clip-rule="evenodd" d="M1.14645 10.1464C1.24021 10.0527 1.36739 10 1.5 10C2.35243 10 3.00863 10.2583 3.44095 10.759C3.86143 11.246 4 11.8824 4 12.5C4 13.1176 3.86143 13.754 3.44095 14.241C3.00863 14.7417 2.35244 15 1.5 15C1.22386 15 1 14.7761 1 14.5V10.5007C1 10.368 1.05268 10.2402 1.14645 10.1464ZM2 11.0459L2 13.9541C2.33821 13.8847 2.54852 13.7444 2.68405 13.5874C2.88857 13.3506 3 12.987 3 12.5C3 12.013 2.88857 11.6494 2.68405 11.4126C2.54852 11.2556 2.33821 11.1153 2 11.0459Z" fill="#005BA1"/>
<path d="M12.4241 10.2351C12.2777 10.0009 11.9692 9.92971 11.7351 10.0761C11.5009 10.2224 11.4297 10.5309 11.5761 10.7651L12.6604 12.5001L11.5761 14.2351C11.4297 14.4692 11.5009 14.7777 11.7351 14.9241C11.9692 15.0704 12.2777 14.9992 12.4241 14.7651L13.2501 13.4435L14.0761 14.7651C14.2224 14.9992 14.5309 15.0704 14.7651 14.9241C14.9992 14.7777 15.0704 14.4692 14.9241 14.2351L13.8397 12.5001L14.9241 10.7651C15.0704 10.5309 14.9992 10.2224 14.7651 10.0761C14.5309 9.92971 14.2224 10.0009 14.0761 10.2351L13.2501 11.5567L12.4241 10.2351Z" fill="#005BA1"/>
<path fill-rule="evenodd" clip-rule="evenodd" d="M6.00003 10C5.67528 10 5.37707 10.0734 5.12984 10.2513C4.88265 10.4292 4.73812 10.6744 4.65243 10.9226C4.49954 11.3652 4.49979 11.9373 4.50002 12.4427V12.5573C4.49979 13.0627 4.49954 13.6348 4.65243 14.0774C4.73812 14.3256 4.88265 14.5708 5.12984 14.7487C5.37707 14.9266 5.67528 15 6.00003 15C6.32479 15 6.623 14.9266 6.87023 14.7487C7.11742 14.5708 7.26195 14.3256 7.34764 14.0774C7.50053 13.6348 7.50027 13.0627 7.50005 12.5573V12.4427C7.50027 11.9373 7.50053 11.3652 7.34764 10.9226C7.26195 10.6744 7.11742 10.4292 6.87023 10.2513C6.623 10.0734 6.32479 10 6.00003 10ZM5.50003 12.5C5.50003 11.9145 5.50633 11.5134 5.59764 11.249C5.63695 11.1352 5.67992 11.0875 5.71398 11.063C5.748 11.0385 5.82479 11 6.00003 11C6.17528 11 6.25207 11.0385 6.28609 11.063C6.32015 11.0875 6.36312 11.1352 6.40243 11.249C6.49374 11.5134 6.50003 11.9145 6.50003 12.5C6.50003 13.0855 6.49374 13.4866 6.40243 13.751C6.36312 13.8648 6.32015 13.9125 6.28609 13.937C6.25207 13.9615 6.17528 14 6.00003 14C5.82479 14 5.748 13.9615 5.71398 13.937C5.67992 13.9125 5.63695 13.8648 5.59764 13.751C5.50633 13.4866 5.50003 13.0855 5.50003 12.5Z" fill="#005BA1"/>
<path d="M8.43934 14.5607C8.72064 14.842 9.10217 15 9.5 15C9.89783 15 10.2794 14.842 10.5607 14.5607C10.842 14.2794 11 13.8978 11 13.5C11 13.3674 10.9473 13.2402 10.8536 13.1464C10.7598 13.0527 10.6326 13 10.5 13C10.3674 13 10.2402 13.0527 10.1464 13.1464C10.0527 13.2402 10 13.3674 10 13.5C10 13.6326 9.94732 13.7598 9.85355 13.8536C9.75979 13.9473 9.63261 14 9.5 14C9.36739 14 9.24021 13.9473 9.14645 13.8536C9.05268 13.7598 9 13.6326 9 13.5V11.5C9 11.3674 9.05268 11.2402 9.14645 11.1464C9.24021 11.0527 9.36739 11 9.5 11C9.63261 11 9.75979 11.0527 9.85355 11.1464C9.94732 11.2402 10 11.3674 10 11.5C10 11.6326 10.0527 11.7598 10.1464 11.8536C10.2402 11.9473 10.3674 12 10.5 12C10.6326 12 10.7598 11.9473 10.8536 11.8536C10.9473 11.7598 11 11.6326 11 11.5C11 11.1022 10.842 10.7206 10.5607 10.4393C10.2794 10.158 9.89783 10 9.5 10C9.10217 10 8.72064 10.158 8.43934 10.4393C8.15803 10.7206 8 11.1022 8 11.5V13.5C8 13.8978 8.15803 14.2794 8.43934 14.5607Z" fill="#005BA1"/>
<path fill-rule="evenodd" clip-rule="evenodd" d="M8 4.5V1H4.5C3.67157 1 3 1.67157 3 2.5V9.27974C3.15504 9.34226 3.31318 9.41958 3.47017 9.51512C3.67835 9.64181 3.87067 9.79188 4.04365 9.96491C4.1492 9.81929 4.27767 9.67745 4.43431 9.54775C4.89967 9.16244 5.45686 9.01342 5.99996 9.01342C6.54305 9.01342 7.10024 9.16244 7.56561 9.54775C7.62976 9.60087 7.68918 9.65602 7.74423 9.71263C8.22454 9.25594 8.86838 9.01616 9.46244 9.00129C9.95315 8.98901 10.4894 9.11656 10.9539 9.43789C11.0289 9.36509 11.1127 9.29906 11.205 9.24142C11.7843 8.87933 12.5153 8.96109 13 9.39489V6H9.5C8.67157 6 8 5.32843 8 4.5Z" fill="#5CAAE5"/>
<path d="M9 4.5V1.25L12.75 5H9.5C9.22386 5 9 4.77614 9 4.5Z" fill="#005BA1"/>
</svg>
