<svg width="16" height="16" viewBox="0 0 16 16" fill="none" xmlns="http://www.w3.org/2000/svg">
<path fill-rule="evenodd" clip-rule="evenodd" d="M5 2H4.5C3.11929 2 2 3.11929 2 4.5V6.25716C2.95094 5.47182 4.17037 5 5.5 5C8.53757 5 11 7.46243 11 10.5C11 10.8679 10.9639 11.2273 10.895 11.5749C11.5616 11.1259 12 10.3641 12 9.5V5H6.5C5.67157 5 5 4.32843 5 3.5V2ZM11.95 4C11.7184 2.85888 10.7095 2 9.5 2H6V3.5C6 3.77614 6.22386 4 6.5 4H11.95Z" fill="#E37D80"/>
<path fill-rule="evenodd" clip-rule="evenodd" d="M9.7422 14.0008H9.99867C12.2078 14.0008 13.9987 12.2099 13.9987 10.0008V6.50077C13.9987 5.68368 13.6067 4.95814 13.0005 4.50195V9.50019C13.0005 9.53821 12.9999 9.57609 12.9987 9.61383V10.0008C12.9987 11.5166 11.8745 12.7698 10.4144 12.9722C10.2286 13.3407 10.0027 13.6855 9.7422 14.0008Z" fill="#E37D80"/>
<path fill-rule="evenodd" clip-rule="evenodd" d="M5.5 15C7.98528 15 10 12.9853 10 10.5C10 8.01472 7.98528 6 5.5 6C3.01472 6 1 8.01472 1 10.5C1 12.9853 3.01472 15 5.5 15ZM7.35355 8.64645C7.54882 8.84171 7.54882 9.15829 7.35355 9.35355L6.20711 10.5L7.35355 11.6464C7.54882 11.8417 7.54882 12.1583 7.35355 12.3536C7.15829 12.5488 6.84171 12.5488 6.64645 12.3536L5.5 11.2071L4.35355 12.3536C4.15829 12.5488 3.84171 12.5488 3.64645 12.3536C3.45118 12.1583 3.45118 11.8417 3.64645 11.6464L4.79289 10.5L3.64645 9.35355C3.45118 9.15829 3.45118 8.84171 3.64645 8.64645C3.84171 8.45118 4.15829 8.45118 4.35355 8.64645L5.5 9.79289L6.64645 8.64645C6.84171 8.45118 7.15829 8.45118 7.35355 8.64645Z" fill="#D13438"/>
</svg>
