<svg width="16" height="16" viewBox="0 0 16 16" fill="none" xmlns="http://www.w3.org/2000/svg">
<path d="M2.562 11.71C2.66791 11.8882 2.86105 12.0007 3.06977 12.0007L12.1471 12.0007L4.22837 4.05566C3.72371 4.80578 3.42466 5.71218 3.42466 6.68733V9.06584L2.55577 11.1162C2.45297 11.3006 2.45608 11.5256 2.562 11.71Z" fill="#FAA06B"/>
<path d="M6.06177 12.9927C6.21605 13.8463 7.02688 14.4956 8.00183 14.4956C8.97679 14.4956 9.78761 13.8463 9.94189 12.9927H6.06177Z" fill="#FAA06B"/>
<path fill-rule="evenodd" clip-rule="evenodd" d="M1.14964 1.14435C0.954299 1.33954 0.954174 1.65612 1.14936 1.85146L14.1433 14.8556C14.3384 15.051 14.655 15.0511 14.8504 14.8559C15.0457 14.6607 15.0458 14.3441 14.8506 14.1488L1.85674 1.14463C1.66156 0.949294 1.34498 0.949169 1.14964 1.14435Z" fill="#DE590B"/>
<path d="M13.4995 11.3643C13.4951 11.3495 13.49 11.3348 13.4842 11.3203L12.5199 8.90726V6.50586C12.5199 4.02058 10.5052 2.00586 8.01991 2.00586C6.93543 2.00586 5.94055 2.38948 5.16357 3.02843L13.4995 11.3643Z" fill="#FAA06B"/>
</svg>
