<svg width="16" height="16" viewBox="0 0 16 16" fill="none" xmlns="http://www.w3.org/2000/svg">
<path fill-rule="evenodd" clip-rule="evenodd" d="M4.29395 4.29394C2.94602 4.86304 2 6.19719 2 7.7523C2 9.82463 3.67996 11.5046 5.7523 11.5046H6.25L6.35177 11.4977C6.71785 11.4481 7 11.1343 7 10.7546C7 10.3404 6.66421 10.0046 6.25 10.0046H5.7523L5.59809 9.99939C4.42611 9.92015 3.5 8.94437 3.5 7.7523C3.5 6.58935 4.3814 5.63226 5.51262 5.5126L4.29395 4.29394ZM7.00002 7H5.75L5.64823 7.00685C5.28215 7.05651 5 7.3703 5 7.75C5 8.16421 5.33579 8.5 5.75 8.5H8.50002L7.00002 7ZM10.5562 8.43485L9.12134 7H10.25C10.6642 7 11 7.33579 11 7.75C11 8.05515 10.8178 8.31773 10.5562 8.43485ZM10.0023 10.0023L9.74333 10.0046L9.64162 10.0124C9.276 10.0653 8.99665 10.3816 8.99997 10.7613C9.00371 11.1755 9.34247 11.5082 9.75667 11.5046L10.2729 11.5L10.4706 11.4948C10.7722 11.4789 11.0644 11.4268 11.3429 11.3429L10.0023 10.0023ZM12.7087 10.5874L11.6431 9.5218C12.1647 9.11008 12.5 8.46975 12.5 7.75C12.5 6.55827 11.5807 5.58428 10.419 5.50519L10.2662 5.5H9.75C9.33579 5.5 8.99997 5.16421 8.99997 4.75C8.99997 4.3703 9.28215 4.05651 9.64823 4.00685L9.75 4H10.2662C12.3292 4 14 5.67984 14 7.75C14 8.88329 13.4993 9.8996 12.7087 10.5874ZM6.99057 4.86924L6.12134 4H6.25C6.66421 4 7 4.33579 7 4.75C7 4.79058 6.99678 4.83041 6.99057 4.86924Z" fill="#C6B1DE"/>
<path fill-rule="evenodd" clip-rule="evenodd" d="M14.1464 14.8536L1.14645 1.85355C0.951184 1.65829 0.951184 1.34171 1.14645 1.14645C1.34171 0.951184 1.65829 0.951184 1.85355 1.14645L14.8536 14.1464C15.0488 14.3417 15.0488 14.6583 14.8536 14.8536C14.6583 15.0488 14.3417 15.0488 14.1464 14.8536Z" fill="#7C52AB"/>
</svg>
