<svg width="16" height="16" viewBox="0 0 16 16" fill="none" xmlns="http://www.w3.org/2000/svg">
<path d="M14.4996 10C14.4996 12.4853 12.4849 14.5 9.99963 14.5C7.51435 14.5 5.49963 12.4853 5.49963 10C5.49963 7.51472 7.51435 5.5 9.99963 5.5C12.4849 5.5 14.4996 7.51472 14.4996 10ZM11.8532 8.85355C12.0484 8.65829 12.0484 8.34171 11.8532 8.14645C11.6579 7.95118 11.3413 7.95118 11.1461 8.14645L9.99963 9.29289L8.85319 8.14645C8.65792 7.95118 8.34134 7.95118 8.14608 8.14645C7.95082 8.34171 7.95082 8.65829 8.14608 8.85355L9.29253 10L8.14608 11.1464C7.95082 11.3417 7.95082 11.6583 8.14608 11.8536C8.34134 12.0488 8.65792 12.0488 8.85319 11.8536L9.99963 10.7071L11.1461 11.8536C11.3413 12.0488 11.6579 12.0488 11.8532 11.8536C12.0484 11.6583 12.0485 11.3417 11.8532 11.1464L10.7067 10L11.8532 8.85355Z" fill="#DE590B"/>
<path d="M3.21392 1.5C2.26715 1.5 1.49963 2.26751 1.49963 3.21429V11.7857C1.49963 12.7325 2.26715 13.5 3.21392 13.5L3.21392 8.78572C3.21392 8.07563 3.78955 7.5 4.49963 7.5H5.09934C5.43654 6.84037 5.90301 6.25781 6.46534 5.78572H5.35678C4.6467 5.78572 4.07106 5.21008 4.07106 4.5L4.07106 1.5H3.21392Z" fill="#FAA06B"/>
<path d="M9.21027 4.55622C8.7409 4.62368 8.29067 4.75041 7.86742 4.92857L5.35678 4.92857C5.12008 4.92857 4.92821 4.73669 4.92821 4.5V1.5H9.21392V4.5C9.21392 4.51906 9.21268 4.53782 9.21027 4.55622Z" fill="#FAA06B"/>
<path d="M10.0711 4.50045C11.3729 4.51702 12.5657 4.9859 13.4996 5.75716V4.60399C13.4996 4.14933 13.319 3.7133 12.9975 3.39181L11.6078 2.0021C11.2863 1.68061 10.8503 1.5 10.3956 1.5H10.0711V4.50045C10.0711 4.50061 10.0711 4.5003 10.0711 4.50045Z" fill="#FAA06B"/>
<path d="M4.74919 8.35714C4.58702 8.87594 4.49963 9.42776 4.49963 10C4.49963 11.3296 4.97145 12.5491 5.7568 13.5H4.07106V8.78571C4.07106 8.54902 4.26294 8.35714 4.49963 8.35714H4.74919Z" fill="#FAA06B"/>
</svg>
