<svg width="16" height="16" viewBox="0 0 16 16" fill="none" xmlns="http://www.w3.org/2000/svg">
<path fill-rule="evenodd" clip-rule="evenodd" d="M9.5 2H6.5C6.22386 2 6 2.22386 6 2.5C6 2.77614 6.22386 3 6.5 3H9.5C9.77614 3 10 2.77614 10 2.5C10 2.22386 9.77614 2 9.5 2ZM6.5 1C5.67157 1 5 1.67157 5 2.5C5 3.32843 5.67157 4 6.5 4H9.5C10.3284 4 11 3.32843 11 2.5C11 1.67157 10.3284 1 9.5 1H6.5Z" fill="#7C52AB"/>
<path fill-rule="evenodd" clip-rule="evenodd" d="M5 2.5C5 2.32468 5.03008 2.15639 5.08535 2H4.5C3.67157 2 3 2.67157 3 3.5V13.5C3 14.3284 3.67157 15 4.5 15H5.22133C5.01164 14.6097 4.93571 14.1395 5.05728 13.6532L5.43176 12.1554C5.57229 11.5932 5.86295 11.0798 6.27271 10.6701L11.1021 5.84065C11.6291 5.31371 12.3099 5.03449 13 5.003V3.5C13 2.67157 12.3284 2 11.5 2H10.9146C10.9699 2.15639 11 2.32468 11 2.5C11 3.32843 10.3284 4 9.5 4H6.5C5.67157 4 5 3.32843 5 2.5ZM13 12.0609L10.3317 14.7291C10.2346 14.8262 10.1317 14.9167 10.0236 15H11.5C12.3284 15 13 14.3284 13 13.5V12.0609Z" fill="#C6B1DE"/>
<path fill-rule="evenodd" clip-rule="evenodd" d="M11.8092 6.54776L6.97975 11.3772C6.69818 11.6588 6.49842 12.0116 6.40184 12.3979L6.02737 13.8958C5.86451 14.5472 6.45456 15.1372 7.10597 14.9744L8.60387 14.5999C8.99019 14.5033 9.343 14.3036 9.62457 14.022L14.454 9.19258C15.1843 8.46223 15.1843 7.27811 14.454 6.54776C13.7237 5.81741 12.5395 5.81741 11.8092 6.54776Z" fill="#7C52AB"/>
</svg>
