<svg width="16" height="16" viewBox="0 0 16 16" fill="none" xmlns="http://www.w3.org/2000/svg">
<path fill-rule="evenodd" clip-rule="evenodd" d="M2.5 15C2.10218 15 1.72065 14.8419 1.43934 14.5606C1.15804 14.2794 1 13.8978 1 13.5V11.5C1 11.1022 1.15804 10.7206 1.43934 10.4393C1.72065 10.158 2.10218 10 2.5 10C2.89782 10 3.27935 10.158 3.56066 10.4393C3.84196 10.7206 4 11.1022 4 11.5C4 11.6326 3.94732 11.7598 3.85355 11.8535C3.75978 11.9473 3.63261 12 3.5 12C3.36739 12 3.24022 11.9473 3.14645 11.8535C3.05268 11.7598 3 11.6326 3 11.5C3 11.3674 2.94732 11.2402 2.85355 11.1465C2.75978 11.0527 2.63261 11 2.5 11C2.36739 11 2.24022 11.0527 2.14645 11.1465C2.05268 11.2402 2 11.3674 2 11.5V13.5C2 13.6326 2.05268 13.7598 2.14645 13.8535C2.24022 13.9473 2.36739 14 2.5 14C2.63261 14 2.75978 13.9473 2.85355 13.8535C2.94732 13.7598 3 13.6326 3 13.5C3 13.3674 3.05268 13.2402 3.14645 13.1465C3.24022 13.0527 3.36739 13 3.5 13C3.63261 13 3.75978 13.0527 3.85355 13.1465C3.94732 13.2402 4 13.3674 4 13.5C4 13.8978 3.84196 14.2794 3.56066 14.5606C3.27935 14.8419 2.89782 15 2.5 15ZM6.42702 15H6.57302C6.89434 14.9998 7.20619 14.8912 7.45809 14.6917C7.70998 14.4922 7.88718 14.2135 7.96099 13.9008C8.03481 13.5881 8.00092 13.2596 7.86481 12.9685C7.7287 12.6775 7.49834 12.4409 7.21103 12.297L6.23502 11.808C6.16406 11.7729 6.1044 11.7186 6.06284 11.6512C6.02129 11.5839 5.99952 11.5062 6.00002 11.427C6.00002 11.3138 6.04501 11.2051 6.12509 11.1251C6.20517 11.045 6.31378 11 6.42702 11H6.57302C6.68627 11 6.79488 11.045 6.87496 11.1251C6.95504 11.2051 7.00002 11.3138 7.00002 11.427V11.5C7.00085 11.5638 7.01462 11.6267 7.0405 11.685C7.06639 11.7433 7.10384 11.7957 7.1506 11.8391C7.19735 11.8825 7.25243 11.916 7.3125 11.9374C7.37256 11.9589 7.43636 11.9679 7.50002 11.964C7.63628 11.9555 7.7641 11.8951 7.85714 11.7952C7.95016 11.6953 8.00131 11.5635 8.00002 11.427C7.99976 11.0486 7.84933 10.6858 7.58177 10.4182C7.31422 10.1507 6.95141 10.0003 6.57302 10H6.42702C6.10678 10.0015 5.79637 10.1107 5.5457 10.31C5.29504 10.5093 5.11871 10.7872 5.04506 11.0988C4.97142 11.4105 5.00475 11.7379 5.13969 12.0283C5.27463 12.3187 5.50334 12.5553 5.78902 12.7L6.76503 13.192C6.83599 13.2271 6.89565 13.2814 6.93721 13.3488C6.97876 13.4161 7.00053 13.4938 7.00002 13.573C7.00002 13.6862 6.95504 13.7949 6.87496 13.8749C6.79488 13.955 6.68627 14 6.57302 14H6.42702C6.36538 13.9974 6.30494 13.9821 6.24948 13.9551C6.19401 13.928 6.1447 13.8899 6.10464 13.843C6.06457 13.7961 6.0346 13.7414 6.01661 13.6824C5.9986 13.6234 5.99296 13.5613 6.00002 13.5C5.9992 13.4362 5.98542 13.3733 5.95954 13.315C5.93366 13.2567 5.89621 13.2043 5.84945 13.1609C5.8027 13.1175 5.74762 13.084 5.68755 13.0626C5.62749 13.0411 5.56369 13.0321 5.50002 13.036C5.36377 13.0444 5.23594 13.1049 5.14291 13.2048C5.04988 13.3047 4.99874 13.4365 5.00002 13.573C5.00029 13.9514 5.15072 14.3142 5.41827 14.5817C5.68583 14.8493 6.04864 14.9997 6.42702 15ZM10.2501 15.0004C10.4688 15.0004 10.6621 14.8583 10.7274 14.6495L11.9774 10.6495C12.0597 10.386 11.9128 10.1055 11.6493 10.0232C11.3857 9.9408 11.1053 10.0877 11.0229 10.3513L10.2501 12.8241L9.47738 10.3513C9.39501 10.0877 9.11457 9.9408 8.851 10.0232C8.58743 10.1055 8.44053 10.386 8.5229 10.6495L9.7729 14.6495C9.83813 14.8583 10.0314 15.0004 10.2501 15.0004Z" fill="#0E700E"/>
<path fill-rule="evenodd" clip-rule="evenodd" d="M9 4.5V1H5.5C4.67157 1 4 1.67157 4 2.5V9.50409C4.18539 9.63831 4.35515 9.7993 4.50009 9.98673C4.98912 9.35435 5.76057 9.02277 6.46249 9.0052C6.95319 8.99292 7.4894 9.12046 7.95395 9.44177C8.12495 9.27516 8.33831 9.14706 8.58371 9.07616C9.22884 8.88979 9.89743 9.15595 10.25 9.68735C10.5962 9.1658 11.2482 8.89766 11.8865 9.06788C12.687 9.28134 13.1628 10.1033 12.9494 10.9037L11.9349 14.708C11.9073 14.8117 11.8722 14.909 11.8306 15H12.5C13.3284 15 14 14.3284 14 13.5V6H10.5C9.67157 6 9 5.32843 9 4.5Z" fill="#54B054"/>
<path d="M10 4.5V1.25L13.75 5H10.5C10.2239 5 10 4.77614 10 4.5Z" fill="#0E700E"/>
</svg>
