<svg width="16" height="16" viewBox="0 0 16 16" fill="none" xmlns="http://www.w3.org/2000/svg">
<path d="M8 4.42993V0.929932H4.5C3.67157 0.929932 3 1.6015 3 2.42993V8.92993H4.00434C4.40403 8.9326 4.792 9.05562 5.12035 9.28028C5.27758 9.38787 5.41741 9.51662 5.53656 9.662C5.58234 9.4974 5.66996 9.34576 5.79289 9.22282C5.98043 9.03529 6.23478 8.92993 6.5 8.92993H9.5C9.76522 8.92993 10.0196 9.03529 10.2071 9.22282C10.2219 9.23764 10.2362 9.25286 10.25 9.26848C10.4332 9.06087 10.7013 8.92993 11 8.92993H13V5.92993H9.5C8.67157 5.92993 8 5.25836 8 4.42993Z" fill="#C6B1DE"/>
<path d="M9 4.42993V1.17993L12.75 4.92993H9.5C9.22386 4.92993 9 4.70607 9 4.42993Z" fill="#7C52AB"/>
<path fill-rule="evenodd" clip-rule="evenodd" d="M5.522 13.7902C5.428 13.3412 5.259 12.9112 5.022 12.5182C5.239 12.3122 5.389 12.0462 5.454 11.7542C5.519 11.4622 5.494 11.1572 5.385 10.8792C5.275 10.6012 5.085 10.3622 4.838 10.1932C4.591 10.0242 4.3 9.93217 4.001 9.93018H3C2.867 9.93018 2.74 9.98317 2.646 10.0762C2.552 10.1702 2.5 10.2972 2.5 10.4302V14.4302C2.5 14.5632 2.553 14.6902 2.646 14.7842C2.74 14.8782 2.867 14.9302 3 14.9302C3.133 14.9302 3.26 14.8772 3.354 14.7842C3.448 14.6902 3.5 14.5632 3.5 14.4302V12.9302H4C4.27321 12.9302 4.45823 13.6602 4.54924 14.0193L4.552 14.0302L4.55234 14.0315C4.66223 14.4721 4.77649 14.9302 5.252 14.9302C5.352 14.9302 5.45 14.9002 5.532 14.8432C5.615 14.7872 5.679 14.7072 5.716 14.6142C5.753 14.5212 5.761 14.4192 5.74 14.3222C5.718 14.2242 5.668 14.1352 5.596 14.0672C5.5771 14.012 5.56048 13.9436 5.54183 13.8669C5.53928 13.8564 5.53646 13.8455 5.53361 13.8347L5.53142 13.8264C5.52826 13.8145 5.52506 13.8024 5.522 13.7902ZM4 11.9302H3.5V10.9302H4C4.27614 10.9302 4.5 11.154 4.5 11.4302C4.5 11.7063 4.27614 11.9302 4 11.9302Z" fill="#7C52AB"/>
<path d="M10 10.4302C10 10.5628 9.94732 10.69 9.85355 10.7837C9.75979 10.8775 9.63261 10.9302 9.5 10.9302H8.5V14.4302C8.5 14.5628 8.44732 14.69 8.35355 14.7837C8.25979 14.8775 8.13261 14.9302 8 14.9302C7.86739 14.9302 7.74021 14.8775 7.64645 14.7837C7.55268 14.69 7.5 14.5628 7.5 14.4302V10.9302H6.5C6.36739 10.9302 6.24021 10.8775 6.14645 10.7837C6.05268 10.69 6 10.5628 6 10.4302C6 10.2976 6.05268 10.1704 6.14645 10.0766C6.24021 9.98285 6.36739 9.93018 6.5 9.93018H9.5C9.63261 9.93018 9.75979 9.98285 9.85355 10.0766C9.94732 10.1704 10 10.2976 10 10.4302Z" fill="#7C52AB"/>
<path d="M11 9.93018C10.7239 9.93018 10.5 10.154 10.5 10.4302V14.4302C10.5 14.7063 10.7239 14.9302 11 14.9302C11.2761 14.9302 11.5 14.7063 11.5 14.4302V12.9302H13C13.2761 12.9302 13.5 12.7063 13.5 12.4302C13.5 12.154 13.2761 11.9302 13 11.9302H11.5V10.9302H13C13.2761 10.9302 13.5 10.7063 13.5 10.4302C13.5 10.154 13.2761 9.93018 13 9.93018H11Z" fill="#7C52AB"/>
</svg>
