<svg width="16" height="16" viewBox="0 0 16 16" fill="none" xmlns="http://www.w3.org/2000/svg">
<path d="M5.41016 2.63995C5.88702 1.78659 7.11451 1.78671 7.5912 2.64017L9.1734 5.47291C8.23092 5.96914 7.4662 6.75751 6.99969 7.71759V5.50142C6.99969 5.22532 6.77596 5.00149 6.49998 5.00149C6.22399 5.00149 6.00027 5.22532 6.00027 5.50142V8.00103C6.00027 8.27713 6.22399 8.50095 6.49998 8.50095C6.57571 8.50095 6.6475 8.4841 6.71181 8.45394C6.61062 8.78943 6.54373 9.13979 6.51521 9.50095C6.51014 9.50085 6.50507 9.5008 6.49998 9.5008C6.086 9.5008 5.75041 9.83654 5.75041 10.2507C5.75041 10.6648 6.086 11.0006 6.49998 11.0006C6.54046 11.0006 6.58019 10.9974 6.61893 10.9912C6.78501 11.7373 7.11781 12.4206 7.57622 13H1.7506C0.796578 13 0.194618 11.9734 0.660147 11.1403L5.41016 2.63995Z" fill="#E37D80"/>
<path fill-rule="evenodd" clip-rule="evenodd" d="M15.4777 9.80342C15.4919 9.84976 15.4995 9.89896 15.4995 9.94995C15.4995 12.1591 13.7087 13.95 11.4995 13.95C9.29037 13.95 7.49951 12.1591 7.49951 9.94995C7.49951 7.74081 9.29037 5.94995 11.4995 5.94995C12.3333 5.94995 13.1084 6.20554 13.7495 6.64236V6.19995C13.7495 5.92381 13.9734 5.69995 14.2495 5.69995C14.5257 5.69995 14.7495 5.92381 14.7495 6.19995V7.94995C14.7495 8.22609 14.5257 8.44995 14.2495 8.44995H12.4995C12.2234 8.44995 11.9995 8.22609 11.9995 7.94995C11.9995 7.67381 12.2234 7.44995 12.4995 7.44995H13.1585C12.6834 7.1339 12.1134 6.94995 11.4995 6.94995C9.84266 6.94995 8.49951 8.2931 8.49951 9.94995C8.49951 11.6068 9.84266 12.95 11.4995 12.95C13.1564 12.95 14.4995 11.6068 14.4995 9.94995C14.4995 9.67381 14.7234 9.44995 14.9995 9.44995C15.2247 9.44995 15.4151 9.59877 15.4777 9.80342Z" fill="#BC2F32"/>
</svg>
