<svg width="16" height="16" viewBox="0 0 16 16" fill="none" xmlns="http://www.w3.org/2000/svg">
<path d="M9.2529 1.51831C9.66711 1.51831 10.0029 1.8541 10.0029 2.26831C10.0029 2.68252 9.66711 3.01831 9.2529 3.01831H4.5029C3.67447 3.01831 3.0029 3.68988 3.0029 4.51831V11.5183C3.0029 12.3467 3.67447 13.0183 4.5029 13.0183H9.2529C9.66711 13.0183 10.0029 13.3541 10.0029 13.7683C10.0029 14.1825 9.66711 14.5183 9.2529 14.5183H4.5029C2.84604 14.5183 1.5029 13.1752 1.5029 11.5183V4.51831C1.5029 2.86146 2.84604 1.51831 4.5029 1.51831H9.2529Z" fill="#DE590B"/>
<path d="M12.2803 4.98798L14.7803 7.48798C14.921 7.62863 15 7.8194 15 8.01831C15 8.21722 14.921 8.40799 14.7803 8.54864L12.2803 11.0486C11.9874 11.3415 11.5126 11.3415 11.2197 11.0486C10.9268 10.7557 10.9268 10.2809 11.2197 9.98798L12.4393 8.76831H6.75C6.33579 8.76831 6 8.43252 6 8.01831C6 7.6041 6.33579 7.26831 6.75 7.26831H12.4393L11.2197 6.04864C10.9268 5.75575 10.9268 5.28087 11.2197 4.98798C11.5126 4.69509 11.9874 4.69509 12.2803 4.98798Z" fill="#DE590B"/>
</svg>
