<svg width="16" height="16" viewBox="0 0 16 16" fill="none" xmlns="http://www.w3.org/2000/svg">
<path fill-rule="evenodd" clip-rule="evenodd" d="M7.5 5V2H4.5C3.11929 2 2 3.11929 2 4.5V5H7.5ZM8.5 5.37494V2H11.5C12.8807 2 14 3.11929 14 4.5V6.25716C13.0491 5.47182 11.8296 5 10.5 5C9.79442 5 9.11986 5.13286 8.5 5.37494ZM7.33692 6H2V11.5C2 12.8807 3.11929 14 4.5 14H6.25716C5.47182 13.0491 5 11.8296 5 10.5C5 8.63984 5.92345 6.99537 7.33692 6Z" fill="#E37D80"/>
<path fill-rule="evenodd" clip-rule="evenodd" d="M10.5 15C12.9853 15 15 12.9853 15 10.5C15 8.01472 12.9853 6 10.5 6C8.01472 6 6 8.01472 6 10.5C6 12.9853 8.01472 15 10.5 15ZM12.3536 8.64645C12.5488 8.84171 12.5488 9.15829 12.3536 9.35355L11.2071 10.5L12.3536 11.6464C12.5488 11.8417 12.5488 12.1583 12.3536 12.3536C12.1583 12.5488 11.8417 12.5488 11.6464 12.3536L10.5 11.2071L9.35355 12.3536C9.15829 12.5488 8.84171 12.5488 8.64645 12.3536C8.45118 12.1583 8.45118 11.8417 8.64645 11.6464L9.79289 10.5L8.64645 9.35355C8.45118 9.15829 8.45118 8.84171 8.64645 8.64645C8.84171 8.45118 9.15829 8.45118 9.35355 8.64645L10.5 9.79289L11.6464 8.64645C11.8417 8.45118 12.1583 8.45118 12.3536 8.64645Z" fill="#BC2F32"/>
</svg>
