<svg width="16" height="16" viewBox="0 0 16 16" fill="none" xmlns="http://www.w3.org/2000/svg">
<path fill-rule="evenodd" clip-rule="evenodd" d="M11 2.00488C10.4477 2.00488 10 2.4526 10 3.00488H12C13.1046 3.00488 14 3.90031 14 5.00488V5.05001C14.3694 5.125 14.7093 5.28146 15 5.49982V5.00488C15 3.34803 13.6569 2.00488 12 2.00488H11ZM5 2.00498C4.44772 2.00498 4 2.4527 4 3.00498H9C9 2.4527 8.55228 2.00498 8 2.00498H5ZM3.2 4.00498C2.53726 4.00498 2 4.54224 2 5.20498V7.80498C2 8.46772 2.53726 9.00498 3.2 9.00498H5.8C6.46274 9.00498 7 8.46772 7 7.80498V5.20498C7 4.54224 6.46274 4.00498 5.8 4.00498H3.2ZM9 4.00498C8.44772 4.00498 8 4.4527 8 5.00498V5.49982C8.41783 5.18597 8.9372 5 9.5 5H13C12.9973 4.45001 12.5506 4.00498 12 4.00498H9Z" fill="#C6B1DE"/>
<path d="M8 7.5C8 6.67157 8.67157 6 9.5 6H13.5C14.3284 6 15 6.67157 15 7.5V13.5C15 14.3284 14.3284 15 13.5 15H9.5C8.67157 15 8 14.3284 8 13.5V7.5Z" fill="#7C52AB"/>
</svg>
