<svg width="16" height="16" viewBox="0 0 16 16" fill="none" xmlns="http://www.w3.org/2000/svg">
<path fill-rule="evenodd" clip-rule="evenodd" d="M5.99988 10C5.86727 10 5.74009 10.0527 5.64632 10.1465C5.55256 10.2402 5.49988 10.368 5.49988 10.5006V14.5C5.49988 14.7762 5.72374 15 5.99988 15C6.85231 15 7.50851 14.7417 7.94083 14.241C8.36131 13.754 8.49988 13.1176 8.49988 12.5C8.49988 11.8824 8.36131 11.246 7.94083 10.759C7.50851 10.2583 6.85231 10 5.99988 10ZM6.49988 13.9541V11.0459C6.83809 11.1153 7.0484 11.2556 7.18393 11.4125C7.38845 11.6494 7.49988 12.013 7.49988 12.5C7.49988 12.987 7.38845 13.3506 7.18393 13.5875C7.0484 13.7444 6.83809 13.8847 6.49988 13.9541ZM8.99988 10.5C8.99988 10.2238 9.22374 10 9.49988 10H11.4999C11.776 10 11.9999 10.2238 11.9999 10.5C11.9999 10.7762 11.776 11 11.4999 11H9.99988V12H11.4999C11.776 12 11.9999 12.2238 11.9999 12.5C11.9999 12.7762 11.776 13 11.4999 13H9.99988V14.5C9.99988 14.7762 9.77602 15 9.49988 15C9.22374 15 8.99988 14.7762 8.99988 14.5V10.5ZM3.49988 10H2.49988C2.36687 10 2.23988 10.053 2.14588 10.146C2.05188 10.24 1.99988 10.367 1.99988 10.5V14.5C1.99988 14.633 2.05288 14.76 2.14588 14.854C2.23988 14.948 2.36687 15 2.49988 15C2.63288 15 2.75988 14.947 2.85387 14.854C2.94788 14.76 2.99988 14.633 2.99988 14.5V13H3.49988C3.89788 13 4.27888 12.842 4.56087 12.561C4.84188 12.28 4.99988 11.898 4.99988 11.5C4.99988 11.102 4.84188 10.721 4.56087 10.439C4.27988 10.158 3.89788 10 3.49988 10ZM3.49988 12H2.99988V11H3.49988C3.77602 11 3.99988 11.2239 3.99988 11.5C3.99988 11.7761 3.77602 12 3.49988 12Z" fill="#005BA1"/>
<path d="M9.00002 4.5V1H5.50002C4.67159 1 4.00002 1.67157 4.00002 2.5L4 9.04388C4.33275 9.11205 4.64862 9.24736 4.92774 9.4418L4.93721 9.43224C5.21854 9.15095 5.60005 8.99297 5.9978 8.99297C6.8355 8.99297 7.61848 9.19842 8.24214 9.6721C8.51005 9.26311 8.97238 8.99297 9.4978 8.99297H11.4978C12.3262 8.99297 12.9978 9.361 12.9978 10.1895C12.9978 10.5736 12.8534 10.9241 12.6159 11.1895C12.8534 11.4548 12.9978 11.8053 12.9978 12.1895C12.9978 13.0179 12.3262 13.6895 11.4978 13.6895H10.9978V15H12.5C13.3284 15 14 14.3284 14 13.5V6H10.5C9.67159 6 9.00002 5.32843 9.00002 4.5Z" fill="#5CAAE5"/>
<path d="M10 4.5V1.25L13.75 5H10.5C10.2239 5 10 4.77614 10 4.5Z" fill="#005BA1"/>
</svg>
