<svg width="16" height="16" viewBox="0 0 16 16" fill="none" xmlns="http://www.w3.org/2000/svg">
<path d="M14.75 8.78797C14.7398 8.77631 12.1547 5.81853 12.1569 5.82787C11.7369 5.24378 11.0028 4.87591 10.204 4.87591C10.1822 4.87591 10.1612 4.87825 10.1402 4.87902C9.4745 4.89613 8.93241 5.23912 8.51865 5.68088L11.3971 8.93341L6.60695 11.9316C6.60695 11.9316 5.69855 12.5974 4.66648 12.3524C4.75125 12.4052 7.36836 14.0393 7.36836 14.0393C7.75645 14.2827 8.25966 14.2827 8.64775 14.0393C8.64775 14.0393 14.3556 10.4648 14.4723 10.394C15.1147 10.0043 15.124 9.21884 14.75 8.78797Z" fill="black"/>
<path d="M8.86524 2.1416C8.45692 1.69284 7.6224 1.6104 7.11686 2.17505C6.96987 2.33915 1.41988 8.60078 1.26355 8.77733C0.821794 9.27353 0.950122 10.0334 1.5381 10.3958C1.5381 10.3958 2.89993 11.249 2.98859 11.305C3.52991 11.6441 4.98818 12.1107 6.45267 11.2303L7.36963 10.6564L4.61952 8.93521C4.61952 8.93521 8.08905 5.01615 8.09372 5.00993C9.10012 3.90864 10.4168 4.2073 10.9037 4.43829C10.9053 4.43906 8.87613 2.15405 8.86524 2.14316V2.1416Z" fill="black"/>
</svg>
