<svg width="16" height="16" viewBox="0 0 16 16" fill="none" xmlns="http://www.w3.org/2000/svg">
<path d="M8 1C4.15 1 1 4.22753 1 8.17227C1 11.3281 3.03 14.0535 5.76 14.9859C6.11 15.0577 6.25 14.8425 6.25 14.6273C6.25 14.4838 6.25 13.9818 6.25 13.408C4.29 13.8384 3.87 12.4756 3.87 12.4756C3.59 11.615 3.1 11.3998 3.1 11.3998C2.47 10.9695 3.17 10.9695 3.17 10.9695C3.87 11.0412 4.22 11.6867 4.22 11.6867C4.85 12.8343 5.9 12.4756 6.25 12.3322C6.32 11.9019 6.53 11.5432 6.67 11.3998C5.13 11.1847 3.45 10.6108 3.45 7.88538C3.45 7.09643 3.73 6.45093 4.15 5.94887C4.22 5.66197 3.94 4.94475 4.36 4.01235C4.36 4.01235 4.92 3.79718 6.32 4.72958C6.81 4.51441 7.37 4.44269 8 4.44269C8.63 4.44269 9.19 4.51441 9.75 4.65786C11.08 3.72547 11.71 3.94063 11.71 3.94063C12.06 4.87303 11.85 5.66197 11.78 5.80542C12.2 6.30748 12.48 6.95298 12.48 7.74194C12.48 10.4674 10.87 11.1129 9.26 11.2563C9.54 11.4715 9.75 11.9019 9.75 12.6191C9.75 13.5514 9.75 14.3404 9.75 14.5556C9.75 14.7708 9.89 14.9859 10.24 14.9143C13.04 13.9819 15 11.2563 15 8.10055C15 4.22752 11.85 1 8 1Z" fill="black"/>
</svg>
