<svg width="16" height="16" viewBox="0 0 16 16" fill="none" xmlns="http://www.w3.org/2000/svg">
<path fill-rule="evenodd" clip-rule="evenodd" d="M1.23507 10.0761C1.46923 9.92972 1.77771 10.0009 1.92406 10.2351L2.75007 11.5567L3.57607 10.2351C3.72242 10.0009 4.0309 9.92972 4.26507 10.0761C4.49923 10.2224 4.57042 10.5309 4.42406 10.7651L3.33969 12.5001L4.42406 14.2351C4.57042 14.4692 4.49923 14.7777 4.26507 14.9241C4.0309 15.0704 3.72242 14.9992 3.57607 14.7651L2.75007 13.4435L1.92406 14.7651C1.77771 14.9992 1.46923 15.0704 1.23507 14.9241C1.0009 14.7777 0.929713 14.4692 1.07607 14.2351L2.16044 12.5001L1.07607 10.7651C0.929713 10.5309 1.0009 10.2224 1.23507 10.0761ZM5.5 10C5.77614 10 6 10.2238 6 10.5V14H7.5C7.77614 14 8 14.2238 8 14.5C8 14.7762 7.77614 15 7.5 15H5.5C5.22386 15 5 14.7762 5 14.5V10.5C5 10.2238 5.22386 10 5.5 10ZM9.92702 15H10.073V14.997C10.3933 14.9955 10.7037 14.8863 10.9543 14.687C11.205 14.4877 11.3813 14.2098 11.455 13.8982C11.5286 13.5865 11.4953 13.2592 11.3604 12.9687C11.2254 12.6783 10.9967 12.4417 10.711 12.297L9.73502 11.808C9.66406 11.7729 9.60439 11.7186 9.56284 11.6512C9.52128 11.5839 9.49952 11.5062 9.50002 11.427C9.50002 11.3138 9.54501 11.2051 9.62509 11.1251C9.70516 11.045 9.81377 11 9.92702 11H10.073C10.1863 11 10.2949 11.045 10.375 11.1251C10.455 11.2051 10.5 11.3138 10.5 11.427V11.5C10.5008 11.5638 10.5146 11.6267 10.5405 11.685C10.5664 11.7433 10.6038 11.7957 10.6506 11.8391C10.6973 11.8825 10.7524 11.916 10.8125 11.9374C10.8726 11.9589 10.9364 11.9679 11 11.964C11.1363 11.9556 11.2641 11.8951 11.3571 11.7952C11.4502 11.6953 11.5013 11.5635 11.5 11.427C11.4998 11.0486 11.3493 10.6858 11.0818 10.4182C10.8142 10.1507 10.4514 10.0003 10.073 10H9.92702C9.60678 10.0015 9.29637 10.1107 9.0457 10.31C8.79504 10.5093 8.6187 10.7872 8.54506 11.0988C8.47141 11.4105 8.50474 11.7379 8.63968 12.0283C8.77463 12.3187 9.00334 12.5553 9.28902 12.7L10.265 13.192C10.336 13.2271 10.3956 13.2814 10.4372 13.3488C10.4788 13.4161 10.5005 13.4938 10.5 13.573C10.5 13.6862 10.455 13.7949 10.375 13.8749C10.2949 13.955 10.1863 14 10.073 14H9.92702C9.86533 13.9975 9.80482 13.9823 9.74928 13.9554C9.69374 13.9284 9.64437 13.8903 9.60428 13.8433C9.56418 13.7964 9.53422 13.7416 9.51628 13.6825C9.49834 13.6235 9.4928 13.5613 9.50002 13.5C9.49919 13.4362 9.48542 13.3733 9.45954 13.315C9.43365 13.2567 9.3962 13.2043 9.34945 13.1609C9.30269 13.1175 9.24761 13.084 9.18755 13.0626C9.12748 13.0411 9.06369 13.0321 9.00002 13.036C8.86376 13.0444 8.73594 13.1049 8.64291 13.2048C8.54988 13.3047 8.49874 13.4365 8.50002 13.573C8.50029 13.9514 8.65072 14.3142 8.91827 14.5818C9.18583 14.8493 9.54864 14.9997 9.92702 15ZM12.9241 10.2351C12.7777 10.0009 12.4692 9.92972 12.2351 10.0761C12.0009 10.2224 11.9297 10.5309 12.0761 10.7651L13.1604 12.5001L12.0761 14.2351C11.9297 14.4692 12.0009 14.7777 12.2351 14.9241C12.4692 15.0704 12.7777 14.9992 12.9241 14.7651L13.7501 13.4435L14.5761 14.7651C14.7224 14.9992 15.0309 15.0704 15.2651 14.9241C15.4992 14.7777 15.5704 14.4692 15.4241 14.2351L14.3397 12.5001L15.4241 10.7651C15.5704 10.5309 15.4992 10.2224 15.2651 10.0761C15.0309 9.92972 14.7224 10.0009 14.5761 10.2351L13.7501 11.5567L12.9241 10.2351Z" fill="#0C5E0C"/>
<path d="M8 4.5V1H4.5C3.67157 1 3 1.67157 3 2.5V9.65307C3.00159 9.65546 3.00318 9.65785 3.00476 9.66025C3.04081 9.36432 3.50014 9.01005 3.90982 9.01005C4.27186 9.01005 4.73511 9.18216 4.86991 9.60452C5.01818 9.24057 5.27591 9.01005 5.73709 9.01005C6.37058 9.01005 7.1601 9.24426 7.51956 9.99551C7.94349 9.24426 8.98744 9.01005 9.73456 9.01005C10.3344 9.01005 11.058 9.14844 11.4697 9.66025C11.734 9.27875 11.9155 9.1769 12.3473 9.0612C12.5627 9.00349 12.7821 8.98931 13 9.01418V6H9.5C8.67157 6 8 5.32843 8 4.5Z" fill="#54B054"/>
<path d="M9 4.5V1.25L12.75 5H9.5C9.22386 5 9 4.77614 9 4.5Z" fill="#0C5E0C"/>
</svg>
