<svg width="16" height="16" viewBox="0 0 16 16" fill="none" xmlns="http://www.w3.org/2000/svg">
<path fill-rule="evenodd" clip-rule="evenodd" d="M7.5 5V2H4.5C3.11929 2 2 3.11929 2 4.5V5H7.5ZM8.5 6.35648V2H11.5C12.8807 2 14 3.11929 14 4.5V7.17674C13.101 6.49819 11.9115 6 10.5 6C9.77059 6 9.10083 6.13365 8.5 6.35648ZM7.5 6.8412V6H2V11.5C2 12.8807 3.11929 14 4.5 14H7.247C6.98758 13.8242 6.74937 13.6328 6.53376 13.4324C5.64508 12.6063 5 11.4851 5 10.5C5 9.98351 5.18097 9.45154 5.43341 8.9814C5.69355 8.49694 6.06553 8.01013 6.53132 7.57556C6.81567 7.31027 7.13962 7.06042 7.5 6.8412Z" fill="#C6B1DE"/>
<path d="M6 10.5C6 9.318 7.736 7 10.5 7C13.261 7 15 9.3 15 10.5C15 11.682 13.261 14 10.5 14C7.739 14 6 11.7 6 10.5ZM9.11107 12.5787C9.5222 12.8534 10.0055 13 10.5 13C11.163 13 11.7989 12.7366 12.2678 12.2678C12.7366 11.7989 13 11.163 13 10.5C13 10.0055 12.8534 9.5222 12.5787 9.11107C12.304 8.69995 11.9135 8.37952 11.4567 8.1903C10.9999 8.00108 10.4972 7.95157 10.0123 8.04804C9.52732 8.1445 9.08186 8.3826 8.73223 8.73223C8.3826 9.08186 8.1445 9.52732 8.04804 10.0123C7.95157 10.4972 8.00108 10.9999 8.1903 11.4567C8.37952 11.9135 8.69995 12.304 9.11107 12.5787ZM11.7472 11.3334C11.912 11.0867 12 10.7967 12 10.5C12 10.1022 11.842 9.72064 11.5607 9.43934C11.2794 9.15804 10.8978 9 10.5 9C10.2033 9 9.91332 9.08797 9.66665 9.2528C9.41997 9.41762 9.22771 9.65189 9.11418 9.92597C9.00065 10.2001 8.97094 10.5017 9.02882 10.7926C9.0867 11.0836 9.22956 11.3509 9.43934 11.5607C9.64912 11.7704 9.91639 11.9133 10.2074 11.9712C10.4983 12.0291 10.7999 11.9993 11.074 11.8858C11.3481 11.7723 11.5824 11.58 11.7472 11.3334Z" fill="#7C52AB"/>
</svg>
