<svg width="16" height="16" viewBox="0 0 16 16" fill="none" xmlns="http://www.w3.org/2000/svg">
<path fill-rule="evenodd" clip-rule="evenodd" d="M2 4.5C2 3.11929 3.11929 2 4.5 2H11.5C12.8807 2 14 3.11929 14 4.5V6.25716C13.6929 6.00353 13.3578 5.78261 13 5.59971V4.5C13 3.67157 12.3284 3 11.5 3H10.5V5C10.1585 5 9.82428 5.03112 9.5 5.09069V3H6.5V6.72506C6.09115 7.15813 5.75187 7.65757 5.5 8.20551V3H4.5C3.67157 3 3 3.67157 3 4.5V11.5C3 12.3284 3.67157 13 4.5 13H5.5V12.7945C5.70016 13.2299 5.95554 13.6348 6.25716 14H4.5C3.11929 14 2 12.8807 2 11.5V4.5Z" fill="#FAA06B"/>
<path fill-rule="evenodd" clip-rule="evenodd" d="M6.68365 9.93165C7.7716 9.65373 8.4176 8.53482 8.11431 7.45367L7.95812 6.8969C8.2122 6.7016 8.48759 6.5343 8.78002 6.39941L9.11738 6.75737C9.90631 7.59449 11.2371 7.59519 12.0269 6.7589L12.3516 6.41512C12.6494 6.55564 12.9292 6.72991 13.1864 6.93319L13.0602 7.35548C12.7309 8.45763 13.3968 9.60975 14.5163 9.87443L14.8653 9.95695C14.8869 10.1387 14.898 10.3238 14.898 10.5116C14.898 10.6676 14.8903 10.8217 14.8753 10.9736L14.4148 11.0913C13.3268 11.3692 12.6808 12.4881 12.9841 13.5692L13.1403 14.1259C12.8862 14.3212 12.6108 14.4886 12.3184 14.6235L11.9811 14.2655C11.1921 13.4284 9.86137 13.4277 9.07156 14.264L8.74656 14.6081C8.44883 14.4677 8.16909 14.2934 7.91191 14.0902L8.03825 13.6674C8.36759 12.5653 7.7016 11.4132 6.58217 11.1485L6.23261 11.0658C6.21105 10.8842 6.19995 10.6992 6.19995 10.5116C6.19995 10.3555 6.20763 10.2014 6.22261 10.0494L6.68365 9.93165ZM11.549 10.5116C11.549 11.0639 11.1013 11.5116 10.549 11.5116C9.99669 11.5116 9.54897 11.0639 9.54897 10.5116C9.54897 9.95929 9.99669 9.51158 10.549 9.51158C11.1013 9.51158 11.549 9.95929 11.549 10.5116Z" fill="#DE590B"/>
</svg>
