<svg width="16" height="16" viewBox="0 0 16 16" fill="none" xmlns="http://www.w3.org/2000/svg">
<path d="M4 5.00488C4 4.4526 4.44772 4.00488 5 4.00488H8C8.55228 4.00488 9 4.4526 9 5.00488H4Z" fill="#5CAAE5"/>
<path fill-rule="evenodd" clip-rule="evenodd" d="M6.75222 6.47453C5.6742 7.47863 5 8.91058 5 10.5C5 10.6702 5.00773 10.8386 5.02286 11.0049H3.2C2.53726 11.0049 2 10.4676 2 9.80488V7.20488C2 6.54214 2.53726 6.00488 3.2 6.00488H5.8C6.18793 6.00488 6.53286 6.18896 6.75222 6.47453Z" fill="#5CAAE5"/>
<path fill-rule="evenodd" clip-rule="evenodd" d="M10 5.00488C10 4.4526 10.4477 4.00488 11 4.00488H12C13.6569 4.00488 15 5.34803 15 7.00488V7.33692C14.6609 6.85536 14.2464 6.43068 13.7738 6.08002C13.4399 5.44103 12.7709 5.00488 12 5.00488H10.7339C10.6563 5.00164 10.5784 5 10.5 5C10.4216 5 10.3437 5.00164 10.2661 5.00488H10Z" fill="#5CAAE5"/>
<path fill-rule="evenodd" clip-rule="evenodd" d="M6 10.5C6 12.9853 8.01472 15 10.5 15C12.9853 15 15 12.9853 15 10.5C15 8.01472 12.9853 6 10.5 6C8.01472 6 6 8.01472 6 10.5ZM10.1464 8.14645L8.14684 10.146L8.14433 10.1486C8.09744 10.196 8.06198 10.2505 8.03794 10.3086C8.01385 10.3667 8.0004 10.4303 8.00001 10.497L8 10.5L8.00001 10.503C8.0004 10.5697 8.01385 10.6333 8.03794 10.6914C8.06234 10.7504 8.09851 10.8056 8.14645 10.8536L10.1464 12.8536C10.3417 13.0488 10.6583 13.0488 10.8536 12.8536C11.0488 12.6583 11.0488 12.3417 10.8536 12.1464L9.70711 11H12.5C12.7761 11 13 10.7761 13 10.5C13 10.2239 12.7761 10 12.5 10L9.70711 10L10.8536 8.85355C11.0488 8.65829 11.0488 8.34171 10.8536 8.14645C10.6583 7.95118 10.3417 7.95118 10.1464 8.14645Z" fill="#0078D4"/>
</svg>
