<svg width="16" height="16" viewBox="0 0 16 16" fill="none" xmlns="http://www.w3.org/2000/svg">
<path fill-rule="evenodd" clip-rule="evenodd" d="M3.54343 4.24714C3.5359 4.25978 3.52844 4.2725 3.52106 4.28529L2.64369 5.80494L1.13795 6.97165C1.04184 7.04612 0.990264 7.16362 1.00029 7.28529C1.01031 7.40697 1.08062 7.51698 1.18798 7.57896L6.4297 10.6053L6.54505 9.69606L6.09089 8.0011C5.97533 7.56984 5.95306 7.13509 6.01185 6.7175L3.54343 4.24714ZM6.95624 4.83608L5.05089 2.92923C5.98959 2.5269 7.11143 2.56128 8.07758 3.11908C8.42582 3.32014 8.72529 3.57272 8.97155 3.86105C8.81078 3.88038 8.64932 3.91135 8.4882 3.95452C7.88596 4.1159 7.36493 4.42726 6.95624 4.83608ZM6.72383 7.43005C6.696 7.78614 6.72713 8.15211 6.82453 8.51562L7.27869 10.2106L7.03897 12.1003C7.02366 12.2209 7.07028 12.3404 7.1634 12.4194C7.25653 12.4983 7.38403 12.5264 7.50378 12.4943L10.8801 11.5896L6.72383 7.43005ZM13.108 10.9927L7.58262 5.46295C8.00573 4.99885 8.56557 4.64489 9.22184 4.46904C11.0159 3.98833 12.8512 5.02067 13.3213 6.77482L13.7754 8.46977L14.9279 9.98644C15.0014 10.0833 15.0208 10.2101 14.9797 10.325C14.9385 10.44 14.8421 10.528 14.7224 10.5601L13.108 10.9927ZM11.4764 12.1864L12.2274 12.9379C12.0521 13.1009 11.8346 13.2251 11.5859 13.2918C10.9132 13.472 10.2274 13.1736 9.90395 12.6077L11.4764 12.1864ZM3.51058 11.0293C2.90744 10.6811 2.63352 9.98514 2.80499 9.3563L5.31224 10.8039C4.85338 11.2668 4.11372 11.3775 3.51058 11.0293Z" fill="#E37D80"/>
<path fill-rule="evenodd" clip-rule="evenodd" d="M1.1457 1.14435C0.950279 1.33954 0.950154 1.65612 1.14542 1.85146L14.145 14.8556C14.3403 15.051 14.657 15.0511 14.8524 14.8559C15.0478 14.6607 15.048 14.3441 14.8527 14.1488L1.85312 1.14463C1.65785 0.949294 1.34113 0.949169 1.1457 1.14435Z" fill="#D13438"/>
</svg>
