<svg width="16" height="16" viewBox="0 0 16 16" fill="none" xmlns="http://www.w3.org/2000/svg">
<path fill-rule="evenodd" clip-rule="evenodd" d="M7.24954 2.31863C7.08155 2.53148 6.95679 2.74198 6.95679 3.28485V3.5H5.95679V3.28485C5.95679 2.60667 6.11048 2.14773 6.46458 1.69909C6.83179 1.23385 7.36721 1 7.98825 1C8.5938 1 9.13597 1.20665 9.51427 1.66943C9.87922 2.11588 10.0351 2.5838 10.0351 3.29662L10.0352 3.51177L9.03516 3.51185L9.03514 3.2967C9.03514 2.71146 8.90489 2.504 8.74003 2.30232C8.58852 2.11697 8.35725 2 7.98825 2C7.63474 2 7.40444 2.12238 7.24954 2.31863Z" fill="#D13438"/>
<path fill-rule="evenodd" clip-rule="evenodd" d="M1.5 3.49561C1.5 3.21946 1.73716 2.99561 2.01331 2.99561H14C14.2761 2.99561 14.5 3.21946 14.5 3.49561C14.5 3.77175 14.2761 3.99561 14 3.99561H2.01331C1.73716 3.99561 1.5 3.77175 1.5 3.49561Z" fill="#D13438"/>
<path d="M2.55859 4L3.88021 13.4064C3.96811 14.3152 4.72324 15.0007 5.63651 15.0007H10.3636C11.2769 15.0007 12.0317 14.3152 12.1199 13.4064L13.4375 4H2.55859Z" fill="#E37D80"/>
<path d="M9.5 12C9.776 12 10 11.7763 10 11.5V6.5C10 6.22367 9.776 6 9.5 6C9.224 6 9 6.22367 9 6.5V11.5C9 11.7763 9.224 12 9.5 12Z" fill="#D13438"/>
<path d="M6.5 12C6.776 12 7 11.7763 7 11.5V6.5C7 6.22367 6.776 6 6.5 6C6.224 6 6 6.22367 6 6.5V11.5C6 11.7763 6.224 12 6.5 12Z" fill="#D13438"/>
</svg>
