<svg width="16" height="16" viewBox="0 0 16 16" fill="none" xmlns="http://www.w3.org/2000/svg">
<path fill-rule="evenodd" clip-rule="evenodd" d="M8 4.5V1H4.5C3.67157 1 3 1.67157 3 2.5V13.5C3 14.3284 3.67157 15 4.5 15H11.5C12.3284 15 13 14.3284 13 13.5V6H9.5C8.67157 6 8 5.32843 8 4.5ZM9 4.5V1.25L12.75 5H9.5C9.22386 5 9 4.77614 9 4.5ZM5.5 12C5.22386 12 5 12.2239 5 12.5C5 12.7761 5.22386 13 5.5 13H10.5C10.7761 13 11 12.7761 11 12.5C11 12.2239 10.7761 12 10.5 12H5.5ZM5 5.5C5 5.22386 5.22386 5 5.5 5H6.5C6.77614 5 7 5.22386 7 5.5C7 5.77614 6.77614 6 6.5 6H5.5C5.22386 6 5 5.77614 5 5.5ZM5.5 3C5.22386 3 5 3.22386 5 3.5C5 3.77614 5.22386 4 5.5 4H6.5C6.77614 4 7 3.77614 7 3.5C7 3.22386 6.77614 3 6.5 3H5.5Z" fill="#FAA06B"/>
<path fill-rule="evenodd" clip-rule="evenodd" d="M5 8C5 7.44772 5.44772 7 6 7H10C10.5523 7 11 7.44772 11 8V10C11 10.5523 10.5523 11 10 11H6C5.44772 11 5 10.5523 5 10V8ZM10 8H6V10H10V8Z" fill="#BC4B09"/>
</svg>
