<svg width="16" height="16" viewBox="0 0 16 16" fill="none" xmlns="http://www.w3.org/2000/svg">
<path fill-rule="evenodd" clip-rule="evenodd" d="M7.5 5V2H4.5C3.11929 2 2 3.11929 2 4.5V5H7.5ZM8.5 8.44278V2H11.5C12.8807 2 14 3.11929 14 4.5V5.13388C13.0111 4.82097 11.8862 5.05656 11.1021 5.84065L8.5 8.44278ZM7.5 9.44278V6H2V11.5C2 12.8807 3.11929 14 4.5 14H5.00298C5.01027 13.8859 5.02808 13.7701 5.05728 13.6532L5.43176 12.1554C5.57229 11.5932 5.86295 11.0798 6.27271 10.6701L7.5 9.44278ZM11.0609 14H11.5C12.8807 14 14 12.8807 14 11.5V11.0608L11.0609 14Z" fill="#5CAAE5"/>
<path fill-rule="evenodd" clip-rule="evenodd" d="M11.8092 6.54776L6.97975 11.3772C6.69818 11.6588 6.49842 12.0116 6.40184 12.3979L6.02737 13.8958C5.86451 14.5472 6.45456 15.1372 7.10597 14.9744L8.60387 14.5999C8.99019 14.5033 9.343 14.3036 9.62457 14.022L14.454 9.19258C15.1843 8.46223 15.1843 7.27811 14.454 6.54776C13.7237 5.81741 12.5395 5.81741 11.8092 6.54776Z" fill="#0078D4"/>
</svg>
