<svg width="16" height="16" viewBox="0 0 16 16" fill="none" xmlns="http://www.w3.org/2000/svg">
<path d="M2.71429 1.5C1.76751 1.5 1 2.26751 1 3.21429V11.7857C1 12.7325 1.76751 13.5 2.71429 13.5L2.71429 8.78572C2.71429 8.07563 3.28992 7.5 4 7.5H5.59983C5.93708 6.84036 6.40361 6.25779 6.966 5.78571L4.85714 5.78572C4.14706 5.78572 3.57143 5.21008 3.57143 4.5L3.57143 1.5H2.71429Z" fill="#FAA06B"/>
<path d="M8.47044 4.88683C8.45377 4.89345 8.43714 4.90015 8.42056 4.90693C8.37816 4.92097 8.33282 4.92857 8.28571 4.92857L4.85714 4.92857C4.62045 4.92857 4.42857 4.73669 4.42857 4.5L4.42857 1.5H8.71429V4.5C8.71429 4.67055 8.61466 4.81783 8.47044 4.88683Z" fill="#FAA06B"/>
<path d="M9.56906 4.5787C9.87167 4.52711 10.1827 4.50024 10.5 4.50024C11.4002 4.50024 12.2499 4.71652 13 5.09995V4.60399C13 4.14933 12.8194 3.7133 12.4979 3.39181L11.1082 2.0021C10.7867 1.68061 10.3507 1.5 9.89601 1.5H9.57143V4.5C9.57143 4.52643 9.57063 4.55267 9.56906 4.5787Z" fill="#FAA06B"/>
<path d="M5.24963 8.35714C5.08742 8.87601 5 9.42792 5 10.0002C5 11.3298 5.47174 12.5491 6.25696 13.5H3.57143V8.78571C3.57143 8.54902 3.76331 8.35714 4 8.35714H5.24963Z" fill="#FAA06B"/>
<path fill-rule="evenodd" clip-rule="evenodd" d="M15 10C15 12.4853 12.9853 14.5 10.5 14.5C8.01472 14.5 6 12.4853 6 10C6 7.51472 8.01472 5.5 10.5 5.5C12.9853 5.5 15 7.51472 15 10ZM11 8C11 7.72386 10.7761 7.5 10.5 7.5C10.2239 7.5 10 7.72386 10 8V9.5H8.5C8.22386 9.5 8 9.72386 8 10C8 10.2761 8.22386 10.5 8.5 10.5H10V12C10 12.2761 10.2239 12.5 10.5 12.5C10.7761 12.5 11 12.2761 11 12V10.5H12.5C12.7761 10.5 13 10.2761 13 10C13 9.72386 12.7761 9.5 12.5 9.5H11V8Z" fill="#DE590B"/>
</svg>
