<svg width="16" height="16" viewBox="0 0 16 16" fill="none" xmlns="http://www.w3.org/2000/svg">
<path fill-rule="evenodd" clip-rule="evenodd" d="M1.94721 10.2767C1.84351 10.0693 1.61081 9.96039 1.38512 10.0137C1.15944 10.0669 1 10.2684 1 10.5003V14.5003C1 14.7764 1.22386 15.0003 1.5 15.0003C1.77614 15.0003 2 14.7764 2 14.5003V12.6183L3.05279 14.7239C3.13748 14.8933 3.31061 15.0003 3.5 15.0003C3.68939 15.0003 3.86252 14.8933 3.94721 14.7239L5 12.6183V14.5003C5 14.7764 5.22386 15.0003 5.5 15.0003C5.77614 15.0003 6 14.7764 6 14.5003V10.5003C6 10.2684 5.84056 10.0669 5.61488 10.0137C5.38919 9.96039 5.15649 10.0693 5.05279 10.2767L3.5 13.3823L1.94721 10.2767ZM14.8536 10.8538C14.9473 10.76 15 10.6329 15 10.5002C15 10.3676 14.9473 10.2405 14.8536 10.1467C14.7598 10.0529 14.6326 10.0002 14.5 10.0002H11.5C11.3674 10.0002 11.2402 10.0529 11.1464 10.1467C11.0527 10.2405 11 10.3676 11 10.5002C11 10.6329 11.0527 10.76 11.1464 10.8538C11.2402 10.9476 11.3674 11.0002 11.5 11.0002H12.5V14.5002C12.5 14.6329 12.5527 14.76 12.6464 14.8538C12.7402 14.9476 12.8674 15.0002 13 15.0002C13.1326 15.0002 13.2598 14.9476 13.3536 14.8538C13.4473 14.76 13.5 14.6329 13.5 14.5002V11.0002H14.5C14.6326 11.0002 14.7598 10.9476 14.8536 10.8538ZM8 10.5002C8 10.2241 7.77614 10.0002 7.5 10.0002C7.22386 10.0002 7 10.2241 7 10.5002V14.5002C7 14.7764 7.22386 15.0002 7.5 15.0002C7.77614 15.0002 8 14.7764 8 14.5002V13.0002H9.5V14.5002C9.5 14.7764 9.72386 15.0002 10 15.0002C10.2761 15.0002 10.5 14.7764 10.5 14.5002V10.5002C10.5 10.2241 10.2761 10.0002 10 10.0002C9.72386 10.0002 9.5 10.2241 9.5 10.5002V12.0002H8V10.5002Z" fill="#005BA1"/>
<path fill-rule="evenodd" clip-rule="evenodd" d="M7.53198 4.50488V1.00488H4.03198C3.20356 1.00488 2.53198 1.67646 2.53198 2.50488V9.53785C2.56466 9.58531 2.59436 9.6355 2.62072 9.68822L3.50269 11.4522L4.38465 9.68822C4.64391 9.16971 5.22566 8.89748 5.78988 9.03068C6.08309 9.09989 6.33157 9.26916 6.50262 9.49715C6.73068 9.19356 7.09375 8.99719 7.50269 8.99719C8.19304 8.99719 8.75269 9.55683 8.75269 10.2472C8.75269 9.55683 9.31233 8.99719 10.0027 8.99719C10.2841 8.99719 10.5438 9.09019 10.7527 9.24714C10.9678 9.08584 11.2307 8.99719 11.5027 8.99719H12.532V6.00488H9.03198C8.20356 6.00488 7.53198 5.33331 7.53198 4.50488Z" fill="#5CAAE5"/>
<path d="M8.53198 4.50488V1.25488L12.282 5.00488H9.03198C8.75584 5.00488 8.53198 4.78103 8.53198 4.50488Z" fill="#005BA1"/>
</svg>
