<svg width="16" height="16" viewBox="0 0 16 16" fill="none" xmlns="http://www.w3.org/2000/svg">
<path fill-rule="evenodd" clip-rule="evenodd" d="M3.5 3C2.11929 3 1 4.11929 1 5.5V9.5C1 10.8807 2.11929 12 3.5 12H6.11039C6.03807 11.6615 6 11.3103 6 10.9502C6 9.50765 6.61089 8.20779 7.58809 7.29519L7.14645 6.85355C6.95118 6.65829 6.95118 6.34171 7.14645 6.14645C7.34171 5.95118 7.65829 5.95118 7.85355 6.14645L8.39108 6.68397C8.54398 6.59027 8.70231 6.50455 8.86549 6.42741L9.14645 6.14645C9.32326 5.96964 9.59954 5.95293 9.79515 6.09632C10.181 6.00085 10.5846 5.9502 11 5.9502C11.5649 5.9502 12.1089 6.04433 12.6165 6.21771C12.8915 5.90069 13.2974 5.7002 13.75 5.7002C14.2717 5.7002 14.7313 5.96657 15 6.37075V5.5C15 4.11929 13.8807 3 12.5 3H3.5ZM4.5 6.79289L5.14645 6.14645C5.34171 5.95118 5.65829 5.95118 5.85355 6.14645C6.04882 6.34171 6.04882 6.65829 5.85355 6.85355L5.20711 7.5L5.85355 8.14645C6.04882 8.34171 6.04882 8.65829 5.85355 8.85355C5.65829 9.04882 5.34171 9.04882 5.14645 8.85355L4.5 8.20711L3.85355 8.85355C3.65829 9.04882 3.34171 9.04882 3.14645 8.85355C2.95118 8.65829 2.95118 8.34171 3.14645 8.14645L3.79289 7.5L3.14645 6.85355C2.95118 6.65829 2.95118 6.34171 3.14645 6.14645C3.34171 5.95118 3.65829 5.95118 3.85355 6.14645L4.5 6.79289Z" fill="#5CAAE5"/>
<path d="M13.75 6.7002C14.0261 6.7002 14.25 6.92405 14.25 7.2002V8.9502C14.25 9.22634 14.0261 9.4502 13.75 9.4502H12C11.7239 9.4502 11.5 9.22634 11.5 8.9502C11.5 8.67405 11.7239 8.4502 12 8.4502H12.659C12.1839 8.13414 11.6139 7.9502 11 7.9502C9.34315 7.9502 8 9.29334 8 10.9502C8 12.607 9.34315 13.9502 11 13.9502C12.6569 13.9502 14 12.607 14 10.9502C14 10.6741 14.2239 10.4502 14.5 10.4502C14.7761 10.4502 15 10.6741 15 10.9502C15 13.1593 13.2091 14.9502 11 14.9502C8.79086 14.9502 7 13.1593 7 10.9502C7 8.74106 8.79086 6.9502 11 6.9502C11.8338 6.9502 12.6089 7.20578 13.25 7.6426V7.2002C13.25 6.92405 13.4739 6.7002 13.75 6.7002Z" fill="#0078D4"/>
</svg>
