<svg width="16" height="16" viewBox="0 0 16 16" fill="none" xmlns="http://www.w3.org/2000/svg">
<path d="M13.752 7.43211C13.549 7.00411 13.23 6.64211 12.829 6.38911C12.428 6.13611 11.965 6.00111 11.491 6.00111C10.917 6.00111 10.361 6.19811 9.916 6.56011C9.471 6.92111 9.163 7.42511 9.045 7.98611C7.163 7.86111 5.457 6.96411 5.072 5.93211C5.671 5.78811 6.196 5.42811 6.546 4.92211C6.896 4.41511 7.047 3.79711 6.969 3.18611C6.891 2.57511 6.591 2.01411 6.125 1.61111C5.659 1.20811 5.061 0.991108 4.445 1.00211C3.829 1.01311 3.239 1.25111 2.788 1.67011C2.337 2.08911 2.056 2.66011 2 3.27411C1.944 3.88811 2.116 4.50011 2.484 4.99411C2.852 5.48811 3.389 5.82911 3.992 5.95211V10.0521C3.385 10.1761 2.846 10.5211 2.478 11.0201C2.111 11.5191 1.942 12.1361 2.004 12.7531C2.066 13.3691 2.355 13.9411 2.815 14.3561C3.275 14.7721 3.872 15.0021 4.492 15.0021C5.112 15.0021 5.709 14.7721 6.169 14.3561C6.629 13.9411 6.918 13.3691 6.98 12.7531C7.042 12.1371 6.873 11.5191 6.506 11.0201C6.139 10.5211 5.599 10.1761 4.992 10.0521V7.46811C6.147 8.39011 7.564 8.92211 9.04 8.98811C9.132 9.45311 9.354 9.88211 9.681 10.2251C10.007 10.5681 10.425 10.8121 10.884 10.9271C11.343 11.0421 11.826 11.0251 12.276 10.8761C12.726 10.7281 13.124 10.4541 13.425 10.0881C13.726 9.72211 13.916 9.27811 13.974 8.80811C14.032 8.33811 13.955 7.86111 13.753 7.43311L13.752 7.43211Z" fill="#DE590B"/>
</svg>
