<svg width="16" height="16" viewBox="0 0 16 16" fill="none" xmlns="http://www.w3.org/2000/svg">
<path fill-rule="evenodd" clip-rule="evenodd" d="M7.5 5V2H4.5C3.11929 2 2 3.11929 2 4.5V5H7.5ZM8.5 5.37494V2H11.5C12.8807 2 14 3.11929 14 4.5V6.25716C13.0491 5.47182 11.8296 5 10.5 5C9.79442 5 9.11986 5.13286 8.5 5.37494ZM7.33692 6H2V11.5C2 12.8807 3.11929 14 4.5 14H6.25716C5.47182 13.0491 5 11.8296 5 10.5C5 8.63984 5.92345 6.99537 7.33692 6Z" fill="#54B054"/>
<path fill-rule="evenodd" clip-rule="evenodd" d="M10.5 15C12.9853 15 15 12.9853 15 10.5C15 8.01472 12.9853 6 10.5 6C8.01472 6 6 8.01472 6 10.5C6 12.9853 8.01472 15 10.5 15ZM10.5 8C10.7761 8 11 8.22386 11 8.5V10H12.5C12.7761 10 13 10.2239 13 10.5C13 10.7761 12.7761 11 12.5 11H11V12.5C11 12.7761 10.7761 13 10.5 13C10.2239 13 10 12.7761 10 12.5L10 11H8.5C8.22386 11 8 10.7761 8 10.5C8 10.2239 8.22386 10 8.5 10H10V8.5C10 8.22386 10.2239 8 10.5 8Z" fill="#107C10"/>
</svg>
