<svg width="16" height="16" viewBox="0 0 16 16" fill="none" xmlns="http://www.w3.org/2000/svg">
<path fill-rule="evenodd" clip-rule="evenodd" d="M4.80731 4.80729C4.13045 5.1988 3.60255 5.69027 3.19852 6.18295C2.75419 6.72477 2.46129 7.26493 2.27906 7.66977C2.18771 7.87274 2.12344 8.04329 2.08142 8.1653C2.06039 8.22636 2.03429 8.31047 2.03429 8.31047L2.01662 8.37186C2.01662 8.37186 1.94073 8.86907 2.37177 8.9833C2.63854 9.05404 2.91226 8.8948 2.98322 8.62815L2.9842 8.62471L2.99155 8.5997C2.99866 8.57616 3.01027 8.53927 3.02691 8.49095C3.06023 8.39422 3.11351 8.25227 3.19094 8.08023C3.34631 7.73508 3.59603 7.27523 3.97176 6.81706C4.35189 6.35353 4.86264 5.88845 5.54487 5.54485L4.80731 4.80729ZM7.1487 7.14868L10.3513 10.3513C10.0031 11.3129 9.08179 12 8 12C6.61929 12 5.5 10.8807 5.5 9.5C5.5 8.41821 6.1871 7.4969 7.1487 7.14868ZM7.17419 5.05285L6.31977 4.19843C6.82407 4.07232 7.38255 4 7.99992 4C10.395 4 11.9038 5.08851 12.8013 6.18295C13.2457 6.72477 13.5385 7.26493 13.7208 7.66977C13.8121 7.87274 13.8764 8.04329 13.9184 8.1653C13.9395 8.22636 13.955 8.27541 13.9656 8.31047C13.9709 8.328 13.9749 8.34204 13.9778 8.35236L13.9814 8.365L13.9825 8.36916L13.9829 8.37069L13.9832 8.37186C14.054 8.63878 13.895 8.91253 13.6281 8.9833C13.3616 9.05397 13.0882 8.89556 13.0169 8.62937L13.0166 8.62815L13.0156 8.62471L13.0083 8.5997C13.0012 8.57616 12.9896 8.53927 12.9729 8.49095C12.9396 8.39422 12.8863 8.25227 12.8089 8.08023C12.6535 7.73508 12.4038 7.27523 12.0281 6.81706C11.2854 5.9115 10.0443 5 7.99992 5C7.70867 5 7.43372 5.0185 7.17419 5.05285Z" fill="#5CAAE5"/>
<path fill-rule="evenodd" clip-rule="evenodd" d="M14.1464 14.8536L1.14645 1.85355C0.951184 1.65829 0.951184 1.34171 1.14645 1.14645C1.34171 0.951184 1.65829 0.951184 1.85355 1.14645L14.8536 14.1464C15.0488 14.3417 15.0488 14.6583 14.8536 14.8536C14.6583 15.0488 14.3417 15.0488 14.1464 14.8536Z" fill="#006CBF"/>
</svg>
