<svg width="16" height="16" viewBox="0 0 16 16" fill="none" xmlns="http://www.w3.org/2000/svg">
<path d="M8.62884 9.51701C8.89566 9.58816 9.05428 9.86214 8.98313 10.129L7.80828 14.5346C7.73713 14.8014 7.46315 14.9601 7.19633 14.8889C6.92951 14.8178 6.77089 14.5438 6.84205 14.277L8.01689 9.87129C8.08804 9.60447 8.36202 9.44585 8.62884 9.51701Z" fill="#005BA1"/>
<path d="M6.45958 10.803C6.56836 11.0569 6.45078 11.3508 6.19697 11.4596L3.98959 12.4056L6.13737 13.0192C6.40288 13.0951 6.55663 13.3718 6.48077 13.6374C6.40491 13.9029 6.12816 14.0566 5.86265 13.9808L2.36265 12.9808C2.15922 12.9226 2.01439 12.7428 2.00101 12.5316C1.98762 12.3205 2.10858 12.1238 2.30305 12.0404L5.80305 10.5404C6.05686 10.4317 6.3508 10.5492 6.45958 10.803Z" fill="#005BA1"/>
<path d="M9.54043 10.803C9.43166 11.0569 9.54923 11.3508 9.80305 11.4596L12.0104 12.4056L9.86265 13.0192C9.59713 13.0951 9.44338 13.3718 9.51924 13.6374C9.59511 13.9029 9.87185 14.0566 10.1374 13.9808L13.6374 12.9808C13.8408 12.9226 13.9856 12.7428 13.999 12.5316C14.0124 12.3205 13.8914 12.1238 13.697 12.0404L10.197 10.5404C9.94315 10.4317 9.64921 10.5492 9.54043 10.803Z" fill="#005BA1"/>
<path fill-rule="evenodd" clip-rule="evenodd" d="M8 1V4.5C8 5.32843 8.67157 6 9.5 6H13V10.6538L10.5909 9.62129C10.3703 9.52673 10.1395 9.48919 9.91508 9.50209C9.7558 9.05084 9.3838 8.68338 8.88652 8.55077C8.08606 8.33732 7.26412 8.81318 7.05067 9.61363L6.98319 9.86669C6.5626 9.50236 5.95495 9.38738 5.40914 9.62129L3 10.6538V2.5C3 1.67157 3.67157 1 4.5 1H8Z" fill="#5CAAE5"/>
<path d="M9 1.25V4.5C9 4.77614 9.22386 5 9.5 5H12.75L9 1.25Z" fill="#005BA1"/>
</svg>
