<svg width="16" height="16" viewBox="0 0 16 16" fill="none" xmlns="http://www.w3.org/2000/svg">
<path fill-rule="evenodd" clip-rule="evenodd" d="M4 2H7V3.5C7 4.32843 7.67157 5 8.5 5H14V12C14 13.1046 13.1046 14 12 14H9.74284C10.5282 13.0491 11 11.8296 11 10.5C11 7.46243 8.53757 5 5.5 5C4.17037 5 2.95094 5.47182 2 6.25716V4C2 2.89543 2.89543 2 4 2ZM12 2C13.1046 2 14 2.89543 14 4H8.5C8.22386 4 8 3.77614 8 3.5V2H12Z" fill="#C4C4C4"/>
<path fill-rule="evenodd" clip-rule="evenodd" d="M5.5 15C7.98528 15 10 12.9853 10 10.5C10 8.01472 7.98528 6 5.5 6C3.01472 6 1 8.01472 1 10.5C1 12.9853 3.01472 15 5.5 15ZM7.35355 8.64645C7.54882 8.84171 7.54882 9.15829 7.35355 9.35355L6.20711 10.5L7.35355 11.6464C7.54882 11.8417 7.54882 12.1583 7.35355 12.3536C7.15829 12.5488 6.84171 12.5488 6.64645 12.3536L5.5 11.2071L4.35355 12.3536C4.15829 12.5488 3.84171 12.5488 3.64645 12.3536C3.45118 12.1583 3.45118 11.8417 3.64645 11.6464L4.79289 10.5L3.64645 9.35355C3.45118 9.15829 3.45118 8.84171 3.64645 8.64645C3.84171 8.45118 4.15829 8.45118 4.35355 8.64645L5.5 9.79289L6.64645 8.64645C6.84171 8.45118 7.15829 8.45118 7.35355 8.64645Z" fill="#888888"/>
</svg>
