<svg width="16" height="16" viewBox="0 0 16 16" fill="none" xmlns="http://www.w3.org/2000/svg">
<path d="M4 5.00488C4 4.4526 4.44772 4.00488 5 4.00488H8C8.55228 4.00488 9 4.4526 9 5.00488H4Z" fill="#FAA06B"/>
<path fill-rule="evenodd" clip-rule="evenodd" d="M6.00014 10.9883C6.00005 10.9756 6 10.9629 6 10.9502C6 9.82437 6.37209 8.78545 7 7.94971V7.20488C7 6.54214 6.46274 6.00488 5.8 6.00488H3.2C2.53726 6.00488 2 6.54214 2 7.20488V9.80488C2 10.4676 2.53726 11.0049 3.2 11.0049H5.8C5.86819 11.0049 5.93506 10.9992 6.00014 10.9883Z" fill="#FAA06B"/>
<path fill-rule="evenodd" clip-rule="evenodd" d="M8.00156 6.94866C8.6497 6.46222 9.41988 6.12957 10.2579 6.00488H9C8.46658 6.00488 8.03071 6.42253 8.00156 6.94866Z" fill="#FAA06B"/>
<path fill-rule="evenodd" clip-rule="evenodd" d="M10 5.00488C10 4.4526 10.4477 4.00488 11 4.00488H12C13.392 4.00488 14.5626 4.95292 14.9012 6.23854C14.6261 5.9095 14.2125 5.7002 13.75 5.7002C13.6751 5.7002 13.6015 5.70568 13.5296 5.71627C13.1627 5.28124 12.6136 5.00488 12 5.00488L10 5.00488Z" fill="#FAA06B"/>
<path d="M13.75 6.7002C14.0261 6.7002 14.25 6.92405 14.25 7.2002V8.9502C14.25 9.22634 14.0261 9.4502 13.75 9.4502H12C11.7239 9.4502 11.5 9.22634 11.5 8.9502C11.5 8.67405 11.7239 8.4502 12 8.4502H12.659C12.1839 8.13414 11.6139 7.9502 11 7.9502C9.34315 7.9502 8 9.29334 8 10.9502C8 12.607 9.34315 13.9502 11 13.9502C12.6569 13.9502 14 12.607 14 10.9502C14 10.6741 14.2239 10.4502 14.5 10.4502C14.7761 10.4502 15 10.6741 15 10.9502C15 13.1593 13.2091 14.9502 11 14.9502C8.79086 14.9502 7 13.1593 7 10.9502C7 8.74106 8.79086 6.9502 11 6.9502C11.8338 6.9502 12.6089 7.20578 13.25 7.6426V7.2002C13.25 6.92405 13.4739 6.7002 13.75 6.7002Z" fill="#DE590B"/>
</svg>
