<svg width="16" height="16" viewBox="0 0 16 16" fill="none" xmlns="http://www.w3.org/2000/svg">
<path d="M9.04928 1.38443C9.56185 0.871857 10.3929 0.871856 10.9055 1.38443L14.6179 5.09682C15.1304 5.60939 15.1304 6.44044 14.6179 6.95301L7.5 14H11.533C11.7746 14 12.0078 14.2584 12.0078 14.5C12.0078 14.7416 11.7746 15.0005 11.533 15.0005H6.09409C5.73552 15.0193 5.3707 14.8917 5.09682 14.6179L1.38443 10.9055C0.871857 10.3929 0.871857 9.56185 1.38443 9.04928L9.04928 1.38443ZM7.81031 12.5231L3.47919 8.19197L2.00316 9.66801C1.8323 9.83886 1.8323 10.1159 2.00316 10.2867L5.71555 13.9991C5.88641 14.17 6.16342 14.17 6.33428 13.9991L7.81031 12.5231Z" fill="#DE590B"/>
</svg>
