<svg width="16" height="16" viewBox="0 0 16 16" fill="none" xmlns="http://www.w3.org/2000/svg">
<path fill-rule="evenodd" clip-rule="evenodd" d="M8 4.5V1H4.5C3.67157 1 3 1.67157 3 2.5V9.09681C3.06537 9.0737 3.13281 9.05501 3.20198 9.04107C3.35053 9.01087 3.50082 9.00395 3.64798 9.01869C3.89513 9.0429 4.12469 9.1271 4.32191 9.25653C4.48095 9.36048 4.62179 9.4957 4.73415 9.65876C4.78064 9.72592 4.82179 9.79706 4.85698 9.87156L5.49993 11.1575L6.14314 9.87104C6.17761 9.79814 6.21778 9.72848 6.26307 9.66261C6.37667 9.49665 6.51968 9.35936 6.68137 9.25431C6.87765 9.12625 7.10576 9.04291 7.35125 9.01875C7.49817 9.00398 7.64823 9.01079 7.79656 9.0408C8.00292 9.08219 8.19397 9.16593 8.36027 9.28257C8.52345 9.39649 8.65839 9.53908 8.76162 9.69986C8.78972 9.74346 8.81562 9.78861 8.83917 9.83515C8.89276 9.7822 8.94904 9.73107 9.00804 9.68187C9.64531 9.15035 10.4018 9.01133 10.9721 9.0007C11.5537 8.98985 12.1153 9.10669 12.5541 9.26989C12.6944 9.32204 12.848 9.38844 13 9.47249V6H9.5C8.67157 6 8 5.32843 8 4.5Z" fill="#C6B1DE"/>
<path fill-rule="evenodd" clip-rule="evenodd" d="M13 11.012C13 10.8315 12.9179 10.6976 12.8598 10.6235C12.7983 10.5449 12.7253 10.484 12.6612 10.4383C12.5317 10.3461 12.3711 10.2688 12.2055 10.2072C11.8717 10.0831 11.4345 9.99225 10.9907 10.0005C10.5506 10.0087 10.0484 10.1163 9.64848 10.4498C9.23101 10.798 8.99998 11.3292 8.99997 12.0239V13.0239C8.99997 13.6626 9.24583 14.1656 9.64332 14.5063C10.0276 14.8357 10.5175 14.9837 10.977 15.0049C11.4349 15.026 11.912 14.9236 12.2915 14.6923C12.6772 14.4572 13 14.0577 13 13.512V12.712C13 12.3254 12.6866 12.012 12.3 12.012H11.5C11.2238 12.012 11 12.2358 11 12.512C11 12.7881 11.2238 13.012 11.5 13.012H12V13.512C12 13.6162 11.9477 13.7307 11.771 13.8384C11.588 13.95 11.315 14.0194 11.023 14.0059C10.7324 13.9926 10.4724 13.8999 10.2941 13.7471C10.1291 13.6056 9.99997 13.3852 9.99997 13.0239V12.0239C9.99998 11.5623 10.144 11.3387 10.289 11.2178C10.4516 11.0822 10.6994 11.0061 11.0093 11.0003C11.3154 10.9946 11.6283 11.0594 11.857 11.1445C11.9467 11.1778 12.0113 11.2098 12.0519 11.234C12.1336 11.3987 12.3036 11.5119 12.4999 11.5119C12.7761 11.512 12.9999 11.2881 13 11.012ZM5.49988 13.3935L7.04688 10.2995C7.06269 10.2658 7.08214 10.2341 7.10475 10.205C7.13118 10.1709 7.16153 10.1409 7.19482 10.1153C7.27923 10.0502 7.38503 10.0115 7.49988 10.0115H7.50028C7.51231 10.0115 7.52437 10.0119 7.53643 10.0128C7.63993 10.0203 7.73469 10.0592 7.81118 10.1202C7.84808 10.1495 7.88006 10.1834 7.90667 10.2207C7.95473 10.2878 7.9866 10.3673 7.99655 10.4535C7.99924 10.4763 8.00037 10.4994 7.99988 10.5225V14.5114C7.99988 14.7876 7.77602 15.0114 7.49988 15.0114C7.22374 15.0114 6.99988 14.7876 6.99988 14.5114V12.6296L5.94935 14.7306C5.92534 14.78 5.89315 14.8256 5.85353 14.8652C5.80855 14.9102 5.75584 14.9456 5.69871 14.9703C5.63416 14.9984 5.56656 15.0117 5.49988 15.0116C5.4332 15.0117 5.3656 14.9984 5.30105 14.9703C5.24392 14.9456 5.19121 14.9102 5.14623 14.8652C5.10661 14.8256 5.07442 14.78 5.05042 14.7306L3.99988 12.6296V14.5114C3.99988 14.7876 3.77602 15.0114 3.49988 15.0114C3.22374 15.0114 2.99988 14.7876 2.99988 14.5114V10.5223C2.99942 10.5002 3.00043 10.4782 3.00287 10.4565C3.01252 10.3682 3.04513 10.2869 3.09461 10.2186C3.12033 10.1829 3.15096 10.1504 3.18615 10.1221C3.26324 10.0599 3.35919 10.0202 3.46407 10.0127C3.47588 10.0119 3.48769 10.0115 3.49948 10.0115H3.49988C3.61363 10.0115 3.71852 10.0495 3.80253 10.1134C3.83796 10.1403 3.87012 10.1722 3.89783 10.2087C3.9192 10.2368 3.93767 10.2671 3.9528 10.2994L5.49988 13.3935ZM1.99994 10.5115C1.99994 10.2353 1.77608 10.0115 1.49994 10.0115C1.2238 10.0115 0.999939 10.2353 0.999939 10.5115V14.5114C0.999939 14.7876 1.2238 15.0114 1.49994 15.0114C1.77608 15.0114 1.99994 14.7876 1.99994 14.5114V10.5115Z" fill="#5C2E91"/>
<path d="M9 4.5V1.25L12.75 5H9.5C9.22386 5 9 4.77614 9 4.5Z" fill="#5C2E91"/>
</svg>
