<svg width="16" height="16" viewBox="0 0 16 16" fill="none" xmlns="http://www.w3.org/2000/svg">
<path fill-rule="evenodd" clip-rule="evenodd" d="M7.5 5V2H4.5C3.11929 2 2 3.11929 2 4.5V5H7.5ZM8.5 6.3306V2H11.5C12.8807 2 14 3.11929 14 4.5V7.17674C13.101 6.49819 11.9115 6 10.5 6C9.97336 6 9.47495 6.06999 9.00965 6.19437L8.5 6.3306ZM5.88191 6H2V11.5C2 12.8807 3.11929 14 4.5 14H7.247C6.98758 13.8242 6.74937 13.6328 6.53376 13.4324C5.64508 12.6063 5 11.4851 5 10.5C5 9.94272 5.21063 9.36401 5.50222 8.85775C5.64323 8.61291 5.81282 8.36798 6.00893 8.13025L5.93934 8.06066C5.37337 7.49469 5.35422 6.58896 5.88191 6Z" fill="#C6B1DE"/>
<path fill-rule="evenodd" clip-rule="evenodd" d="M7.35355 6.64645C7.15829 6.45118 6.84171 6.45118 6.64645 6.64645C6.45118 6.84171 6.45118 7.15829 6.64645 7.35355L7.41859 8.1257C6.5105 8.884 6 9.85903 6 10.5C6 11.7 7.739 14 10.5 14C11.3489 14 12.1011 13.7809 12.7359 13.4431L13.6464 14.3536C13.8417 14.5488 14.1583 14.5488 14.3536 14.3536C14.5488 14.1583 14.5488 13.8417 14.3536 13.6464L7.35355 6.64645ZM11.8785 12.5856L11.1464 11.8536C11.1226 11.8649 11.0985 11.8757 11.074 11.8858C10.7999 11.9993 10.4983 12.0291 10.2074 11.9712C9.91639 11.9133 9.64912 11.7704 9.43934 11.5607C9.22956 11.3509 9.0867 11.0836 9.02882 10.7926C8.97094 10.5017 9.00065 10.2001 9.11418 9.92597C9.12431 9.90151 9.13508 9.87736 9.14645 9.85355L8.41439 9.1215C8.23656 9.39056 8.11157 9.69285 8.04804 10.0123C7.95157 10.4972 8.00108 10.9999 8.1903 11.4567C8.37952 11.9135 8.69995 12.304 9.11107 12.5787C9.5222 12.8534 10.0055 13 10.5 13C10.9938 13 11.4726 12.8539 11.8785 12.5856ZM13 10.5C13 10.6231 12.9909 10.7453 12.9731 10.8657L14.2734 12.166C14.7443 11.5734 15 10.9532 15 10.5C15 9.3 13.261 7 10.5 7C10.0626 7 9.65098 7.05804 9.26788 7.16045L10.1343 8.02689C10.581 7.96083 11.0381 8.01691 11.4567 8.1903C11.9135 8.37952 12.304 8.69995 12.5787 9.11107C12.8534 9.5222 13 10.0055 13 10.5Z" fill="#7C52AB"/>
</svg>
