<svg width="16" height="16" viewBox="0 0 16 16" fill="none" xmlns="http://www.w3.org/2000/svg">
<path d="M2 3C2 2.44772 2.44772 2 3 2C3.55228 2 4 2.44772 4 3C4 3.55228 3.55228 4 3 4C2.44772 4 2 3.55228 2 3Z" fill="#DE590B"/>
<path d="M12 3C12 2.44772 12.4477 2 13 2C13.5523 2 14 2.44772 14 3C14 3.55228 13.5523 4 13 4C12.4477 4 12 3.55228 12 3Z" fill="#DE590B"/>
<path d="M12 13C12 12.4477 12.4477 12 13 12C13.5523 12 14 12.4477 14 13C14 13.5523 13.5523 14 13 14C12.4477 14 12 13.5523 12 13Z" fill="#DE590B"/>
<path d="M2 13C2 12.4477 2.44772 12 3 12C3.55228 12 4 12.4477 4 13C4 13.5523 3.55228 14 3 14C2.44772 14 2 13.5523 2 13Z" fill="#DE590B"/>
<path fill-rule="evenodd" clip-rule="evenodd" d="M2.5 4.93699V8C2.5 9.10457 3.39543 10 4.5 10H8C9.10457 10 10 9.10457 10 8V4.5C10 3.39543 9.10457 2.5 8 2.5H4.93699C4.97812 2.65981 5 2.82735 5 3C5 3.36429 4.90261 3.70583 4.73244 4H8C8.27614 4 8.5 4.22386 8.5 4.5V8C8.5 8.27614 8.27614 8.5 8 8.5H4.5C4.22386 8.5 4 8.27614 4 8V4.73244C3.70583 4.90261 3.36429 5 3 5C2.82735 5 2.65981 4.97812 2.5 4.93699Z" fill="#FAA06B"/>
<path fill-rule="evenodd" clip-rule="evenodd" d="M7.5 11.5V8C7.5 7.72386 7.72386 7.5 8 7.5H11.5C11.7761 7.5 12 7.72386 12 8V11.2676C12.2942 11.0974 12.6357 11 13 11C13.1726 11 13.3402 11.0219 13.5 11.063V8C13.5 6.89543 12.6046 6 11.5 6H8C6.89543 6 6 6.89543 6 8V11.5C6 12.6046 6.89543 13.5 8 13.5H11.063C11.0219 13.3402 11 13.1726 11 13C11 12.6357 11.0974 12.2942 11.2676 12H8C7.72386 12 7.5 11.7761 7.5 11.5Z" fill="#FAA06B"/>
</svg>
