<svg width="16" height="16" viewBox="0 0 16 16" fill="none" xmlns="http://www.w3.org/2000/svg">
<path fill-rule="evenodd" clip-rule="evenodd" d="M4 2H12C12.5523 2 13 2.47197 13 3.05418V4.72588C13 5.00547 12.8946 5.2736 12.7071 5.4713L12.1307 6.07891C11.7671 5.99471 11.3885 5.9502 11 5.9502C8.23858 5.9502 6 8.18877 6 10.9502V8.76173C6 8.48215 5.89464 8.21402 5.70711 8.01632L3.29289 5.4713C3.10536 5.2736 3 5.00547 3 4.72588V3.05418C3 2.47197 3.44772 2 4 2Z" fill="#C4C4C4"/>
<path d="M13.75 6.7002C14.0261 6.7002 14.25 6.92405 14.25 7.2002V8.9502C14.25 9.22634 14.0261 9.4502 13.75 9.4502H12C11.7239 9.4502 11.5 9.22634 11.5 8.9502C11.5 8.67405 11.7239 8.4502 12 8.4502H12.659C12.1839 8.13414 11.6139 7.9502 11 7.9502C9.34315 7.9502 8 9.29334 8 10.9502C8 12.607 9.34315 13.9502 11 13.9502C12.6569 13.9502 14 12.607 14 10.9502C14 10.6741 14.2239 10.4502 14.5 10.4502C14.7761 10.4502 15 10.6741 15 10.9502C15 13.1593 13.2091 14.9502 11 14.9502C8.79086 14.9502 7 13.1593 7 10.9502C7 8.74106 8.79086 6.9502 11 6.9502C11.8338 6.9502 12.6089 7.20578 13.25 7.6426V7.2002C13.25 6.92405 13.4739 6.7002 13.75 6.7002Z" fill="#686868"/>
</svg>
