<svg width="16" height="16" viewBox="0 0 16 16" fill="none" xmlns="http://www.w3.org/2000/svg">
<path fill-rule="evenodd" clip-rule="evenodd" d="M4.5 2C3.11929 2 2 3.11929 2 4.5V11.5C2 12.8807 3.11929 14 4.5 14H9.24576C9.08806 13.7602 9 13.476 9 13.1793V13H6.5V3H9.5V5H10.5V3H11.5C12.3284 3 13 3.67157 13 4.5V5H14V4.5C14 3.11929 12.8807 2 11.5 2H4.5ZM3 4.5C3 3.67157 3.67157 3 4.5 3H5.5V13H4.5C3.67157 13 3 12.3284 3 11.5V4.5Z" fill="#C4C4C4"/>
<path d="M8 6.49633C8 6.22221 8.22386 6 8.5 6H14.5C14.7761 6 15 6.22221 15 6.49633V7.77973C15 7.91136 14.9473 8.0376 14.8536 8.13068L13.1464 9.82525C13.0527 9.91833 13 10.0446 13 10.1762V14.5028C13 14.8993 12.5549 15.1357 12.2227 14.9158L10.2226 13.5923C10.0836 13.5002 10 13.3452 10 13.1793V10.1762C10 10.0446 9.94732 9.91833 9.85355 9.82525L8.14645 8.13068C8.05268 8.0376 8 7.91136 8 7.77973V6.49633Z" fill="#888888"/>
</svg>
