<svg width="16" height="16" viewBox="0 0 16 16" fill="none" xmlns="http://www.w3.org/2000/svg">
<path fill-rule="evenodd" clip-rule="evenodd" d="M2.50049 7.9502C2.50049 7.53598 2.83628 7.2002 3.25049 7.2002H4.20882C4.62304 7.2002 4.95882 7.53598 4.95882 7.9502C4.95882 8.36441 4.62304 8.7002 4.20882 8.7002H3.25049C2.83628 8.7002 2.50049 8.36441 2.50049 7.9502ZM5.37549 7.9502C5.37549 7.53598 5.71127 7.2002 6.12549 7.2002H7.08382C7.49804 7.2002 7.83382 7.53598 7.83382 7.9502C7.83382 8.36441 7.49804 8.7002 7.08382 8.7002H6.12549C5.71127 8.7002 5.37549 8.36441 5.37549 7.9502ZM8.25049 7.9502C8.25049 7.53598 8.58627 7.2002 9.00049 7.2002H9.95882C10.373 7.2002 10.7088 7.53598 10.7088 7.9502C10.7088 8.36441 10.373 8.7002 9.95882 8.7002H9.00049C8.58627 8.7002 8.25049 8.36441 8.25049 7.9502ZM11.1255 7.9502C11.1255 7.53598 11.4613 7.2002 11.8755 7.2002H12.8338C13.248 7.2002 13.5838 7.53598 13.5838 7.9502C13.5838 8.36441 13.248 8.7002 12.8338 8.7002H11.8755C11.4613 8.7002 11.1255 8.36441 11.1255 7.9502Z" fill="#5CAAE5"/>
<path fill-rule="evenodd" clip-rule="evenodd" d="M7.46967 6.53033C7.54158 6.60224 7.62445 6.65649 7.71291 6.69309C7.80134 6.72976 7.89831 6.75 8 6.75C8.19194 6.75 8.38388 6.67678 8.53033 6.53033L10.0303 5.03033C10.3232 4.73744 10.3232 4.26256 10.0303 3.96967C9.73744 3.67678 9.26256 3.67678 8.96967 3.96967L8.75 4.18934V1.5C8.75 1.08579 8.41421 0.75 8 0.75C7.58579 0.75 7.25 1.08579 7.25 1.5V4.18934L7.03033 3.96967C6.73744 3.67678 6.26256 3.67678 5.96967 3.96967C5.67678 4.26256 5.67678 4.73744 5.96967 5.03033L7.46967 6.53033Z" fill="#006CBF"/>
<path fill-rule="evenodd" clip-rule="evenodd" d="M7.46967 9.46967C7.54158 9.39776 7.62445 9.34351 7.71291 9.30691C7.80134 9.27024 7.89831 9.25 8 9.25C8.19194 9.25 8.38388 9.32322 8.53033 9.46967L10.0303 10.9697C10.3232 11.2626 10.3232 11.7374 10.0303 12.0303C9.73744 12.3232 9.26256 12.3232 8.96967 12.0303L8.75 11.8107V14.5C8.75 14.9142 8.41421 15.25 8 15.25C7.58579 15.25 7.25 14.9142 7.25 14.5V11.8107L7.03033 12.0303C6.73744 12.3232 6.26256 12.3232 5.96967 12.0303C5.67678 11.7374 5.67678 11.2626 5.96967 10.9697L7.46967 9.46967Z" fill="#0078D4"/>
</svg>
