<svg width="16" height="16" viewBox="0 0 16 16" fill="none" xmlns="http://www.w3.org/2000/svg">
<path fill-rule="evenodd" clip-rule="evenodd" d="M11.5 3H4.5C3.67157 3 3 3.67157 3 4.5V5H13V4.5C13 3.67157 12.3284 3 11.5 3ZM4.5 2C3.11929 2 2 3.11929 2 4.5V6H14V4.5C14 3.11929 12.8807 2 11.5 2H4.5Z" fill="#888888"/>
<path fill-rule="evenodd" clip-rule="evenodd" d="M14 6H13V11.5C13 12.3284 12.3284 13 11.5 13H10.5V6H9.5V13H6.5V6H5.5V13H4.5C3.67157 13 3 12.3284 3 11.5V6H2V11.5C2 12.8807 3.11929 14 4.5 14H11.5C12.8807 14 14 12.8807 14 11.5V6Z" fill="#C4C4C4"/>
</svg>
