<svg width="16" height="16" viewBox="0 0 16 16" fill="none" xmlns="http://www.w3.org/2000/svg">
<path fill-rule="evenodd" clip-rule="evenodd" d="M4.5 2C3.11929 2 2 3.11929 2 4.5V5.75777C2.30851 5.55127 2.64397 5.3819 3 5.25606V4.5C3 3.67157 3.67157 3 4.5 3H5.5V5.11151C5.85065 5.19107 6.18575 5.31159 6.5 5.46776V3H9.5V12.3787L10.5607 13.4393C10.7244 13.6031 10.8424 13.7953 10.9146 14H11.5C12.8807 14 14 12.8807 14 11.5V4.5C14 3.11929 12.8807 2 11.5 2H4.5ZM11.5 13H10.5V3H11.5C12.3284 3 13 3.67157 13 4.5V11.5C13 12.3284 12.3284 13 11.5 13Z" fill="#C4C4C4"/>
<path fill-rule="evenodd" clip-rule="evenodd" d="M6.59615 12.3031C6.01185 12.7408 5.2862 13 4.5 13C2.567 13 1 11.433 1 9.5C1 7.567 2.567 6 4.5 6C6.433 6 8 7.567 8 9.5C8 10.2861 7.74082 11.0117 7.30324 11.596L9.85356 14.1464C10.0488 14.3417 10.0488 14.6583 9.85355 14.8535C9.65828 15.0488 9.3417 15.0488 9.14644 14.8535L6.59615 12.3031ZM7 9.5C7 10.8807 5.88071 12 4.5 12C3.11929 12 2 10.8807 2 9.5C2 8.11929 3.11929 7 4.5 7C5.88071 7 7 8.11929 7 9.5Z" fill="#888888"/>
</svg>
