<svg width="16" height="16" viewBox="0 0 16 16" fill="none" xmlns="http://www.w3.org/2000/svg">
<path d="M1 4.5C1 3.11929 2.11929 2 3.5 2H5.37868C5.7765 2 6.15804 2.15804 6.43934 2.43934L8 4L6.43934 5.56066C6.15804 5.84197 5.7765 6 5.37868 6H1V4.5Z" fill="#C4C4C4"/>
<path d="M13.75 6.7002C14.0261 6.7002 14.25 6.92405 14.25 7.2002V8.9502C14.25 9.22634 14.0261 9.4502 13.75 9.4502H12C11.7239 9.4502 11.5 9.22634 11.5 8.9502C11.5 8.67405 11.7239 8.4502 12 8.4502H12.659C12.1839 8.13414 11.6139 7.9502 11 7.9502C9.34315 7.9502 8 9.29334 8 10.9502C8 12.607 9.34315 13.9502 11 13.9502C12.6569 13.9502 14 12.607 14 10.9502C14 10.6741 14.2239 10.4502 14.5 10.4502C14.7761 10.4502 15 10.6741 15 10.9502C15 13.1593 13.2091 14.9502 11 14.9502C8.79086 14.9502 7 13.1593 7 10.9502C7 8.74106 8.79086 6.9502 11 6.9502C11.8338 6.9502 12.6089 7.20578 13.25 7.6426V7.2002C13.25 6.92405 13.4739 6.7002 13.75 6.7002Z" fill="#686868"/>
<path fill-rule="evenodd" clip-rule="evenodd" d="M5.37868 6H1V11.5C1 12.8807 2.11929 14 3.5 14H7.03753C6.38694 13.156 6 12.0983 6 10.9502C6 8.18877 8.23858 5.9502 11 5.9502C11.5649 5.9502 12.1089 6.04433 12.6165 6.21771C12.8915 5.90069 13.2974 5.7002 13.75 5.7002C14.2694 5.7002 14.7272 5.96423 14.9964 6.36542C14.9265 5.04728 13.8356 4 12.5 4H8L6.43934 5.56066C6.15804 5.84196 5.7765 6 5.37868 6ZM15 10.9502C15 10.8992 14.9924 10.85 14.9782 10.8037L14.9997 10.9975L15 10.9502Z" fill="#C4C4C4"/>
</svg>
