<svg width="16" height="16" viewBox="0 0 16 16" fill="none" xmlns="http://www.w3.org/2000/svg">
<path fill-rule="evenodd" clip-rule="evenodd" d="M11.6465 2.64645C11.8418 2.45118 12.1583 2.45118 12.3536 2.64645L13.8536 4.14645C14.0489 4.34171 14.0489 4.65829 13.8536 4.85355C13.8519 4.85528 13.8501 4.85699 13.8484 4.85869L12.3535 6.35361C12.1582 6.54887 11.8416 6.54887 11.6464 6.35361C11.4511 6.15835 11.4511 5.84176 11.6464 5.6465L12.2928 5.0001H9.49988C9.22374 5.0001 8.99988 4.77624 8.99988 4.5001C8.99988 4.22396 9.22374 4.0001 9.49988 4.0001L12.293 4.0001L11.6465 3.35355C11.4512 3.15829 11.4512 2.84171 11.6465 2.64645Z" fill="#006CBF"/>
<path fill-rule="evenodd" clip-rule="evenodd" d="M4.35345 2.64645C4.15819 2.45118 3.84161 2.45118 3.64634 2.64645L2.14634 4.14645C1.95108 4.34171 1.95108 4.65829 2.14634 4.85355C2.14807 4.85528 2.14981 4.85699 2.15155 4.85869L3.64647 6.35361C3.84173 6.54887 4.15832 6.54887 4.35358 6.35361C4.54884 6.15835 4.54884 5.84176 4.35358 5.6465L3.70718 5.0001H6.50006C6.7762 5.0001 7.00006 4.77624 7.00006 4.5001C7.00006 4.22396 6.7762 4.0001 6.50006 4.0001L3.7069 4.0001L4.35345 3.35355C4.54871 3.15829 4.54871 2.84171 4.35345 2.64645Z" fill="#006CBF"/>
<path fill-rule="evenodd" clip-rule="evenodd" d="M4 8C2.89543 8 2 8.89543 2 10V12C2 13.1046 2.89543 14 4 14H12C13.1046 14 14 13.1046 14 12V10C14 8.89543 13.1046 8 12 8H4ZM5 10.5C4.72386 10.5 4.5 10.7239 4.5 11C4.5 11.2761 4.72386 11.5 5 11.5H11C11.2761 11.5 11.5 11.2761 11.5 11C11.5 10.7239 11.2761 10.5 11 10.5H5Z" fill="#5CAAE5"/>
</svg>
