<svg width="16" height="16" viewBox="0 0 16 16" fill="none" xmlns="http://www.w3.org/2000/svg">
<path fill-rule="evenodd" clip-rule="evenodd" d="M5.20505 1.49369C5.09727 1.1973 4.81558 1 4.5002 1C4.18482 1 3.90314 1.1973 3.79536 1.49369L1.79536 6.99369C1.6538 7.38297 1.85462 7.81329 2.2439 7.95484C2.63317 8.0964 3.06349 7.89558 3.20505 7.50631L3.38916 7H5.61125L5.79536 7.50631C5.93691 7.89558 6.36724 8.0964 6.75651 7.95484C7.14579 7.81329 7.3466 7.38297 7.20505 6.99369L5.20505 1.49369ZM3.93462 5.5L4.5002 3.94463L5.06579 5.5H3.93462ZM2.00098 9.74982C2.00098 9.3356 2.33677 8.99982 2.75098 8.99982H6.25098C6.29791 8.99982 6.34417 9.0042 6.38926 9.01265C6.13856 9.60852 6 10.2632 6 10.9502C6 11.0611 6.00361 11.1712 6.01073 11.2804L4.28443 13.5H6.25098C6.6652 13.5 7.00098 13.8358 7.00098 14.25C7.00098 14.6642 6.6652 15 6.25098 15H2.75098C2.46453 15 2.2031 14.8368 2.07725 14.5795C1.9514 14.3222 1.9831 14.0157 2.15896 13.7895L4.71754 10.4998H2.75098C2.33677 10.4998 2.00098 10.164 2.00098 9.74982ZM8.50037 1.74999C8.50037 1.33578 8.83616 1 9.25039 1H12.7505C13.0369 1 13.2983 1.16316 13.4242 1.42047C13.5501 1.67779 13.5184 1.98432 13.3425 2.21043L10.7839 5.5001H12.7505C12.9786 5.5001 13.1829 5.60193 13.3204 5.76261C13.0439 5.84512 12.8008 6.00524 12.6165 6.21771C12.1089 6.04433 11.5649 5.9502 11 5.9502C10.1201 5.9502 9.29334 6.17747 8.57513 6.57651C8.45104 6.31983 8.4832 6.01485 8.65835 5.78965L11.217 2.49998H9.25039C8.83616 2.49998 8.50037 2.1642 8.50037 1.74999Z" fill="#C6B1DE"/>
<path d="M13.75 6.7002C14.0261 6.7002 14.25 6.92405 14.25 7.2002V8.9502C14.25 9.22634 14.0261 9.4502 13.75 9.4502H12C11.7239 9.4502 11.5 9.22634 11.5 8.9502C11.5 8.67405 11.7239 8.4502 12 8.4502H12.659C12.1839 8.13414 11.6139 7.9502 11 7.9502C9.34315 7.9502 8 9.29334 8 10.9502C8 12.607 9.34315 13.9502 11 13.9502C12.6569 13.9502 14 12.607 14 10.9502C14 10.6741 14.2239 10.4502 14.5 10.4502C14.7761 10.4502 15 10.6741 15 10.9502C15 13.1593 13.2091 14.9502 11 14.9502C8.79086 14.9502 7 13.1593 7 10.9502C7 8.74106 8.79086 6.9502 11 6.9502C11.8338 6.9502 12.6089 7.20578 13.25 7.6426V7.2002C13.25 6.92405 13.4739 6.7002 13.75 6.7002Z" fill="#5C2E91"/>
</svg>
