<svg width="16" height="16" viewBox="0 0 16 16" fill="none" xmlns="http://www.w3.org/2000/svg">
<path fill-rule="evenodd" clip-rule="evenodd" d="M2.21967 6.28033C2.51256 6.57322 2.98744 6.57322 3.28033 6.28033L5 4.56066V11.4393L3.28033 9.71967C2.98744 9.42678 2.51256 9.42678 2.21967 9.71967C1.92678 10.0126 1.92678 10.4874 2.21967 10.7803L5.21967 13.7803C5.51256 14.0732 5.98744 14.0732 6.28033 13.7803L6.64763 13.413C6.23537 12.6861 6 11.8456 6 10.9502C6 10.1679 6.17967 9.42751 6.5 8.76813V4.56066L8.21967 6.28033C8.35835 6.41901 8.53783 6.49203 8.71947 6.49938C8.91194 6.40057 9.11164 6.31387 9.31759 6.2403C9.57265 5.94565 9.56023 5.49957 9.28033 5.21967L6.28033 2.21967C5.98744 1.92678 5.51256 1.92678 5.21967 2.21967L2.21967 5.21967C1.92678 5.51256 1.92678 5.98744 2.21967 6.28033Z" fill="#C6B1DE"/>
<path d="M13.75 6.7002C14.0261 6.7002 14.25 6.92405 14.25 7.2002V8.9502C14.25 9.22634 14.0261 9.4502 13.75 9.4502H12C11.7239 9.4502 11.5 9.22634 11.5 8.9502C11.5 8.67405 11.7239 8.4502 12 8.4502H12.659C12.1839 8.13414 11.6139 7.9502 11 7.9502C9.34315 7.9502 8 9.29334 8 10.9502C8 12.607 9.34315 13.9502 11 13.9502C12.6569 13.9502 14 12.607 14 10.9502C14 10.6741 14.2239 10.4502 14.5 10.4502C14.7761 10.4502 15 10.6741 15 10.9502C15 13.1593 13.2091 14.9502 11 14.9502C8.79086 14.9502 7 13.1593 7 10.9502C7 8.74106 8.79086 6.9502 11 6.9502C11.8338 6.9502 12.6089 7.20578 13.25 7.6426V7.2002C13.25 6.92405 13.4739 6.7002 13.75 6.7002Z" fill="#7C52AB"/>
</svg>
