<svg width="16" height="16" viewBox="0 0 16 16" fill="none" xmlns="http://www.w3.org/2000/svg">
<path fill-rule="evenodd" clip-rule="evenodd" d="M2.50049 7.9502C2.50049 7.53598 2.83628 7.2002 3.25049 7.2002H4.20882C4.62304 7.2002 4.95882 7.53598 4.95882 7.9502C4.95882 8.36441 4.62304 8.7002 4.20882 8.7002H3.25049C2.83628 8.7002 2.50049 8.36441 2.50049 7.9502ZM5.37549 7.9502C5.37549 7.53598 5.71127 7.2002 6.12549 7.2002H7.08382C7.49804 7.2002 7.83382 7.53598 7.83382 7.9502C7.83382 8.36441 7.49804 8.7002 7.08382 8.7002H6.12549C5.71127 8.7002 5.37549 8.36441 5.37549 7.9502ZM8.25049 7.9502C8.25049 7.53598 8.58627 7.2002 9.00049 7.2002H9.95882C10.373 7.2002 10.7088 7.53598 10.7088 7.9502C10.7088 8.36441 10.373 8.7002 9.95882 8.7002H9.00049C8.58627 8.7002 8.25049 8.36441 8.25049 7.9502ZM11.1255 7.9502C11.1255 7.53598 11.4613 7.2002 11.8755 7.2002H12.8338C13.248 7.2002 13.5838 7.53598 13.5838 7.9502C13.5838 8.36441 13.248 8.7002 12.8338 8.7002H11.8755C11.4613 8.7002 11.1255 8.36441 11.1255 7.9502Z" fill="#006CBF"/>
<path fill-rule="evenodd" clip-rule="evenodd" d="M7.46967 0.96967C7.54158 0.897763 7.62445 0.843509 7.71291 0.806909C7.80134 0.770239 7.89831 0.75 8 0.75C8.19194 0.75 8.38388 0.823223 8.53033 0.96967L10.0303 2.46967C10.3232 2.76256 10.3232 3.23744 10.0303 3.53033C9.73744 3.82322 9.26256 3.82322 8.96967 3.53033L8.75 3.31066V6C8.75 6.41421 8.41421 6.75 8 6.75C7.58579 6.75 7.25 6.41421 7.25 6V3.31066L7.03033 3.53033C6.73744 3.82322 6.26256 3.82322 5.96967 3.53033C5.67678 3.23744 5.67678 2.76256 5.96967 2.46967L7.46967 0.96967Z" fill="#006CBF"/>
<path fill-rule="evenodd" clip-rule="evenodd" d="M7.46967 15.0303C7.54158 15.1022 7.62445 15.1565 7.71291 15.1931C7.80134 15.2298 7.89831 15.25 8 15.25C8.19194 15.25 8.38388 15.1768 8.53033 15.0303L10.0303 13.5303C10.3232 13.2374 10.3232 12.7626 10.0303 12.4697C9.73744 12.1768 9.26256 12.1768 8.96967 12.4697L8.75 12.6893V10C8.75 9.58579 8.41421 9.25 8 9.25C7.58579 9.25 7.25 9.58579 7.25 10V12.6893L7.03033 12.4697C6.73744 12.1768 6.26256 12.1768 5.96967 12.4697C5.67678 12.7626 5.67678 13.2374 5.96967 13.5303L7.46967 15.0303Z" fill="#5CAAE5"/>
</svg>
