<svg width="16" height="16" viewBox="0 0 16 16" fill="none" xmlns="http://www.w3.org/2000/svg">
<path d="M7.16744 3.71429C7.16744 3.3198 6.87825 3 6.52151 3H2.64593C2.28919 3 2 3.3198 2 3.71429C2 4.10877 2.28919 4.42857 2.64593 4.42857H6.52151C6.87825 4.42857 7.16744 4.10877 7.16744 3.71429ZM7.16744 6.57143C7.16744 6.17694 6.87825 5.85714 6.52151 5.85714H2.64593C2.28919 5.85714 2 6.17694 2 6.57143C2 6.96592 2.28919 7.28571 2.64593 7.28571H6.52151C6.87825 7.28571 7.16744 6.96592 7.16744 6.57143ZM7.16744 9.42857C7.16744 9.03408 6.87825 8.71429 6.52151 8.71429H2.64593C2.28919 8.71429 2 9.03408 2 9.42857C2 9.82306 2.28919 10.1429 2.64593 10.1429H6.52151C6.87825 10.1429 7.16744 9.82306 7.16744 9.42857ZM7.16744 12.2857C7.16744 11.8912 6.87825 11.5714 6.52151 11.5714H2.64593C2.28919 11.5714 2 11.8912 2 12.2857C2 12.6802 2.28919 13 2.64593 13H6.52151C6.87825 13 7.16744 12.6802 7.16744 12.2857Z" fill="#C6B1DE"/>
<path d="M14 3.71429C14 3.3198 13.7108 3 13.3541 3H9.47849C9.12175 3 8.83256 3.3198 8.83256 3.71429C8.83256 4.10877 9.12175 4.42857 9.47849 4.42857H13.3541C13.7108 4.42857 14 4.10877 14 3.71429ZM14 6.57143C14 6.17694 13.7108 5.85714 13.3541 5.85714H9.47849C9.12175 5.85714 8.83256 6.17694 8.83256 6.57143C8.83256 6.96592 9.12175 7.28571 9.47849 7.28571H13.3541C13.7108 7.28571 14 6.96592 14 6.57143ZM14 9.42857C14 9.03408 13.7108 8.71429 13.3541 8.71429H9.47849C9.12175 8.71429 8.83256 9.03408 8.83256 9.42857C8.83256 9.82306 9.12175 10.1429 9.47849 10.1429H13.3541C13.7108 10.1429 14 9.82306 14 9.42857ZM14 12.2857C14 11.8912 13.7108 11.5714 13.3541 11.5714H9.47849C9.12175 11.5714 8.83256 11.8912 8.83256 12.2857C8.83256 12.6802 9.12175 13 9.47849 13H13.3541C13.7108 13 14 12.6802 14 12.2857Z" fill="#9470BD"/>
</svg>
