<svg width="16" height="16" viewBox="0 0 16 16" fill="none" xmlns="http://www.w3.org/2000/svg">
<path fill-rule="evenodd" clip-rule="evenodd" d="M11.5 13H4.5C3.67157 13 3 12.3284 3 11.5V11H13V11.5C13 12.3284 12.3284 13 11.5 13ZM4.5 14C3.11929 14 2 12.8807 2 11.5V10H14V11.5C14 12.8807 12.8807 14 11.5 14H4.5Z" fill="#5C2E91"/>
<path fill-rule="evenodd" clip-rule="evenodd" d="M4.5 2C3.11929 2 2 3.11929 2 4.5V10H3V4.5C3 3.67157 3.67157 3 4.5 3H5.5V10H6.5V3H9.5V10H10.5V3H11.5C12.3284 3 13 3.67157 13 4.5V10H14V4.5C14 3.11929 12.8807 2 11.5 2H4.5Z" fill="#C6B1DE"/>
</svg>
