<svg width="16" height="16" viewBox="0 0 16 16" fill="none" xmlns="http://www.w3.org/2000/svg">
<path fill-rule="evenodd" clip-rule="evenodd" d="M4 2H7V3.5C7 4.32843 7.67157 5 8.5 5H14V12C14 13.1046 13.1046 14 12 14H9.74284C10.5282 13.0491 11 11.8296 11 10.5C11 7.46243 8.53757 5 5.5 5C4.17037 5 2.95094 5.47182 2 6.25716V4C2 2.89543 2.89543 2 4 2ZM12 2C13.1046 2 14 2.89543 14 4H8.5C8.22386 4 8 3.77614 8 3.5V2H12Z" fill="#54B054"/>
<path fill-rule="evenodd" clip-rule="evenodd" d="M5.5 15C7.98528 15 10 12.9853 10 10.5C10 8.01472 7.98528 6 5.5 6C3.01472 6 1 8.01472 1 10.5C1 12.9853 3.01472 15 5.5 15ZM5.5 8C5.77614 8 6 8.22386 6 8.5V10H7.5C7.77614 10 8 10.2239 8 10.5C8 10.7761 7.77614 11 7.5 11H6V12.5C6 12.7761 5.77614 13 5.5 13C5.22386 13 5 12.7761 5 12.5L5 11H3.5C3.22386 11 3 10.7761 3 10.5C3 10.2239 3.22386 10 3.5 10H5V8.5C5 8.22386 5.22386 8 5.5 8Z" fill="#107C10"/>
</svg>
