<svg width="16" height="16" viewBox="0 0 16 16" fill="none" xmlns="http://www.w3.org/2000/svg">
<path fill-rule="evenodd" clip-rule="evenodd" d="M4 2H12C12.5523 2 13 2.47197 13 3.05418V4.72588C13 5.00547 12.8946 5.2736 12.7071 5.4713L10.3084 8H8.5C7.67157 8 7 8.67157 7 9.5C7 9.88418 7.14443 10.2346 7.38195 10.5C7.14443 10.7654 7 11.1158 7 11.5C7 11.8842 7.14443 12.2346 7.38195 12.5C7.23059 12.6691 7.11704 12.8727 7.05457 13.0977L6.55279 12.8332C6.214 12.6546 6 12.2896 6 11.8903V8.76173C6 8.48215 5.89464 8.21401 5.70711 8.01632L3.29289 5.4713C3.10536 5.2736 3 5.00547 3 4.72588V3.05418C3 2.47197 3.44772 2 4 2Z" fill="#FAA06B"/>
<path d="M8 9.5C8 9.22386 8.22386 9 8.5 9H13.5C13.7761 9 14 9.22386 14 9.5C14 9.77614 13.7761 10 13.5 10H8.5C8.22386 10 8 9.77614 8 9.5ZM8 11.5C8 11.2239 8.22386 11 8.5 11H13.5C13.7761 11 14 11.2239 14 11.5C14 11.7761 13.7761 12 13.5 12H8.5C8.22386 12 8 11.7761 8 11.5ZM8.5 13C8.22386 13 8 13.2239 8 13.5C8 13.7761 8.22386 14 8.5 14H13.5C13.7761 14 14 13.7761 14 13.5C14 13.2239 13.7761 13 13.5 13H8.5Z" fill="#DE590B"/>
</svg>
