<svg width="16" height="16" viewBox="0 0 16 16" fill="none" xmlns="http://www.w3.org/2000/svg">
<path d="M2 3.71429C2 2.76751 2.76751 2 3.71429 2H4.57143L4.57143 5C4.57143 5.71008 5.14706 6.28572 5.85714 6.28572L9.28571 6.28571C9.99579 6.28571 10.5714 5.71008 10.5714 5V2H10.896C11.3507 2 11.7867 2.18061 12.1082 2.5021L13.4979 3.89181C13.8194 4.2133 14 4.64933 14 5.10399V12.2857C14 13.2325 13.2325 14 12.2857 14V9.28571C12.2857 8.57563 11.7101 8 11 8H5C4.28992 8 3.71429 8.57563 3.71429 9.28572L3.71429 14C2.76751 14 2 13.2325 2 12.2857V3.71429ZM9.71429 2H5.42857L5.42857 5C5.42857 5.23669 5.62045 5.42857 5.85714 5.42857L9.28571 5.42857C9.52241 5.42857 9.71429 5.23669 9.71429 5V2ZM11.4286 9.28571V14H4.57143V9.28571C4.57143 9.04902 4.76331 8.85714 5 8.85714H11C11.2367 8.85714 11.4286 9.04902 11.4286 9.28571Z" fill="#DE590B"/>
</svg>
