<svg width="16" height="16" viewBox="0 0 16 16" fill="none" xmlns="http://www.w3.org/2000/svg">
<path d="M8.78261 2.78261C8.78261 2.35039 8.43222 2 8 2C7.56778 2 7.21739 2.35039 7.21739 2.78261V7.21739H2.78261C2.35039 7.21739 2 7.56778 2 8C2 8.43222 2.35039 8.78261 2.78261 8.78261H7.21739V13.2174C7.21739 13.6496 7.56778 14 8 14C8.43222 14 8.78261 13.6496 8.78261 13.2174V8.78261H13.2174C13.6496 8.78261 14 8.43222 14 8C14 7.56778 13.6496 7.21739 13.2174 7.21739H8.78261V2.78261Z" fill="#DE590B"/>
</svg>
