<svg width="16" height="16" viewBox="0 0 16 16" fill="none" xmlns="http://www.w3.org/2000/svg">
<path fill-rule="evenodd" clip-rule="evenodd" d="M2.75 3C2.33579 3 2 3.33579 2 3.75C2 4.16421 2.33579 4.5 2.75 4.5H13.25C13.6642 4.5 14 4.16421 14 3.75C14 3.33579 13.6642 3 13.25 3H2.75ZM2.75 7C2.33579 7 2 7.33579 2 7.75C2 8.16421 2.33579 8.5 2.75 8.5H6.67709C6.90965 8.29474 7.19031 8.14272 7.5 8.06301V8C7.5 7.64936 7.56015 7.31278 7.67071 7H2.75ZM13.3308 7.0043C13.4404 7.31586 13.5 7.65097 13.5 8V8.06301C13.6237 8.09485 13.7428 8.13823 13.856 8.19194C13.9466 8.068 14 7.91524 14 7.75C14 7.36309 13.707 7.04461 13.3308 7.0043ZM6 11V12.5H2.75C2.33579 12.5 2 12.1642 2 11.75C2 11.3358 2.33579 11 2.75 11H6Z" fill="#5CAAE5"/>
<path d="M8.5 9V8C8.5 6.89543 9.39543 6 10.5 6C11.6046 6 12.5 6.89543 12.5 8V9H13C13.5523 9 14 9.44772 14 10V14C14 14.5523 13.5523 15 13 15H8C7.44771 15 7 14.5523 7 14V10C7 9.44772 7.44772 9 8 9H8.5ZM9.5 8V9H11.5V8C11.5 7.44772 11.0523 7 10.5 7C9.94772 7 9.5 7.44772 9.5 8ZM11.25 12C11.25 11.5858 10.9142 11.25 10.5 11.25C10.0858 11.25 9.75 11.5858 9.75 12C9.75 12.4142 10.0858 12.75 10.5 12.75C10.9142 12.75 11.25 12.4142 11.25 12Z" fill="#006CBF"/>
</svg>
