<svg width="16" height="16" viewBox="0 0 16 16" fill="none" xmlns="http://www.w3.org/2000/svg">
<path d="M1 6H5.37868C5.7765 6 6.15804 5.84196 6.43934 5.56066L8 4H12.5C13.8807 4 15 5.11929 15 6.5V11.5C15 12.8807 13.8807 14 12.5 14H3.5C2.11929 14 1 12.8807 1 11.5V6Z" fill="#FAA06B"/>
<path d="M1 4.5C1 3.11929 2.11929 2 3.5 2H5.37868C5.7765 2 6.15804 2.15804 6.43934 2.43934L8 4L6.43934 5.56066C6.15804 5.84197 5.7765 6 5.37868 6H1V4.5Z" fill="#DE590B"/>
<path fill-rule="evenodd" clip-rule="evenodd" d="M4 9.5C4 8.94771 4.44772 8.5 5 8.5C5.55228 8.5 6 8.94771 6 9.5C6 10.0523 5.55228 10.5 5 10.5C4.44772 10.5 4 10.0523 4 9.5ZM7 9.5C7 8.94771 7.44772 8.5 8 8.5C8.55229 8.5 9 8.94771 9 9.5C9 10.0523 8.55229 10.5 8 10.5C7.44772 10.5 7 10.0523 7 9.5ZM11 8.5C10.4477 8.5 10 8.94771 10 9.5C10 10.0523 10.4477 10.5 11 10.5C11.5523 10.5 12 10.0523 12 9.5C12 8.94771 11.5523 8.5 11 8.5Z" fill="#DE590B"/>
</svg>
