<svg width="16" height="16" viewBox="0 0 16 16" fill="none" xmlns="http://www.w3.org/2000/svg">
<path d="M2 6.5C2 6.22386 2.22386 6 2.5 6H4.5C4.77614 6 5 6.22386 5 6.5C5 6.77614 4.77614 7 4.5 7H2.5C2.22386 7 2 6.77614 2 6.5Z" fill="#006CBF"/>
<path d="M2 4.5C2 4.22386 2.22386 4 2.5 4H5.5C5.77614 4 6 4.22386 6 4.5C6 4.77614 5.77614 5 5.5 5H2.5C2.22386 5 2 4.77614 2 4.5Z" fill="#006CBF"/>
<path d="M2 9.2C2 8.53726 2.53726 8 3.2 8H12.8C13.4627 8 14 8.53726 14 9.2V10.8C14 11.4627 13.4627 12 12.8 12H3.2C2.53726 12 2 11.4627 2 10.8V9.2Z" fill="#5CAAE5"/>
</svg>
