<svg width="16" height="16" viewBox="0 0 16 16" fill="none" xmlns="http://www.w3.org/2000/svg">
<path fill-rule="evenodd" clip-rule="evenodd" d="M2.75 8C2.75 7.58579 3.08579 7.25 3.5 7.25H12.5C12.9142 7.25 13.25 7.58579 13.25 8C13.25 8.41421 12.9142 8.75 12.5 8.75H3.5C3.08579 8.75 2.75 8.41421 2.75 8Z" fill="#5CAAE5"/>
<path fill-rule="evenodd" clip-rule="evenodd" d="M7.46967 6.53033C7.54158 6.60224 7.62445 6.65649 7.71291 6.69309C7.80134 6.72976 7.89831 6.75 8 6.75C8.19194 6.75 8.38388 6.67678 8.53033 6.53033L10.0303 5.03033C10.3232 4.73744 10.3232 4.26256 10.0303 3.96967C9.73744 3.67678 9.26256 3.67678 8.96967 3.96967L8.75 4.18934V1.5C8.75 1.08579 8.41421 0.75 8 0.75C7.58579 0.75 7.25 1.08579 7.25 1.5V4.18934L7.03033 3.96967C6.73744 3.67678 6.26256 3.67678 5.96967 3.96967C5.67678 4.26256 5.67678 4.73744 5.96967 5.03033L7.46967 6.53033Z" fill="#006CBF"/>
<path fill-rule="evenodd" clip-rule="evenodd" d="M7.46967 9.46967C7.54158 9.39776 7.62445 9.34351 7.71291 9.30691C7.80134 9.27024 7.89831 9.25 8 9.25C8.19194 9.25 8.38388 9.32322 8.53033 9.46967L10.0303 10.9697C10.3232 11.2626 10.3232 11.7374 10.0303 12.0303C9.73744 12.3232 9.26256 12.3232 8.96967 12.0303L8.75 11.8107V14.5C8.75 14.9142 8.41421 15.25 8 15.25C7.58579 15.25 7.25 14.9142 7.25 14.5V11.8107L7.03033 12.0303C6.73744 12.3232 6.26256 12.3232 5.96967 12.0303C5.67678 11.7374 5.67678 11.2626 5.96967 10.9697L7.46967 9.46967Z" fill="#006CBF"/>
</svg>
