<svg width="16" height="16" viewBox="0 0 16 16" fill="none" xmlns="http://www.w3.org/2000/svg">
<path fill-rule="evenodd" clip-rule="evenodd" d="M14.1464 14.8536L1.14645 1.85355C0.951184 1.65829 0.951184 1.34171 1.14645 1.14645C1.34171 0.951184 1.65829 0.951184 1.85355 1.14645L14.8536 14.1464C15.0488 14.3417 15.0488 14.6583 14.8536 14.8536C14.6583 15.0488 14.3417 15.0488 14.1464 14.8536Z" fill="#006CBF"/>
<path fill-rule="evenodd" clip-rule="evenodd" d="M3 3.7679V4.75C3 5.16421 3.33579 5.5 3.75 5.5C4.01652 5.5 4.25058 5.36098 4.3836 5.1515L3 3.7679ZM7.49999 8.26788V13H6.24998C5.83577 13 5.49998 13.3358 5.49998 13.75C5.49998 14.1642 5.83577 14.5 6.24998 14.5H10.25C10.6642 14.5 11 14.1642 11 13.75C11 13.3358 10.6642 13 10.25 13H8.99999V9.76788L7.49999 8.26788ZM7.49999 4V5.43943L8.99999 6.93943V4H12V4.75C12 5.16421 12.3358 5.5 12.75 5.5C13.1642 5.5 13.5 5.16421 13.5 4.75V3.25C13.5 2.83579 13.1642 2.5 12.75 2.5H4.56055L6.06055 4H7.49999Z" fill="#5CAAE5"/>
</svg>
