<svg width="16" height="16" viewBox="0 0 16 16" fill="none" xmlns="http://www.w3.org/2000/svg">
<path d="M10.5289 1.76386C11.5525 0.740171 13.2123 0.740172 14.236 1.76386C15.2596 2.78755 15.2596 4.44728 14.236 5.47097L13.4571 6.24979L9.75002 2.54269L10.5289 1.76386ZM9.04292 3.24979L2.65722 9.63549C2.28304 10.0097 2.01623 10.4775 1.88467 10.99L1.01571 14.3755C0.971767 14.5467 1.02148 14.7284 1.14646 14.8534C1.27144 14.9783 1.45312 15.028 1.62432 14.9841L5.00978 14.1151C5.52234 13.9836 5.99015 13.7168 6.36433 13.3426L12.75 6.9569L9.04292 3.24979Z" fill="#006CBF"/>
<path fill-rule="evenodd" clip-rule="evenodd" d="M7.5 14.5C7.5 14.2239 7.72386 14 8 14H14.5C14.7761 14 15 14.2239 15 14.5C15 14.7761 14.7761 15 14.5 15H8C7.72386 15 7.5 14.7761 7.5 14.5Z" fill="#5CAAE5"/>
</svg>
