<svg width="16" height="16" viewBox="0 0 16 16" fill="none" xmlns="http://www.w3.org/2000/svg">
<path d="M2 7C2 6.72386 2.22386 6.5 2.5 6.5H5.5C5.77614 6.5 6 6.72386 6 7C6 7.27614 5.77614 7.5 5.5 7.5H2.5C2.22386 7.5 2 7.27614 2 7Z" fill="#006CBF"/>
<path d="M2 9C2 8.72386 2.22386 8.5 2.5 8.5H4.5C4.77614 8.5 5 8.72386 5 9C5 9.27614 4.77614 9.5 4.5 9.5H2.5C2.22386 9.5 2 9.27614 2 9Z" fill="#006CBF"/>
<path d="M7 7.2C7 6.53726 7.53726 6 8.2 6H12.8C13.4627 6 14 6.53726 14 7.2V8.8C14 9.46274 13.4627 10 12.8 10H8.2C7.53726 10 7 9.46274 7 8.8V7.2Z" fill="#5CAAE5"/>
</svg>
