<svg width="16" height="16" viewBox="0 0 16 16" fill="none" xmlns="http://www.w3.org/2000/svg">
<path d="M5.16476 13.8352C5.38442 14.0549 5.74059 14.0549 5.96025 13.8352C6.17992 13.6156 6.17992 13.2595 5.96025 13.0398L3.9205 11H8.75001C9.99269 11 11 9.99269 11 8.75001V3.9205L13.0398 5.96025C13.2595 6.17992 13.6156 6.17992 13.8352 5.96025C14.0549 5.74059 14.0549 5.38443 13.8352 5.16476L10.8352 2.16475C10.6156 1.94508 10.2595 1.94508 10.0398 2.16475L7.03976 5.16476C6.82009 5.38443 6.82009 5.74059 7.03976 5.96025C7.25943 6.17992 7.61559 6.17992 7.83526 5.96025L9.87501 3.9205V8.75001C9.87501 9.37133 9.37133 9.87501 8.75001 9.87501H3.9205L5.96025 7.83526C6.17992 7.61559 6.17992 7.25943 5.96025 7.03976C5.74059 6.82009 5.38442 6.82009 5.16476 7.03976L2.16475 10.0398C1.94508 10.2595 1.94508 10.6156 2.16475 10.8352L5.16476 13.8352Z" fill="#006CBF"/>
</svg>
