<svg width="16" height="16" viewBox="0 0 16 16" fill="none" xmlns="http://www.w3.org/2000/svg">
<path fill-rule="evenodd" clip-rule="evenodd" d="M4.5 3H11.5C12.3284 3 13 3.67157 13 4.5V5H10.5H3V4.5C3 3.67157 3.67157 3 4.5 3ZM14 6.25716V4.5C14 3.11929 12.8807 2 11.5 2H4.5C3.11929 2 2 3.11929 2 4.5V11.5C2 12.8807 3.11929 14 4.5 14H6.25716C5.95554 13.6348 5.70016 13.2299 5.5 12.7945V13H4.5C3.67157 13 3 12.3284 3 11.5V6H5.5V8.20551C5.75187 7.65757 6.09115 7.15813 6.5 6.72506V6H7.33692C8.23159 5.36997 9.32259 5 10.5 5C11.8296 5 13.0491 5.47182 14 6.25716Z" fill="#5CAAE5"/>
<path fill-rule="evenodd" clip-rule="evenodd" d="M6.63459 9.91995C7.72254 9.64203 8.36854 8.52312 8.06525 7.44197L7.90905 6.88518C8.16313 6.68988 8.43852 6.52258 8.73094 6.3877L9.06831 6.74567C9.85725 7.58279 11.188 7.58349 11.9778 6.7472L12.3025 6.40341C12.6003 6.54393 12.8801 6.7182 13.1373 6.92148L13.0111 7.34378C12.6818 8.44593 13.3478 9.59805 14.4672 9.86273L14.8162 9.94525C14.8378 10.127 14.8489 10.3121 14.8489 10.4999C14.8489 10.6559 14.8412 10.81 14.8263 10.9619L14.3657 11.0796C13.2778 11.3575 12.6318 12.4764 12.9351 13.5575L13.0912 14.1142C12.8372 14.3095 12.5618 14.4769 12.2694 14.6118L11.932 14.2538C11.1431 13.4167 9.81231 13.416 9.02249 14.2523L8.69751 14.5964C8.39978 14.4559 8.12004 14.2817 7.86285 14.0785L7.98919 13.6557C8.31853 12.5536 7.65254 11.4015 6.53311 11.1368L6.18354 11.0541C6.16198 10.8725 6.15088 10.6875 6.15088 10.4999C6.15088 10.3438 6.15855 10.1897 6.17353 10.0377L6.63459 9.91995ZM11.4999 10.4999C11.4999 11.0521 11.0522 11.4999 10.4999 11.4999C9.94761 11.4999 9.4999 11.0521 9.4999 10.4999C9.4999 9.94757 9.94761 9.49985 10.4999 9.49985C11.0522 9.49985 11.4999 9.94757 11.4999 10.4999Z" fill="#006CBF"/>
</svg>
