<svg width="48" height="48" viewBox="0 0 48 48" fill="none" xmlns="http://www.w3.org/2000/svg">
<path d="M4 12.75C4 10.1266 6.12665 8 8.75 8H39.25C41.8734 8 44 10.1266 44 12.75V31.25C44 33.6523 42.2166 35.6381 39.9015 35.9557C39.7616 35.4003 39.4744 34.8783 39.0481 34.452L38.0961 33.5H39.25C40.4926 33.5 41.5 32.4926 41.5 31.25V12.75C41.5 11.5074 40.4926 10.5 39.25 10.5H8.75C7.50736 10.5 6.5 11.5074 6.5 12.75V31.25C6.5 32.4926 7.50736 33.5 8.75 33.5H18V36H8.75C6.12665 36 4 33.8734 4 31.25V12.75Z" fill="#888888"/>
<path d="M22.1339 22.3659C21.7764 22.0084 21.2387 21.9015 20.7716 22.095C20.3046 22.2884 20 22.7442 20 23.2498V44.7498C20 45.2991 20.3586 45.784 20.8837 45.945C21.4089 46.1059 21.9776 45.9052 22.2854 45.4502L27.2462 38.1167C27.4237 37.8543 27.7469 37.7318 28.0537 37.8104L36.4395 39.9606C36.9851 40.1005 37.5569 39.8583 37.8359 39.369C38.1149 38.8797 38.0322 38.2642 37.6339 37.8659L22.1339 22.3659ZM22.5 40.6711V26.2676L32.6372 36.4048L28.6747 35.3888C27.3451 35.0479 25.9446 35.579 25.1755 36.7159L22.5 40.6711Z" fill="black"/>
</svg>
