<svg width="16" height="16" viewBox="0 0 16 16" fill="none" xmlns="http://www.w3.org/2000/svg">
<path fill-rule="evenodd" clip-rule="evenodd" d="M11 4.00488C10.4477 4.00488 10 4.4526 10 5.00488L12 5.00488C13.1046 5.00488 14 5.90031 14 7.00488V9.00488C14.5523 9.00488 15 8.55717 15 8.00488V7.00488C15 5.34803 13.6569 4.00488 12 4.00488H11Z" fill="#E37D80"/>
<path d="M2 7.20488C2 6.54214 2.53726 6.00488 3.2 6.00488H5.8C6.46274 6.00488 7 6.54214 7 7.20488V9.80488C7 10.4676 6.46274 11.0049 5.8 11.0049H3.2C2.53726 11.0049 2 10.4676 2 9.80488V7.20488Z" fill="#BC2F32"/>
<path d="M8 7.00488C8 6.4526 8.44772 6.00488 9 6.00488H12C12.5523 6.00488 13 6.4526 13 7.00488V10.0049C13 10.5572 12.5523 11.0049 12 11.0049H9C8.44772 11.0049 8 10.5572 8 10.0049V7.00488Z" fill="#BC2F32"/>
<path d="M4 5.00488C4 4.4526 4.44772 4.00488 5 4.00488H8C8.55228 4.00488 9 4.4526 9 5.00488H4Z" fill="#E37D80"/>
</svg>
