<svg width="16" height="16" viewBox="0 0 16 16" fill="none" xmlns="http://www.w3.org/2000/svg">
<path fill-rule="evenodd" clip-rule="evenodd" d="M4 2C2.89543 2 2 2.89543 2 4V10C2 11.1046 2.89543 12 4 12H12C13.1046 12 14 11.1046 14 10V4C14 2.89543 13.1046 2 12 2H4ZM6 6C6 5.72386 5.77614 5.5 5.5 5.5C5.22386 5.5 5 5.72386 5 6V9.5C5 9.77614 5.22386 10 5.5 10C5.77614 10 6 9.77614 6 9.5V6ZM10.5 4C10.7761 4 11 4.22386 11 4.5V9.5C11 9.77614 10.7761 10 10.5 10C10.2239 10 10 9.77614 10 9.5V4.5C10 4.22386 10.2239 4 10.5 4ZM8.5 7.5C8.5 7.22386 8.27614 7 8 7C7.72386 7 7.5 7.22386 7.5 7.5V9.5C7.5 9.77614 7.72386 10 8 10C8.27614 10 8.5 9.77614 8.5 9.5V7.5Z" fill="#006CBF"/>
<path fill-rule="evenodd" clip-rule="evenodd" d="M9 12H10V13H11.5C11.7761 13 12 13.2239 12 13.5C12 13.7761 11.7761 14 11.5 14H4.5C4.22386 14 4 13.7761 4 13.5C4 13.2239 4.22386 13 4.5 13H6V12H7V13H9V12Z" fill="#006CBF"/>
<path fill-rule="evenodd" clip-rule="evenodd" d="M12 3H4C3.44772 3 3 3.44772 3 4V10C3 10.5523 3.44772 11 4 11H12C12.5523 11 13 10.5523 13 10V4C13 3.44772 12.5523 3 12 3ZM4 2C2.89543 2 2 2.89543 2 4V10C2 11.1046 2.89543 12 4 12H12C13.1046 12 14 11.1046 14 10V4C14 2.89543 13.1046 2 12 2H4Z" fill="#5CAAE5"/>
</svg>
