<svg width="16" height="16" viewBox="0 0 16 16" fill="none" xmlns="http://www.w3.org/2000/svg">
<path d="M1 3.5C1 2.67157 1.67157 2 2.5 2H3.5C4.32843 2 5 2.67157 5 3.5V12.5C5 13.3284 4.32843 14 3.5 14H2.5C1.67157 14 1 13.3284 1 12.5V3.5Z" fill="#0078D4"/>
<path d="M6 3.5C6 2.67157 6.67157 2 7.5 2H8.5C9.32843 2 10 2.67157 10 3.5V12.5C10 13.3284 9.32843 14 8.5 14H7.5C6.67157 14 6 13.3284 6 12.5V3.5Z" fill="#0078D4"/>
<path d="M11 3.5C11 2.67157 11.6716 2 12.5 2H13.5C14.3284 2 15 2.67157 15 3.5V12.5C15 13.3284 14.3284 14 13.5 14H12.5C11.6716 14 11 13.3284 11 12.5V3.5Z" fill="#0078D4"/>
</svg>
