<svg width="16" height="16" viewBox="0 0 16 16" fill="none" xmlns="http://www.w3.org/2000/svg">
<path fill-rule="evenodd" clip-rule="evenodd" d="M7.64728 2.14638C7.84268 1.95105 8.15946 1.95123 8.35464 2.14678C9.5947 3.38913 10.9689 4 12.5 4C12.7761 4 13 4.22386 13 4.5V6.56686C12.2781 6.22005 11.4381 6 10.5 6C8.82517 6 7.46483 6.70463 6.53132 7.57556C6.06553 8.01013 5.69355 8.49694 5.43341 8.9814C5.18097 9.45154 5 9.98351 5 10.5C5 11.4851 5.64508 12.6063 6.53376 13.4324C4.19476 12.243 3 10.2473 3 7.50126V4.5C3 4.22386 3.22386 4 3.5 4C5.02923 4 6.40416 3.38902 7.64728 2.14638ZM10.5 7C7.736 7 6 9.318 6 10.5C6 11.7 7.739 14 10.5 14C13.261 14 15 11.682 15 10.5C15 9.3 13.261 7 10.5 7ZM10.5 13C10.0055 13 9.5222 12.8534 9.11107 12.5787C8.69995 12.304 8.37952 11.9135 8.1903 11.4567C8.00108 10.9999 7.95157 10.4972 8.04804 10.0123C8.1445 9.52732 8.3826 9.08186 8.73223 8.73223C9.08186 8.3826 9.52732 8.1445 10.0123 8.04804C10.4972 7.95157 10.9999 8.00108 11.4567 8.1903C11.9135 8.37952 12.304 8.69995 12.5787 9.11107C12.8534 9.5222 13 10.0055 13 10.5C13 11.163 12.7366 11.7989 12.2678 12.2678C11.7989 12.7366 11.163 13 10.5 13ZM12 10.5C12 10.7967 11.912 11.0867 11.7472 11.3334C11.5824 11.58 11.3481 11.7723 11.074 11.8858C10.7999 11.9993 10.4983 12.0291 10.2074 11.9712C9.91639 11.9133 9.64912 11.7704 9.43934 11.5607C9.22956 11.3509 9.0867 11.0836 9.02882 10.7926C8.97094 10.5017 9.00065 10.2001 9.11418 9.92597C9.22771 9.65189 9.41997 9.41762 9.66665 9.2528C9.91332 9.08797 10.2033 9 10.5 9C10.8978 9 11.2794 9.15804 11.5607 9.43934C11.842 9.72064 12 10.1022 12 10.5Z" fill="black"/>
</svg>
