<svg width="48" height="48" viewBox="0 0 48 48" fill="none" xmlns="http://www.w3.org/2000/svg">
<path fill-rule="evenodd" clip-rule="evenodd" d="M24 4C12.9543 4 4 12.9543 4 24C4 35.0457 12.9543 44 24 44C35.0457 44 44 35.0457 44 24C44 12.9543 35.0457 4 24 4ZM6.5 24C6.5 14.335 14.335 6.5 24 6.5C33.665 6.5 41.5 14.335 41.5 24C41.5 33.665 33.665 41.5 24 41.5C14.335 41.5 6.5 33.665 6.5 24ZM12.1161 15.1161C12.6043 14.628 13.3957 14.628 13.8839 15.1161L16.5 17.7322L19.1161 15.1161C19.6043 14.628 20.3957 14.628 20.8839 15.1161C21.372 15.6043 21.372 16.3957 20.8839 16.8839L18.2678 19.5L20.8839 22.1161C21.372 22.6043 21.372 23.3957 20.8839 23.8839C20.3957 24.372 19.6043 24.372 19.1161 23.8839L16.5 21.2678L13.8839 23.8839C13.3957 24.372 12.6043 24.372 12.1161 23.8839C11.628 23.3957 11.628 22.6043 12.1161 22.1161L14.7322 19.5L12.1161 16.8839C11.628 16.3957 11.628 15.6043 12.1161 15.1161ZM27.1161 15.1161C27.6043 14.628 28.3957 14.628 28.8839 15.1161L31.5 17.7322L34.1161 15.1161C34.6043 14.628 35.3957 14.628 35.8839 15.1161C36.372 15.6043 36.372 16.3957 35.8839 16.8839L33.2678 19.5L35.8839 22.1161C36.372 22.6043 36.372 23.3957 35.8839 23.8839C35.3957 24.372 34.6043 24.372 34.1161 23.8839L31.5 21.2678L28.8839 23.8839C28.3957 24.372 27.6043 24.372 27.1161 23.8839C26.628 23.3957 26.628 22.6043 27.1161 22.1161L29.7322 19.5L27.1161 16.8839C26.628 16.3957 26.628 15.6043 27.1161 15.1161ZM24 28C21.2386 28 19 30.2386 19 33C19 35.7614 21.2386 38 24 38C26.7614 38 29 35.7614 29 33C29 30.2386 26.7614 28 24 28Z" fill="black"/>
</svg>
