<svg width="16" height="16" viewBox="0 0 16 16" fill="none" xmlns="http://www.w3.org/2000/svg">
<path d="M9 11.5C9 13.9853 6.98528 16 4.5 16C2.01472 16 0 13.9853 0 11.5C0 9.01472 2.01472 7 4.5 7C6.98528 7 9 9.01472 9 11.5ZM6.85355 9.64645C6.65829 9.45118 6.34171 9.45118 6.14645 9.64645L3.5 12.2929L2.85355 11.6464C2.65829 11.4512 2.34171 11.4512 2.14645 11.6464C1.95118 11.8417 1.95118 12.1583 2.14645 12.3536L3.14645 13.3536C3.34171 13.5488 3.65829 13.5488 3.85355 13.3536L6.85355 10.3536C7.04882 10.1583 7.04882 9.84171 6.85355 9.64645Z" fill="#0E700E"/>
<path d="M15 7.0271C15 3.69841 12.3014 1 8.97302 1C5.91981 1 3.39631 3.27071 3 6.21559C3.46301 6.08978 3.95005 6.02258 4.45279 6.02258C7.50405 6.02258 9.97752 8.49611 9.97752 11.5474C9.97752 12.0502 9.91032 12.5372 9.78476 13C12.7296 12.6037 15 10.0806 15 7.0271Z" fill="#54B054"/>
<path d="M8.5 4C8.22386 4 8 4.22386 8 4.5V7.3125C8.23828 7.53906 8.46484 7.73828 8.6875 8H10.4789C10.7551 8 11 7.77614 11 7.5C11 7.22386 10.7551 7 10.4789 7H9V4.5C9 4.22386 8.77614 4 8.5 4Z" fill="#0C5E0C"/>
</svg>
