<svg width="16" height="16" viewBox="0 0 16 16" fill="none" xmlns="http://www.w3.org/2000/svg">
<path fill-rule="evenodd" clip-rule="evenodd" d="M15 6C15 2.68628 12.3135 0 9 0C5.68652 0 3 2.68628 3 6C3 6.34082 3.02832 6.6748 3.08301 7H6.32471C7.18457 7 8.02393 7.68188 7.99951 8.6875C7.97998 9.47876 7.81543 10.1082 7.54688 10.6248C7.33154 11.0383 7.06641 11.3474 6.81494 11.5898C7.49219 11.8547 8.229 12 9 12C12.3135 12 15 9.31372 15 6Z" fill="#9470BD"/>
<path d="M1.00154 8.94019C0.987119 8.38917 1.4806 8 2.00876 8H5.99247C6.52062 8 7.01409 8.38914 6.99969 8.94015C6.98451 9.52123 6.85577 9.96342 6.65979 10.3152C6.46429 10.6661 6.21107 10.9102 5.97521 11.1042C5.8937 11.1713 5.80989 11.2358 5.73355 11.2945C5.70266 11.3183 5.673 11.3411 5.6452 11.3628C5.54401 11.4417 5.46088 11.5103 5.393 11.5793C5.26557 11.7089 5.20096 11.8293 5.20096 12C5.20096 12.1708 5.26552 12.2913 5.39272 12.4208C5.46048 12.4898 5.54348 12.5584 5.64453 12.6373C5.67238 12.659 5.70211 12.6819 5.73307 12.7058C5.80923 12.7644 5.89283 12.8288 5.97413 12.8958C6.20974 13.0898 6.46274 13.3338 6.65825 13.6845C6.85424 14.0361 6.98325 14.478 6.99903 15.0589C7.01401 15.6103 6.52032 16 5.99178 16H2.00754C1.47902 16 0.985283 15.6103 1.00034 15.0589C1.01619 14.478 1.14539 14.036 1.34162 13.6844C1.53737 13.3336 1.79064 13.0896 2.02647 12.8957C2.10782 12.8287 2.19149 12.7644 2.2677 12.7057C2.29872 12.6819 2.3285 12.6589 2.3564 12.6372C2.45755 12.5583 2.54063 12.4897 2.60846 12.4207C2.73578 12.2912 2.80034 12.1708 2.80031 12C2.80028 11.8293 2.73565 11.7089 2.6082 11.5793C2.54032 11.5103 2.45719 11.4417 2.35599 11.3628C2.3282 11.3411 2.29854 11.3183 2.26766 11.2945C2.19132 11.2358 2.10751 11.1713 2.02599 11.1042C1.79015 10.9102 1.53695 10.6661 1.34146 10.3152C1.14548 9.96344 1.01674 9.52126 1.00154 8.94019ZM2.00876 8.57143C1.76607 8.57143 1.59673 8.74326 1.60151 8.92596C1.61473 9.43103 1.72502 9.78425 1.87164 10.0474C2.01874 10.3114 2.21167 10.5018 2.41841 10.6719C2.49211 10.7325 2.56324 10.7872 2.63628 10.8434C2.66908 10.8686 2.70227 10.8942 2.73626 10.9207C2.8412 11.0025 2.94994 11.0908 3.04627 11.1887C3.24724 11.3931 3.40041 11.6465 3.40047 12C3.40053 12.3533 3.24753 12.6068 3.04662 12.8112C2.95033 12.9091 2.84163 12.9974 2.73669 13.0793C2.70255 13.1059 2.66922 13.1315 2.63628 13.1569C2.5634 13.2129 2.49242 13.2675 2.41883 13.3281C2.21203 13.4982 2.01895 13.6885 1.8716 13.9525C1.72473 14.2157 1.61408 14.5688 1.6003 15.0737C1.59531 15.2565 1.76465 15.4286 2.00754 15.4286H5.99178C6.23466 15.4286 6.40404 15.2565 6.39907 15.0737C6.38535 14.5687 6.27483 14.2155 6.12813 13.9524C5.98095 13.6884 5.7881 13.4981 5.58154 13.328C5.50801 13.2674 5.43709 13.2128 5.36425 13.1567C5.33137 13.1314 5.29809 13.1058 5.26401 13.0792C5.15918 12.9973 5.05057 12.909 4.95437 12.8111C4.75363 12.6067 4.6008 12.3532 4.6008 12C4.6008 11.6466 4.75395 11.3931 4.95493 11.1887C5.05125 11.0908 5.15999 11.0025 5.26495 10.9207C5.29894 10.8941 5.33214 10.8686 5.36496 10.8434C5.43799 10.7872 5.50911 10.7325 5.58281 10.6718C5.78956 10.5017 5.98251 10.3114 6.12961 10.0474C6.27623 9.78423 6.38652 9.43101 6.39972 8.92594C6.40449 8.74325 6.23516 8.57143 5.99247 8.57143H2.00876Z" fill="#532982"/>
<path d="M8.00146 3.5C8.00146 3.22388 8.22559 3 8.50146 3C8.77783 3 9.00146 3.22388 9.00146 3.5V6H10.5C10.7764 6 11 6.22388 11 6.5C11 6.77612 10.7764 7 10.5 7H8.50146C8.22559 7 8.00146 6.77612 8.00146 6.5V3.5Z" fill="#46236E"/>
</svg>
