<svg width="16" height="16" viewBox="0 0 16 16" fill="none" xmlns="http://www.w3.org/2000/svg">
<path fill-rule="evenodd" clip-rule="evenodd" d="M4.5 16C6.98528 16 9 13.9853 9 11.5C9 9.01472 6.98528 7 4.5 7C2.01472 7 0 9.01472 0 11.5C0 13.9853 2.01472 16 4.5 16ZM3 9C3.27614 9 3.5 9.22386 3.5 9.5V13.5C3.5 13.7761 3.27614 14 3 14C2.72386 14 2.5 13.7761 2.5 13.5V9.5C2.5 9.22386 2.72386 9 3 9ZM6 9C6.27614 9 6.5 9.22386 6.5 9.5V13.5C6.5 13.7761 6.27614 14 6 14C5.72386 14 5.5 13.7761 5.5 13.5V9.5C5.5 9.22386 5.72386 9 6 9Z" fill="#DE590B"/>
<path d="M15 7.0271C15 3.69841 12.3014 1 8.97302 1C5.91981 1 3.39631 3.27071 3 6.21559C3.46301 6.08978 3.95005 6.02258 4.45279 6.02258C7.50405 6.02258 9.97752 8.49611 9.97752 11.5474C9.97752 12.0502 9.91032 12.5372 9.78476 13C12.7296 12.6037 15 10.0806 15 7.0271Z" fill="#FAA06B"/>
<path d="M8.5 4C8.22386 4 8 4.22386 8 4.5V7.3125C8.23828 7.53906 8.46484 7.73828 8.6875 8H10.4789C10.7551 8 11 7.77614 11 7.5C11 7.22386 10.7551 7 10.4789 7H9V4.5C9 4.22386 8.77614 4 8.5 4Z" fill="#BC4B09"/>
</svg>
