<svg width="16" height="16" viewBox="0 0 16 16" fill="none" xmlns="http://www.w3.org/2000/svg">
<path d="M8 2C11.3137 2 14 4.68629 14 8C14 11.3137 11.3137 14 8 14C4.68629 14 2 11.3137 2 8C2 4.68629 4.68629 2 8 2ZM7.50153 5C7.22538 5 7.00153 5.22386 7.00153 5.5V8.5C7.00153 8.77614 7.22538 9 7.50153 9H9.5C9.77614 9 10 8.77614 10 8.5C10 8.22386 9.77614 8 9.5 8H8.00153V5.5C8.00153 5.22386 7.77767 5 7.50153 5Z" fill="#5CAAE5"/>
<path d="M7.00146 5.5C7.00146 5.22386 7.22532 5 7.50146 5C7.77761 5 8.00146 5.22386 8.00146 5.5V8H9.49994C9.77608 8 9.99994 8.22386 9.99994 8.5C9.99994 8.77614 9.77608 9 9.49994 9H7.50146C7.22532 9 7.00146 8.77614 7.00146 8.5V5.5Z" fill="#005BA1"/>
</svg>
