<svg width="16" height="16" viewBox="0 0 16 16" fill="none" xmlns="http://www.w3.org/2000/svg">
<path d="M4 10H13C13.4067 10 13.6432 9.54032 13.4069 9.20938L11.1145 6L13.4069 2.79062C13.6432 2.45968 13.4067 2 13 2H3.5C3.22386 2 3 2.22386 3 2.5V10C3.5 10 3.22386 10 3.5 10C3.77614 10 3.46094 10 4 10Z" fill="#E37D80"/>
<path fill-rule="evenodd" clip-rule="evenodd" d="M3.5 2C3.77614 2 3.52735 2 4 2L4 13.4998C4 13.776 3.77614 14 3.5 14C3.22386 14 3 13.776 3 13.4998L3 2.50022C3 2.22396 3.22386 2 3.5 2Z" fill="#BC2F32"/>
</svg>
