<svg width="16" height="16" viewBox="0 0 16 16" fill="none" xmlns="http://www.w3.org/2000/svg">
<path fill-rule="evenodd" clip-rule="evenodd" d="M9.5 2H6.5C6.22386 2 6 2.22386 6 2.5C6 2.77614 6.22386 3 6.5 3H9.5C9.77614 3 10 2.77614 10 2.5C10 2.22386 9.77614 2 9.5 2ZM6.5 1C5.67157 1 5 1.67157 5 2.5C5 3.32843 5.67157 4 6.5 4H9.5C10.3284 4 11 3.32843 11 2.5C11 1.67157 10.3284 1 9.5 1H6.5Z" fill="#0F7B38"/>
<path fill-rule="evenodd" clip-rule="evenodd" d="M5 2.5C5 2.32468 5.03008 2.15639 5.08535 2H4.5C3.67157 2 3 2.67157 3 3.5V13.5C3 14.3284 3.67157 15 4.5 15H7.33692C5.92345 14.0046 5 12.3602 5 10.5C5 7.46243 7.46243 5 10.5 5C11.4002 5 12.2499 5.21628 13 5.59971V3.5C13 2.67157 12.3284 2 11.5 2H10.9146C10.9699 2.15639 11 2.32468 11 2.5C11 3.32843 10.3284 4 9.5 4H6.5C5.67157 4 5 3.32843 5 2.5Z" fill="#87BD9B"/>
<path fill-rule="evenodd" clip-rule="evenodd" d="M10.5 15C12.9853 15 15 12.9853 15 10.5C15 8.01472 12.9853 6 10.5 6C8.01472 6 6 8.01472 6 10.5C6 12.9853 8.01472 15 10.5 15ZM12.8536 9.35355C13.0488 9.15829 13.0488 8.84171 12.8536 8.64645C12.6583 8.45118 12.3417 8.45118 12.1464 8.64645L9.5 11.2929L8.85355 10.6464C8.65829 10.4512 8.34171 10.4512 8.14645 10.6464C7.95118 10.8417 7.95118 11.1583 8.14645 11.3536L9.14645 12.3536C9.34171 12.5488 9.65829 12.5488 9.85355 12.3536L12.8536 9.35355Z" fill="#0F7B38"/>
</svg>
