<svg width="16" height="16" viewBox="0 0 16 16" fill="none" xmlns="http://www.w3.org/2000/svg">
<path fill-rule="evenodd" clip-rule="evenodd" d="M8.5 4.5H4.5V8.5H8.5V4.5ZM3 3V10H10V3H3Z" fill="#006CBF"/>
<path d="M9 3C9 2.44772 9.44772 2 10 2C10.5523 2 11 2.44772 11 3C11 3.55228 10.5523 4 10 4C9.44772 4 9 3.55228 9 3Z" fill="#006CBF"/>
<path d="M2 3C2 2.44772 2.44772 2 3 2C3.55228 2 4 2.44772 4 3C4 3.55228 3.55228 4 3 4C2.44772 4 2 3.55228 2 3Z" fill="#006CBF"/>
<path d="M2 10C2 9.44772 2.44772 9 3 9C3.55228 9 4 9.44772 4 10C4 10.5523 3.55228 11 3 11C2.44772 11 2 10.5523 2 10Z" fill="#006CBF"/>
<path d="M9 10C9 9.44772 9.44772 9 10 9C10.5523 9 11 9.44772 11 10C11 10.5523 10.5523 11 10 11C9.44772 11 9 10.5523 9 10Z" fill="#006CBF"/>
<path d="M6 10.5V12C5.44775 12 5 12.4478 5 13C5 13.5522 5.44775 14 6 14C6.55225 14 7 13.5522 7 13H12C12 13.5522 12.4478 14 13 14C13.5522 14 14 13.5522 14 13C14 12.4478 13.5522 12 13 12V7C13.5522 7 14 6.55225 14 6C14 5.44775 13.5522 5 13 5C12.4478 5 12 5.44775 12 6H10.5V7.5H11.5V11.5H7.5V10.5H6Z" fill="#5CAAE5"/>
</svg>
